<svg width="330" height="256" xmlns="http://www.w3.org/2000/svg" xmlns:xlink="http://www.w3.org/1999/xlink"><defs><path id="a" d="M.08.78h172.91v136.7H.08z"/></defs><g fill="none" fill-rule="evenodd"><path d="M106.88 120.92S58.28 54.2 68.92 45.7c9.94-7.94 37.91 35.29 37.91 35.29s-37.81-47.42-27.9-60.04c10.99-14 44.22 48.45 44.22 48.45S86.55 13.06 97.88 6.72C110.56-.38 140 57.81 140 57.81S107.1 6.15 116.17.62c11.11-6.76 43.22 44.07 43.22 44.07s-12.24 12.64-19.74 35.95c-5.95 18.5-11.06 26.85-32.77 40.28" fill="#471180"/><g transform="translate(166.42 117.61)"><mask id="b" fill="#fff"><use xlink:href="#a"/></mask><path d="M55.82 132.99a13.99 13.99 0 0010.73 4.48c20.63-.68 74.66-9.71 93.56-34.82 4.4-5.84 3.32-14.14-2.23-18.9L65 .79S35.8 41.07.08 72.83l55.74 60.16z" fill="#471180" mask="url(#b)"/></g><path d="M91.2 63.22c4.59 7.68 9.88 14.91 14.47 22.6 1.39 2.31 5.03.2 3.63-2.13-4.59-7.68-9.88-14.92-14.47-22.6-1.39-2.32-5.03-.2-3.63 2.13M105.45 43.43c5.72 8.12 11.08 16.49 16.8 24.6 1.56 2.2 5.2.1 3.64-2.12-5.73-8.11-11.08-16.49-16.81-24.6-1.55-2.2-5.2-.1-3.63 2.12M122.5 29.44a336.63 336.63 0 0015.16 23.98c1.54 2.2 5.19.1 3.63-2.12a337.1 337.1 0 01-15.16-23.99c-1.36-2.34-5-.22-3.64 2.13" fill="#1E3255"/><path d="M116.54 86.03a102.81 102.81 0 0126.31-27.19c2.2-1.55.1-5.2-2.12-3.63a108.48 108.48 0 00-27.82 28.7c-1.5 2.26 2.14 4.37 3.63 2.12" fill="#1E3255"/><path d="M59.43 123.78l-12.5 4.14c-2.56.85-1.47 4.92 1.11 4.06l12.5-4.14c2.56-.85 1.47-4.91-1.11-4.06M65.11 111.77c-5.24-2.33-10.72-4.09-15.96-6.42-2.46-1.09-4.6 2.54-2.13 3.64 5.25 2.33 10.73 4.08 15.97 6.4 2.45 1.1 4.6-2.53 2.12-3.62M66.61 96.69l-10.28-10.4c-1.91-1.93-4.88 1.05-2.98 2.98l10.28 10.4c1.91 1.92 4.89-1.05 2.98-2.98M270.06 99.96l8.37-10.17c1.7-2.08-1.25-5.07-2.98-2.98l-8.36 10.17c-1.71 2.08 1.25 5.07 2.97 2.98M269.55 112.85c6.54-.92 13.05-2.02 19.59-2.93 2.67-.37 1.53-4.43-1.12-4.06-6.54.92-13.05 2.01-19.59 2.93-2.67.37-1.53 4.43 1.12 4.06M278.4 126.62l14.25 3.3c2.63.62 3.76-3.44 1.12-4.05l-14.25-3.31c-2.63-.61-3.76 3.44-1.11 4.06" fill="#FF00A5"/><path d="M2.27 180.3c24.3-9.86 57.23-25.19 71.74-33.57 16.44-9.5 30.32-18.42 44.32-31.34 4.62-4.27 8.67-9.35 12.33-14.67a55.8 55.8 0 007.88-17.03c2.22-8.1 5.74-21.18 9-26.36 4.75-7.5 17.38-19.35 17.38-19.35M103.32 242.97c35.53-26.3 95.5-78.63 119.8-110.7 11.49-15.18 18.89-27.92 28.27-42.77 5.62-8.9 11.4-18.37 15.62-28.04 1.61-3.68 3.04-8.74 1.5-11.48-1.78-3.13-5.4-4.5-9.08-1.74-2.16 1.62-4.53 4.6-4.94 4.83l6.25-9.25c3.12-4.6 9.27-12.48 5-17.69-5.62-6.86-13.2-.76-20.79 8.55 1-1.67 2.87-5.06 4.14-7.36 3-5.46 7.34-14.71-1.88-17.32-3.95-1.12-7.09 1.53-9.98 3.93-4.92 4.08-8.65 8.97-12.39 13.5a39.6 39.6 0 003.82-9.66c.86-3.4.06-6.27-3.03-8.14-4.04-2.45-7.38-.34-10.76 2.19-9.94 7.43-17.04 17.57-24.24 27.5a993.64 993.64 0 01-4.29 5.87c1.29-3.18 2.06-6.47 1.46-9.69-.77-4.12-4.4-7.87-8.82-6.39-6.36 2.15-12.44 10.05-16.45 15.13" stroke="#1E3255" stroke-width="4.21" stroke-linecap="round" stroke-linejoin="round"/><path d="M223.97 25.06c-7.38 10.55-14.1 21.53-21.06 32.35-1.47 2.28 2.18 4.4 3.64 2.12 6.96-10.82 13.68-21.8 21.05-32.35 1.56-2.22-2.09-4.33-3.63-2.12M244.19 32.2a789.83 789.83 0 01-22.89 34.86c-1.56 2.22 2.09 4.33 3.63 2.13a788.57 788.57 0 0022.9-34.86c1.43-2.3-2.2-4.42-3.64-2.12M253.58 51c-6.71 8.66-12.78 17.75-19.12 26.68-1.57 2.22 2.08 4.32 3.64 2.13 6.12-8.64 11.96-17.46 18.45-25.83 1.64-2.11-1.32-5.11-2.97-2.98M184.76 43.84c-4.5 6.21-8.75 12.7-14.81 17.53-2.12 1.7.88 4.65 2.97 2.98 6.33-5.04 10.77-11.9 15.47-18.38 1.6-2.2-2.06-4.3-3.63-2.13" fill="#1E3255"/><path d="M146.76 208.74c-22.54-24.98-36.5-46.17-54.8-74.34-.86-1.35-1.87-2.17-2.7-2.17-1.59-.25-2.92.9-4.12 1.82-1.03.81-4.12 3-5.12 3.86-1.53 1.33-1.6 3.65-.79 5.13 10.7 19.32 17.93 27.8 30.94 45.16 6.06 8.1 12.89 17.04 19.74 24.49 5.53 6 8.65 11.56 16.85 2 1.54-1.8 1.65-4.12 0-5.95" fill="#00B69E"/><path d="M169.64 61.48c-19.83-23.27-14.01-39.54-6.86-40.07 6.66-.5 21.1 22.7 21.1 22.7s2.04-.44-7.9 11.64c-1.72 2.09-4.25 4.03-6.34 5.73" fill="#471180"/><path d="M178.61 182.4c-1.03-3-10.94-10.84-20.07-19.6-11.63-11.18-23.84-26.57-27.84-30.69-5.92-6.07-9.48-12.21-15.93-18.1-4.43-4.05-7.48 1.58-16.39 9.68-3.68 3.04-4.7 5.73-1.77 9.12 13.45 15.6 57.18 69.08 66 67.53 2.56-.46 5.44-4.46 8.91-7.9 3.23-3.2 8.57-5.72 7.1-10.03" fill="#444"/></g></svg>
