<svg width="570" height="320" xmlns="http://www.w3.org/2000/svg" xmlns:xlink="http://www.w3.org/1999/xlink"><defs><path id="a" d="M0 .27h188.67v222.72H0z"/><path id="c" d="M.38.27h188.67v222.72H.38z"/><path id="e" d="M.39.33h192.93v232.93H.39z"/></defs><g fill="none" fill-rule="evenodd"><g transform="translate(82.43 30.06)"><mask id="b" fill="#fff"><use xlink:href="#a"/></mask><path d="M3.28 222.99c-1.08 0-1.9-1.07-2.44-1.78a8.23 8.23 0 01-.55-2.5C.27 210.52-.4 12.86.4 4.3c.26-1.07.53-1.78 1.34-2.5C2.27 1.44 2.8.72 3.62.72 10.69.28 177.82.08 184.89.48c.8 0 1.35.71 1.9 1.07.8.7 1.08 1.42 1.35 2.49.84 8.55.43 206.22.45 214.42 0 .71-.26 1.78-.53 2.5-.54.71-1.35 1.78-2.43 1.79-7.4.02-174.94.21-182.35.24" fill="#CEDBF2 " mask="url(#b)"/></g><path d="M98.75 195.16c-.92 0-1.62-.92-2.09-1.53a7.19 7.19 0 01-.47-2.15c-.02-7.08-.6-135.92.08-143.3.23-.93.46-1.55 1.15-2.16.46-.31.93-.93 1.62-.93 6.06-.38 149.26-.55 155.32-.2.7 0 1.17.6 1.63.92.7.6.93 1.22 1.17 2.15.71 7.38.37 136.22.39 143.3 0 .61-.23 1.54-.46 2.15-.46.62-1.16 1.54-2.09 1.55-6.34.02-149.9.18-156.25.2" fill="#FFF"/><path d="M206.41 142.8c-7.17-4.44-11.8-9.03-12.74-17.42-.92-8.23-.33-18.37-.34-24.86 0 0 9.93-3.03 8.03-12.04-1.25-5.95-6.35-5.02-6.35-5.02s1-9.7-2.01-15.38c-6.45-12.2-16.4-15.72-33.78-12.71-16.51 2.86-19.07 21.4-19.07 21.4-.48 3.9-1.1 19.68-.78 23.59.1 1.11.62 6.24 2.99 10.36 1.79 3.1 5.35 5.5 6.5 5.94a4.67 4.67 0 012.9 4.36v2.14c.08 10.15-3.5 15.8-9.46 19.9 0 0 11.98 9.38 29.38 9.38 17.39 0 34.73-9.64 34.73-9.64" fill="#CEDBF2 "/><path d="M159.82 81.8c-1.25 2.5-2.57 4.99-3.75 7.52-.6 1.3-1.02 2.68-.4 4.06 1.54 3.34 6.67 2.53 9.15.93 1.98-1.27.14-4.46-1.86-3.18-.75.48-1.54.78-2.42.85-1.43.11-1.65.04-1.1-1.17 1.08-2.42 2.38-4.77 3.56-7.15 1.06-2.11-2.12-3.98-3.18-1.85M153.72 106.26a22.36 22.36 0 0016.88-.19c2.16-.9 1.21-4.46-.98-3.55a19.36 19.36 0 01-14.92.19c-2.2-.86-3.16 2.7-.98 3.55M170.9 81.17c-.03.58 0 1.16-.04 1.73-.04 1 .88 1.84 1.85 1.84 1.03 0 1.8-.84 1.84-1.84.02-.57 0-1.15.03-1.73.05-1-.88-1.84-1.84-1.84-1.04 0-1.8.84-1.84 1.84M148.84 81.17c-.03.58 0 1.16-.04 1.73-.04 1 .88 1.84 1.84 1.84 1.04 0 1.8-.84 1.85-1.84.02-.57 0-1.15.03-1.73.04-1-.88-1.84-1.84-1.84-1.04 0-1.8.84-1.84 1.84M208.07 138.47a6.2 6.2 0 013.95-.58c2.93.54 9.44.75 15.92 3.99 8.13 4.06 10.09 11.26 10.28 13.65.28 3.74 1.54 26.3 1.47 27.9-.03.67-.68 1.2-1.47 1.2H116.15c-.8 0-1.44-.53-1.47-1.2-.07-1.6.85-24.16 1.14-27.9.19-2.39 2.15-9.59 10.27-13.65 6.2-3.1 12.44-3.43 15.53-3.92a6.29 6.29 0 014.39.91 55.44 55.44 0 0028.21 8.46c14.4.27 28.41-6.07 33.85-8.86" fill="#A3B6D9"/><path d="M134.13 184.4l84.75.33c.14-.24.21-1.82.21-2.1.04-13.14.56-26.83.9-39.96.08-3.02-9.54-5.76-9.92-3.13-2.19 14.93-1.86 19.5-3.07 27.12a3.02 3.02 0 00-.81-.17c-20.55-1.49-57.77-1.2-58.02-1.18-.87-10.88-1.53-15.16-1.94-26.08-.12-3.03-10.73-2.01-10.88.38-.85 13.42-1.22 44.78-1.22 44.79" fill="#CEDBF2 "/><g transform="translate(297.28 30.06)"><mask id="d" fill="#fff"><use xlink:href="#c"/></mask><path d="M3.66 222.99c-1.08 0-1.9-1.07-2.44-1.78a8.23 8.23 0 01-.55-2.5c-.02-8.2-.7-205.86.1-214.42.26-1.07.53-1.78 1.34-2.5C2.65 1.44 3.19.72 4 .72 11.07.28 178.2.08 185.27.48c.8 0 1.35.71 1.9 1.07.8.7 1.08 1.42 1.35 2.49.84 8.55.43 206.22.45 214.42 0 .71-.26 1.78-.53 2.5-.54.71-1.35 1.78-2.43 1.79-7.4.02-174.94.21-182.35.24" fill="#CEDBF2 " mask="url(#d)"/></g><path d="M313.98 195.16c-.93 0-1.63-.92-2.1-1.53a7.24 7.24 0 01-.46-2.15c-.02-7.08-.6-135.92.07-143.3.23-.93.46-1.55 1.15-2.16.47-.31.93-.93 1.62-.93 6.07-.38 149.27-.55 155.33-.2.7 0 1.16.6 1.62.92.7.6.93 1.22 1.17 2.15.72 7.38.37 136.22.39 143.3 0 .61-.23 1.54-.46 2.15-.46.62-1.16 1.54-2.08 1.55-6.35.02-149.9.18-156.25.2" fill="#FFF"/><path d="M416.99 62.53a15.32 15.32 0 00-15.16-5.33c-1.39.3-2.71.84-4.15.57-1.5-.28-2.87-1.11-4.23-1.76a48.2 48.2 0 00-9.18-3.47c-5.58-1.38-11.73-.97-16.48 2.49-3.65 2.66-5.45 6.36-5.87 10.7-.46 4.78.6 9.52 4.69 12.43a2.89 2.89 0 00.6.38 12.79 12.79 0 008.07 1.23c1.35-.2 2.68-.52 3.97-.96 1.2-.41 3.14-1.8 4.37-1.57 1.05.2 2.14 1.45 3 2.02 1.28.86 2.65 1.5 4.12 1.96 2.84.88 7.2.84 10.08.15.68-.17 1.33-.38 1.97-.65.28-.11.61-.2.87-.37.18.38.19.9.26 1.28.15.87.28 1.74.64 2.56.52 1.16 2.94 6.45 8.26 5.5 6.84-1.2 7.43-8.37 7.85-10.9 1-5.93-.13-11.83-3.68-16.26" fill="#CEDBF2 "/><path d="M421.02 132.35a83.9 83.9 0 01-2.57-18.88c-.07-2.5-.68-8.04-.47-8.3.72-.9 3.4-1.48 4.42-2.33a9.2 9.2 0 003-4.27c2.66-8.48-5.58-14.1-12.74-10.02-2.05 1.18-.2 4.36 1.86 3.18 3.9-2.22 10.33.34 6.97 6.66-1.01 1.9-3.41 3.03-5.42 3.48-.79.17-1.35 1-1.35 1.77-.02 10.08.19 19.9 2.75 29.7.6 2.28 4.15 1.31 3.55-.99" fill="#A3B6D9"/><path d="M455.2 160.2c-.17-2.3-2-9.22-9.58-13.12-7.92-4.08-15.9-3.16-16.33-4.5 0 0 4.23-6.75-.34-11.18-3.18-3.07-14.61 1.15-30.84.91-16.7-.24-27.66-3.98-30.84-.9-4.57 4.42-.35 11.16-.35 11.16-.43 1.35-8.4.43-16.32 4.5-7.58 3.91-9.41 10.84-9.58 13.14-.27 3.59-.21 22.29-.15 23.83.03.64.63 1.14 1.37 1.14h111.73c.74 0 1.35-.5 1.37-1.14.07-1.54.13-20.24-.14-23.83" fill="#CEDBF2 "/><path d="M381.07 86.94c-1.13 2.86-2.27 5.7-3.39 8.57-.65 1.68-1.32 3.5-.55 5.25 1.72 3.89 6.87 2.69 9.49.62 1.86-1.46-.77-4.05-2.6-2.6-.89.7-3.3 1.77-3.52-.19-.1-.85.82-2.3 1.11-3.05l3-7.62c.88-2.2-2.68-3.16-3.54-.98M374.82 112.27a22.37 22.37 0 0016.88-.18c2.15-.9 1.2-4.47-.98-3.56a19.36 19.36 0 01-14.92.19c-2.2-.86-3.17 2.7-.98 3.55M392.33 85.86c-.03.58 0 1.16-.04 1.74-.04 1 .88 1.84 1.84 1.84 1.04 0 1.8-.84 1.85-1.84.02-.58 0-1.16.03-1.74.04-1-.88-1.84-1.84-1.84-1.04 0-1.8.85-1.84 1.84" fill="#A3B6D9"/><path d="M370.26 85.86c-.02.58 0 1.16-.03 1.74-.04 1 .88 1.84 1.84 1.84 1.04 0 1.8-.84 1.84-1.84.03-.58.01-1.16.04-1.74.04-1-.88-1.84-1.85-1.84-1.03 0-1.8.85-1.84 1.84" fill="#88B3D3"/><path d="M223.93 213.05c-42.13.1-84.27.13-126.4.24-2.38 0-2.38 3.69 0 3.68 42.13-.1 84.27-.13 126.4-.24 2.37 0 2.37-3.69 0-3.68M167.99 225.48l-70.47.24c-2.37 0-2.37 3.7 0 3.68 23.5-.06 46.98-.17 70.47-.24 2.37 0 2.37-3.69 0-3.68M439.15 213.05c-42.13.1-84.27.13-126.4.24-2.37 0-2.38 3.69 0 3.68 42.13-.1 84.27-.13 126.4-.24 2.37 0 2.38-3.69 0-3.68M383.21 225.48c-23.49.07-46.98.17-70.46.24-2.37 0-2.38 3.7 0 3.68 23.48-.06 46.97-.17 70.46-.24 2.37 0 2.38-3.69 0-3.68" fill="#A3B6D9"/><path d="M192.08 289.1c-1.08 0-1.9-1.06-2.44-1.78a8.25 8.25 0 01-.55-2.5c-.02-8.2-.7-212.07.1-220.63.26-1.07.53-1.78 1.34-2.5.54-.36 1.08-1.07 1.9-1.07 7.06-.44 174.18-.64 181.26-.24.81 0 1.35.7 1.9 1.06.81.71 1.08 1.42 1.36 2.5.83 8.55.42 212.43.45 220.63 0 .71-.27 1.78-.54 2.5-.54.71-1.35 1.79-2.43 1.79-7.4.02-174.94.22-182.35.24" fill="#FFF"/><g transform="translate(186.25 57.68)"><mask id="f" fill="#fff"><use xlink:href="#e"/></mask><path d="M187.36 229.33c-2.34 1.04-7.5.02-10.03.02a74353.2 74353.2 0 01-69.15.09l-94.9.12-6.96.01c-3.99-2.87-1.69-18.92-1.7-22.61l-.11-43.57c-.08-36.34-.15-72.68-.1-109.02.01-12.59.02-25.17.15-37.76.02-2.71-.59-6.47.16-9.1.94-3.33 2.74-2.79 5.72-2.83 29.84-.44 59.7-.3 89.55-.34 17.36-.02 34.72-.03 52.09 0 10.79.01 22.04-.86 32.8.14 2.98.27 3.64.88 4.07 3.9.5 3.42.14 7.2.17 10.65.14 13.28.17 26.56.2 39.84.09 36.2.07 72.4.04 108.6 0 14.17-.03 28.34-.04 42.5 0 3.65 2.06 17.58-1.96 19.36m5.53-200.24c-.05-7.12 1.2-15.83-.35-22.84-1.8-8.1-14.08-5.52-20.18-5.55C156.08.64 139.8.64 123.53.64c-34.7 0-69.4.01-104.1.27C13.15.96 2.48-1.34 1.06 7.02-.3 14.92.8 23.97.78 31.95.52 96.05.2 160.2.99 224.3c.05 3.65-.01 7 3.91 8.72h.04c.25.15.54.25.89.25 59.05-.16 118.1-.15 177.15-.24 2.9 0 6.28.63 8.43-1.75 2-2.22 1.58-5.56 1.58-8.35 0-11.13.02-22.25.03-33.38.05-37.3.07-74.59.02-111.88-.02-16.2-.05-32.38-.15-48.57" fill="#1E3255" mask="url(#f)"/></g><path d="M332.79 246c-42.14.1-84.28.12-126.41.23-2.37 0-2.38 3.7 0 3.69 42.13-.12 84.27-.13 126.4-.25 2.38 0 2.38-3.68 0-3.68M276.84 258.42c-23.49.07-46.97.18-70.46.24-2.37.01-2.38 3.7 0 3.69 23.49-.07 46.97-.18 70.46-.24 2.37-.01 2.38-3.7 0-3.69" fill="#1E3255"/><path d="M205.12 225.65c-.92 0-1.62-.92-2.09-1.54a7.18 7.18 0 01-.47-2.15c-.02-7.08-.6-135.91.08-143.3.23-.93.46-1.54 1.15-2.16.46-.3.92-.93 1.62-.93 6.06-.37 149.26-.54 155.32-.2.7 0 1.16.61 1.63.92.7.61.93 1.23 1.16 2.15.72 7.39.37 136.22.4 143.3a7.2 7.2 0 01-.46 2.16c-.47.61-1.16 1.54-2.09 1.54-6.34.02-149.9.19-156.25.2" fill="#FFF"/><path d="M362.07 221.17c-.81 3.15-2 2.43-4.84 2.44l-9.67.01c-45.8.06-91.6.1-137.4.18h-4.46c-3.27-2.46-1.35-16.77-1.37-19.64l-.11-36.08c-.07-25.25-.17-50.5 0-75.74.03-3.5-1.59-13.38 2.04-14.96 1.66-.72 5.16-.08 6.93-.1l11.76-.07a15446.36 15446.36 0 01112.82-.16c6.42.02 14.97-1.42 21.25.12 4.46 1.09 2.88 8.48 2.92 12.53.12 10.93.15 21.87.17 32.8.06 26.19.03 52.37-.01 78.56-.01 6.02 1.5 14.25-.03 20.11m3.74-85.46c0-13.1-.03-26.21-.12-39.32-.04-5.54 1.37-13.7-.6-19.04-2.01-5.47-9.52-3.91-14.13-3.94-10.78-.05-21.55-.06-32.32-.07-28.04 0-56.08.03-84.11.14-8.69.03-17.39-.02-26.07.18-5.32.12-7.59 2.4-7.78 7.81-.82 23.21-.22 46.55-.18 69.77.04 22.77-.6 45.7.21 68.45.12 3.18.13 6.07 3.48 7.55l.05.01c.24.14.53.24.88.24 45.4-.12 90.8-.12 136.21-.18 6.2 0 13.58 1.1 19.7-.03 6.28-1.16 4.72-9.2 4.73-14.04.04-25.84.08-51.69.05-77.53" fill="#1E3255"/><path d="M248.76 139.5c-.69.16-.7-1.15-.9-1.61-.18-.4-.76-.73-1.2-.69-.43.05-1.28.55-1.6.53-1.15-.09-1.01-1.61-.83-2.37.46-1.91 1.74-3.49 3.88-3.22 1.75.23 1.74-2.53 0-2.76-3.8-.48-6.5 3.04-6.75 6.55-.11 1.5.36 3.08 1.66 3.97.6.4 1.32.6 2.05.6.17-.01.37-.07.57-.14.56 1.41 2.05 2.22 3.86 1.8 1.73-.39 1-3.05-.74-2.65" fill="#444"/><path d="M289.8 97.15s9.18-11.81 22.67-4.86c4.87 2.5 9.21 9.53 11.84 16.8 5.35 14.82 7.07 32.92 2.8 35.12-5.96 3.1-7.92-3.96-7.92-3.96s1.77 6.72-2.97 7.05c-4.74.33-4.68-5.65-4.68-5.65s-.13 7.56-4.89 7.56c-9.76.02 2.78-33.82-4.41-39.63-5.43-4.38-8.76 4.17-8.76 4.17l-3.67-16.6z" fill="#00B69E"/><path d="M257.24 108.28a32.18 32.18 0 005.72-3.6c4.08 6.95 8.48 10.72 16.55 13.82 3.74 1.44 11.09 2.06 14.87.67 1-.37-1.3.23-.15.1l2.82-.34c.17-.03.32-.09.44-.17.2-.1.37-.24.46-.48 2.1-5.01 1.08-13.22-1.1-18.06-1.7-3.73-4.38-7.49-8.17-9.6-5.35-3-12.64-3.79-18.65-2.5a39.37 39.37 0 00-9.43 3.42 20.39 20.39 0 00-9.6 10.2 21.53 21.53 0 00-1.87 8.3s1.57 1.28 8.11-1.76" fill="#00B69E"/><path d="M298.31 160.7l-.03-12.99-.01-6.68c0-1.05-.8-4.42-.55-4.88.64-1.26 4.46-3.05 5.46-4.42.94-1.3 1.64-2.71 1.94-4.28 1.49-7.99-5.44-12.88-12.46-9.08-2.09 1.13-.23 4.3 1.86 3.18 5.25-2.85 7.88 2.18 6.84 5.8-.8 2.79-3.4 4.67-5.87 5.78-.58.26-.92 1-.91 1.6 0 8.65.04 17.31.05 25.97 0 2.37 3.68 2.37 3.68 0M259.33 160.7c.23-3.2 1.34-8.45-.07-11.53-1.42-3.1-4.87-4.47-6.6-7.49-4.5-7.84-3.32-21.22-1.91-29.72.39-2.31-3.16-3.31-3.55-.97-1.33 8-1.76 16.93-.27 24.98.65 3.54 1.8 7.07 4.1 9.9.87 1.07 2.4 1.9 3.15 2.98 2.55 3.64 1.76 7.85 1.46 11.86-.17 2.36 3.52 2.35 3.69 0" fill="#1E3255"/><path d="M306.49 169.43a4.44 4.44 0 003.59 3.3c2.95.49 7.57 1.1 12.5 3.65 7.23 3.72 8.97 10.33 9.14 12.52.26 3.43.2 21.27.14 22.74-.03.61-.6 1.1-1.31 1.1H223.94c-.7 0-1.28-.49-1.31-1.1-.06-1.47-.12-19.31.14-22.74.16-2.2 1.9-8.8 9.14-12.52 4.97-2.57 9.23-2.45 12.16-2.83a4.8 4.8 0 003.98-3.51l2.08-7.62a2.84 2.84 0 012.74-2.09h49.05c1.3 0 2.42.87 2.75 2.12l1.82 6.98z" fill="#471180"/><path d="M263.16 119.96c-.2 4-4.1 7.7-2.63 11.83 1.41 3.98 6.53 4.06 8.95 1.03 1.46-1.84-1.13-4.46-2.6-2.6-.87 1.08-2.72 1.74-2.98-.16-.15-1.03.53-2.35.9-3.26.93-2.25 1.92-4.37 2.04-6.84.12-2.37-3.57-2.37-3.68 0M258.77 142.72a21.4 21.4 0 0016.15-.18c2.16-.9 1.2-4.46-.98-3.55a18.4 18.4 0 01-14.19.18c-2.21-.86-3.17 2.7-.98 3.55M274.47 119.64c-.03.55 0 1.1-.03 1.66-.05 1 .88 1.84 1.84 1.84 1.03 0 1.8-.84 1.84-1.84.03-.55 0-1.1.03-1.66.05-.99-.88-1.84-1.84-1.84-1.04 0-1.8.85-1.84 1.84M252.79 119.64c-.03.55 0 1.1-.03 1.66-.05 1 .88 1.84 1.84 1.84 1.03 0 1.8-.84 1.84-1.84.03-.55 0-1.1.03-1.66.05-.99-.88-1.84-1.84-1.84-1.04 0-1.8.85-1.84 1.84" fill="#1E3255"/><path d="M302.39 132.62c-1.18-1.33-3.13.63-1.95 1.96.75.85 1.54 1.9.63 2.77-.76.72-.63.35-1.48.07a1.36 1.36 0 00-1.34.36c-.2.2-.97 1.53-1.06 1.54-.46.02-.71-1.23-.92-1.55-.37-.56-.92-.73-1.56-.63-1.7.27-2.1-1.3-1.58-2.71.59-1.64 1.9-2.73 3.67-2.5 1.75.22 1.74-2.54 0-2.76-3.63-.47-6.25 2.73-6.7 6.07-.2 1.49.06 3.13 1.24 4.17 1 .88 1.9.82 2.89.63.09.29.2.58.42.84a3.62 3.62 0 002.32 1.17c.72.07 1.38-.08 1.99-.5.4-.3.59-.68.77-1.06.49.27.93.51 1.73.37a3.53 3.53 0 002.38-1.75c1.32-2.15.06-4.78-1.45-6.49" fill="#444"/><path d="M332.45 185a11.7 11.7 0 00-6.21 2.43 17.44 17.44 0 00-7.23 6.1c-6.18 8.7-3.18 21.2 7.23 24.69 9.66 3.23 21.93-1.4 23.4-12.4 1.25-9.22-6.97-21.7-17.19-20.83" fill="#FF00A5"/><path d="M324.98 204.4c1.28 1.62 2.85 4.7 4.93 5.3 1.6.46 2.83-.54 3.95-1.57 2.88-2.62 5.4-5.75 7.82-8.8 1.46-1.82-1.13-4.45-2.6-2.6-1.74 2.18-3.54 4.3-5.43 6.36-.48.52-2.04 2.72-2.8 2.8-.44.06-2.93-3.67-3.26-4.09-1.48-1.86-4.07.77-2.6 2.6" fill="#FFF"/></g></svg>