<svg width="570" height="320" xmlns="http://www.w3.org/2000/svg" xmlns:xlink="http://www.w3.org/1999/xlink"><defs><path id="a" d="M.43.18h198.24v97.18H.43z"/></defs><g fill="none" fill-rule="evenodd"><path fill="#FFF" d="M148.8 104.16l5.2-5.6 3.33-8.05-1-5.83-5.34-4.6-4.6-7.78V57.16l2.42-13.97 9.81-9.09 12.82-1.6 11 2.43 6.32 7.45 2 4.93v8.82l4.38 2 1.15 6.31-5.53 5.6-2 2.26.95 17.37 2.97 8.05 13.23 11.56-45.28 7.68z"/><path d="M146.98 218.63c-.59.32-.63 3.26-.68 3.97l-.33 4.64c-.07 1 .9 1.86 1.87 1.86 1.06 0 1.8-.85 1.87-1.86l.17-2.52c-.76-.8-2.9-5.64-2.9-6.09M150.13 224.97c-.05.16-.07.34-.07.54v4.01c0 2.4 3.72 2.41 3.73 0v-1.6a20.35 20.35 0 01-3.66-2.95" fill="#A3B6D9"/><path d="M187.81 203.57c1.66-1.4 6.32-3.73 8.3.86 3 6.92-6.31 11.1-6.31 11.1 0 2.64-.3 7.1.4 12.92.71 5.83.5 12.74 1.25 14.25l-36.78-.32a18.97 18.97 0 001-6.67v-1.75c0-1.57-.93-3-2.38-3.58a13.62 13.62 0 01-5.32-4.89c-1.94-3.38-2.37-7.58-2.44-8.5-.16-1.98-.02-9.62.2-14.44.3-6.54 3.35-12.7 8.5-16.74a15.98 15.98 0 017.33-3.38c8.71-1.35 17.99 1.96 23.23 9.92a18.32 18.32 0 012.93 9.26l.1 1.96z" fill="#CEDBF2 "/><path d="M164.06 212.7c-.6.25-1.1.2-1.49-.37-.53-.8-1.79-1.13-2.5-.32-.35.39-1.45.9-1.99.5-.57-.43.05-1.72.29-2.33.96-2.51 1.98-5 2.96-7.5.76-1.9-2.33-2.73-3.08-.84-1.04 2.63-2.21 5.25-3.13 7.93-.5 1.43-.74 3.12.18 4.45 1.23 1.78 3.84 1.94 5.72 1a3.79 3.79 0 003.89.56c1.86-.79 1.04-3.88-.85-3.08M153.9 222.47a18.7 18.7 0 0014.1-.14c1.86-.78 1.04-3.87-.86-3.08a16.08 16.08 0 01-12.4.14c-1.9-.75-2.74 2.34-.84 3.08M168.46 201.52c-.02.48 0 .96-.03 1.44-.04.86.77 1.6 1.6 1.6.9 0 1.55-.73 1.6-1.6.02-.48 0-.96.02-1.44.04-.86-.76-1.6-1.6-1.6-.9 0-1.55.73-1.59 1.6M150.08 201.5c-.03.48-.01.96-.03 1.44-.04.86.76 1.6 1.6 1.6.9 0 1.55-.74 1.59-1.6.02-.48 0-.96.03-1.45.04-.86-.77-1.59-1.6-1.59-.9 0-1.55.73-1.6 1.6" fill="#A3B6D9"/><path d="M193.48 212.87c-.02 0-.03.02-.05.04-1.57 1.37-3.66 1.99-3.65 2.84.06 3.83-.22 7.63-.87 11.4-.41 2.35 3.18 3.37 3.6 1 .6-3.47.94-6.96 1-10.48.27 1.5.47 3 .6 4.52.2 2.4 3.9 1.98 3.7-.42-.12-1.5-.32-3.77-.6-6.01.2.23.48.41.82.51.84.24 2.07-.29 2.2-1.24.7-5.04.19-10.08-1.26-14.95-1.41-4.77-3.5-9.78-6.71-13.63a24.18 24.18 0 00-12.35-7.99c-4.7-1.2-9.92-1.52-14.32.8a1.9 1.9 0 00-.38.27s-9.32-4.68-17.87 7.66a33.49 33.49 0 00-7.53 29.88c.62 2.57 4.6 1.49 3.97-1.09a28.07 28.07 0 01-.75-5.4c1.03 1.26 3.66.84 3.71-1.27.1-3.8.64-7.56 1.65-11.23.87-3.12 1.87-6.5 4.47-8.63.09-.07.16-.15.23-.23 1.38-1 3.56-2.1 6.9-2.84a2.7 2.7 0 011.67.16l.21.1c4.2 1.86 7.5 5.29 9.28 9.52a34.72 34.72 0 012.73 14.11c-.04 2.65 4.08 2.66 4.12 0a38.89 38.89 0 00-2.79-15.09 30.63 30.63 0 015.28 10.84c.4 1.55 2.02 1.77 3.08 1.12.07 2.82-.22 5.67-.5 8.48-.26 2.39 3.48 2.37 3.72 0 .41-3.92 1-7.32.54-11.2 0 0 3.8-4.38 7.14-1.37 2.74 2.47 2.7 6.46-1 9.82M223.3 283.55c.65 0 1.2-.42 1.22-.95.06-1.29.13-12.2-.11-15.2-.15-1.92-1.78-7.69-8.55-10.95-4.62-2.22-8.95-2.77-11.7-3.2a4.06 4.06 0 01-3.37-2.88l-1.7-6.1a2.64 2.64 0 00-2.57-1.86l-45.96-.05c-1.2 0-2.25.74-2.57 1.82l-1.96 6.65a4.4 4.4 0 01-3.73 3.06c-2.75.34-6.74.23-11.4 2.46-6.78 3.25-8.42 9.01-8.58 10.93-.24 3-.2 13.91-.15 15.2.03.53.57.95 1.23.95l99.9.12z" fill="#A3B6D9"/><path d="M241.22 212.25a301.11 301.11 0 00-1.19 41.05c.35 10.01 1.93 15.9 10.75 21.96 9.12 6.26 111.77 6.96 165.76 2.59 23.92-1.94 18.97-33.91 18.72-44.57-.35-15.24-.27-38.47-22.88-42.3-41.96-7.11-141.26-1.23-147.36-.86-9.73.6-23.4 9.36-23.8 22.13" fill="#CEDBF2 "/><path d="M415.15 213.66c-38.7.1-93.36.15-132.06.23l-19.2.04c-2.04 0-2.05 3.2 0 3.2 38.71-.11 93.37-.16 132.07-.24l19.19-.04c2.05 0 2.06-3.2 0-3.19M394.14 232.49c-38.1.1-92.15.17-130.24.27-2.05 0-2.06 3.2 0 3.2 38.1-.11 92.14-.18 130.24-.28 2.05 0 2.05-3.2 0-3.2M359.16 251.32l-95.26.27c-2.05 0-2.06 3.2 0 3.2l95.26-.28c2.05 0 2.06-3.2 0-3.2" fill="#FFF"/><path d="M194.81 62.08c.15 2.97-3.06 5.14-5.6 6-.68.22-1.17.8-1.17 1.53-.03 7.29-1.08 15.16.64 22.3 1.67 6.96 7.3 11.56 13.56 14.5 1.85.86 3.47-1.9 1.61-2.76-5.19-2.43-10.14-5.98-11.85-11.71-1.53-5.1-.95-11.14-.86-16.42.02-1.29.12-2.6.07-3.9-.06-1.57-.02-.97-.07-.65-.04.22-.4.22.26-.34 2.2-1.85 4.56-2.3 5.89-5.21 1.22-2.7.95-6.86-1.4-8.94-3.2-2.8-7.3-.07-9.8 2.35-1.48 1.43.78 3.68 2.26 2.25 2.54-2.45 6.23-3.77 6.46 1z" fill="#1E3255"/><path d="M145.9 107.2c8-4.09 13.25-11.8 11.99-21.14-.67-4.95-5.32-5.12-7.76-9.08-3.72-6.03-2.27-14.84-1.9-21.58.6-11.17 5.96-19.72 18.05-20.97 14.05-1.46 24.44 6.67 23.1 21.5-.19 2.05 3 2.03 3.19 0 .94-10.37-3.79-20.89-14.39-23.99-11.05-3.23-24.65-.02-30.17 10.62-4.18 8.04-4.25 19.74-3.08 28.36.45 3.3 1.46 6.67 3.6 9.28 1.79 2.16 5.36 3.47 6.17 6.26 2.21 7.71-4.28 14.85-10.4 18-1.83.93-.22 3.68 1.6 2.75" fill="#1E3255"/><path d="M159.98 55.6c-1.02 2.04-2.1 4.06-3.06 6.12-.5 1.09-.85 2.24-.32 3.39 1.27 2.78 5.5 2.14 7.58.81 1.72-1.1.12-3.87-1.61-2.76a4.1 4.1 0 01-1.94.68c-1.08.09-1.23.14-.8-.81.89-1.97 1.94-3.89 2.9-5.82.92-1.83-1.83-3.45-2.75-1.61M155.07 75.66a18.3 18.3 0 0013.8-.15c1.87-.78 1.05-3.87-.85-3.08-4 1.67-8.07 1.72-12.1.15-1.92-.74-2.75 2.34-.85 3.08M168.99 55.13c-.02.47 0 .94-.03 1.41-.04.86.77 1.6 1.6 1.6.9 0 1.56-.74 1.6-1.6.02-.47 0-.94.02-1.41.04-.86-.76-1.6-1.6-1.6-.9 0-1.55.73-1.59 1.6M151.02 55.13c-.03.47 0 .94-.03 1.41-.04.86.76 1.6 1.6 1.6.9 0 1.55-.74 1.6-1.6.01-.47 0-.94.02-1.41.04-.86-.76-1.6-1.6-1.6-.9 0-1.55.73-1.6 1.6" fill="#1E3255"/><path d="M199.37 103.84c1-.51 2.13-.68 3.22-.47 2.38.43 7.7.6 12.97 3.24 6.62 3.31 8.22 9.18 8.37 11.13.23 3.04 1.26 18.89 1.2 20.2-.03.53-.55.96-1.2.96l-9.83.25-4.59-.25h-85.03c-.64 0-1.17-.43-1.2-.97-.05-1.3.7-17.15.94-20.2.15-1.94 1.74-7.8 8.36-11.12 5.06-2.52 10.13-2.79 12.65-3.19 1.24-.2 2.5.06 3.58.74 3.6 2.3 11.9 6.7 22.98 6.9 11.74.22 23.15-4.95 27.58-7.22" fill="#444"/><path d="M139.13 139.23l69.04.27c.12-.2.18-1.48.18-1.72.03-10.7.45-21.34.73-32.04.06-2.46-7.77-4.7-8.08-2.55-1.78 12.16-1.51 15.38-2.5 21.59-.2-.07-.42-.12-.66-.14-16.74-1.22-47.07-.97-47.27-.96-.71-8.87-1.25-12.35-1.58-21.25-.1-2.47-8.74-.12-8.86 1.83-.7 10.93-1 34.96-1 34.97M191.02 64.7a4.33 4.33 0 00-4.88 1.5 5.3 5.3 0 00.2 6.02c2.61 3.45 8.8 1.49 7.66-3.1-.37-1.5-2.68-.87-2.31.63.58 2.35-2.86 2.34-3.7.61-.82-1.67.26-4.24 2.4-3.35 1.42.6 2.04-1.72.63-2.3" fill="#471180"/><g transform="translate(236.49 26.56)"><mask id="b" fill="#fff"><use xlink:href="#a"/></mask><path d="M2.08 31.49C.88 45.29.04 52.7.63 69.69.98 79.83 2.58 85.8 11.5 91.92c9.23 6.34 112.95 7.05 167.61 2.62 24.23-1.96 19.2-34.33 18.96-45.12-.35-15.43 1.1-41.01-21.8-44.89-42.47-7.2-139.85-3.67-149.24-2C13.07 5.04 2.5 18.57 2.08 31.5" fill="#00B69E" mask="url(#b)"/></g><path d="M414.2 56.13c-39.16.1-94.28.16-133.44.24l-19.48.04c-2.06 0-2.06 3.2 0 3.19 39.16-.1 94.28-.16 133.44-.23l19.48-.05c2.06 0 2.06-3.2 0-3.19M392.93 75.2c-38.56.1-93.09.17-131.66.27-2.05 0-2.05 3.2 0 3.2 38.57-.11 93.1-.18 131.66-.28 2.06 0 2.06-3.2 0-3.2M357.52 94.26l-96.24.27c-2.06.01-2.06 3.2 0 3.2l96.24-.28c2.05 0 2.06-3.2 0-3.2" fill="#FFF"/><path d="M445.02 103.83c-2.72-5.49-13.06-16.63-28.26-8.03-15.23 8.61-11 24.58-7.82 29.06 6.45 9.09 20.52 9.77 29.32 4.11 8.78-5.64 11.34-15.9 6.76-25.14" fill="#FF00A5"/><path d="M433.56 106.3c-1.97 2.57-4.02 5.09-6.09 7.59-.76.92-2.18 2.9-3.18 3.93a19.63 19.63 0 01-3.94-4.74c-1.06-1.76-3.82-.16-2.75 1.6 1.42 2.37 5.44 8.58 8.46 5.75 3.85-3.6 7.05-8.35 10.26-12.53 1.25-1.63-1.53-3.22-2.76-1.6" fill="#FFF"/><path d="M445.09 264.02c-2.72-5.49-13.06-16.63-28.27-8.03-15.22 8.61-10.99 24.58-7.8 29.06 6.44 9.09 20.51 9.77 29.3 4.11 8.8-5.64 11.35-15.9 6.77-25.14" fill="#A3B6D9"/><path d="M433.16 265.25a591.95 591.95 0 01-14.66 14.3c-1.5 1.4.76 3.65 2.26 2.25a592 592 0 0014.66-14.29c1.45-1.45-.8-3.71-2.26-2.26" fill="#FFF"/><path d="M418.05 267.72c5.28 4.56 10.73 8.92 16.12 13.35 1.58 1.29 3.85-.96 2.26-2.26-5.4-4.42-10.84-8.78-16.12-13.34-1.55-1.34-3.82.9-2.26 2.25" fill="#FFF"/></g></svg>