<svg width="570" height="320" xmlns="http://www.w3.org/2000/svg" xmlns:xlink="http://www.w3.org/1999/xlink"><defs><path id="a" d="M0 .69h154.17v266.3H0z"/><path id="c" d="M.55.56h65.2v47.29H.54z"/></defs><g fill="none" fill-rule="evenodd"><g transform="translate(191 20.45)"><mask id="b" fill="#fff"><use xlink:href="#a"/></mask><path d="M144.78 213.32c-.02.2-.05.4-.12.6-2.27 6.54-2.74 13.17-2.78 20.05-.01 3.27-4.31 3.74-5.59 1.46-1.6.96-4.03.58-4.43-1.63-2.5-13.77 3.95-32.1 19-35.75.85-.2 2.01-.21 3.23-.04l-.26-114.03c-.04-17.76-.14-35.51-.11-53.26.01-11.52-.08-22.3-12.18-27.4C134.77.46 127.26.77 120.05.77L81.14.73 37.85.69C23.58.68 3.58.15 1.08 18.2.03 25.7.52 33.68.5 41.3L.43 74.83C.32 127.97.2 181.12.1 234.27c-.02 6.46-.72 13.97 1.9 20.06 4.88 11.4 18.87 12.2 29.49 12.24 9.6.03 19.19.02 28.78.03l47.12.04c12.26.01 28.44 2.33 38.69-5.1 8.51-6.18 7.93-17.2 8.1-26.68l-.07-25.42c-3.46.34-6.67 1.7-9.33 3.88" fill="#471180" mask="url(#b)"/></g><path d="M322.22 255.86c-2.78-9.8-1.01-24.61 7.31-31.66l.19-170.37V52.3a5.23 5.23 0 00-2.39-4.39 5 5 0 00-2.7-.79 12212.62 12212.62 0 00-110.8.4l-2.25.03a5.01 5.01 0 00-4.48 2.86 5.25 5.25 0 00-.54 2.31v13.62l-.32 183.18a10.93 10.93 0 00.59 3.45 8.57 8.57 0 00.64 1.32c.19.3.4.58.62.82.22.24.46.45.7.62.23.15.46.27.7.35.3.1.61.16.93.16l1.05-.02 1.39-.02c2.03-.03 4.16-.04 6.38-.05v.02l2.42-.03c26.28-.07 74.93.76 101.41 1.1a2.86 2.86 0 01-.85-1.38" fill="#FFF"/><path d="M323.09 252.47c.12-15.6 3.43-33.32 23-32.63 18.58.66 21.92 17.7 21.35 32.93-.07 1.76 2.67 1.76 2.73 0 .64-16.8-3.91-35.17-24.07-35.66-7.86-.2-15.3 2.33-19.98 8.89-5.47 7.68-5.7 17.4-5.76 26.47-.02 1.76 2.72 1.76 2.73 0" fill="#1E3255"/><path d="M333.5 252.16c.06-8.55-.4-20.89 11.34-21.21 12.51-.35 12.58 12.26 12.27 21.38-.06 1.76 2.67 1.76 2.73 0 .37-10.84-.9-24.45-15-24.12-13.42.32-14 13.65-14.08 23.95-.01 1.77 2.72 1.77 2.74 0" fill="#1E3255"/><g transform="translate(311.76 251.73)"><mask id="d" fill="#fff"><use xlink:href="#c"/></mask><path d="M65.58 1.9c0-.97-.86-1.39-1.6-1.27a1.42 1.42 0 00-.41-.07C42.99.56 22.42.7 1.84.8.97.8.54 1.5.55 2.17v.06c.07 14.71.4 29.41.4 44.12-.08.72.34 1.5 1.28 1.5 20.45-.1 40.9-.1 61.34-.1.11 0 .22-.02.31-.04.8.3 1.86-.1 1.86-1.2 0-14.87-.1-29.74-.16-44.61" fill="#444" mask="url(#d)"/></g><path d="M347.8 284.7c-1.3.02-2.6.02-3.9 0-.79-.02-2.77.27-3.45-.14-.56-.33-.1-1.1.08-1.98.44-2.13.86-4.27 1.31-6.4.04-.15.04-.29.03-.42a1.2 1.2 0 00-.12-1.14c-2-3.19-1.1-6.72 2.92-7.37 2.04-.33 3.77.9 4.32 2.86.48 1.75-.3 3.27-1.18 4.73-.18.3-.23.6-.19.86 0 .13.01.26.05.4.62 2.22 1.1 4.48 1.64 6.72.44 1.85.2 1.85-1.5 1.88m3.85-3.85c-.4-1.7-.8-3.39-1.25-5.07 1.3-2.27 2-4.76.88-7.3-1.17-2.63-3.58-4.3-6.51-4-5.96.6-8.42 6.17-5.6 11.13-.36 1.66-.7 3.32-1.03 4.98-.27 1.34-.9 2.96-.89 4.34.01 3.26 5.03 2.47 7.12 2.5 2.17.04 7.2 1.03 8.08-1.78.46-1.46-.47-3.4-.8-4.8" fill="#1E3255"/><path d="M315.37 184.65l-96.44-.03a1.31 1.31 0 010-2.62l96.44.03a1.31 1.31 0 010 2.62M308.69 198.32l-89.76-.03a1.31 1.31 0 010-2.62l89.76.03a1.31 1.31 0 010 2.62M286.03 212l-67.1-.04a1.31 1.31 0 010-2.62l67.1.03a1.31 1.31 0 010 2.62M277.13 224.53l-29.54-.02-28.66-.02a1.31 1.31 0 010-2.62c14.83 0 21.83.01 28.66.02l29.54.01a1.31 1.31 0 010 2.63" fill="#CEDBF2 "/><path d="M303.8 206.77c-1.36.12-2.7.64-3.75 1.47a10.51 10.51 0 00-4.35 3.67c-3.72 5.24-1.92 12.78 4.36 14.88 5.82 1.95 13.2-.85 14.1-7.46.75-5.57-4.2-13.1-10.36-12.56" fill="#A3B6D9"/><path d="M302.17 221.9c1.06.33 1.9-.32 2.66-1a45.16 45.16 0 004.71-5.3c1.09-1.37-.84-3.31-1.93-1.94-.8 1.01-1.64 2-2.49 2.96l-1.12 1.3c-.34.39-.55.73-1.09 1.26 0-.08-1.26-1.7-1.86-2.46-1.1-1.38-3.02.56-1.93 1.93.8 1.02 1.73 2.83 3.05 3.25z" fill="#FFF"/><path d="M243.57 87c.09-.1.22-.08 0 0zm9.9 35.68c.06-.15.06-.16.03-.04.04 0 .02.03-.03.08v-.04zm4.83 29.55c2.02-7.77 4.2-15.53 5.97-23.36.9-3.94 1.42-7.94 1.7-11.97.3-4.08.16-8.09-.32-12.14-.32-2.75-.56-8.33-2.07-11.72-1.5-3.4-4.04-3.08-4.63-2.92a2.7 2.7 0 00-1.9 2.1c.68-2.58.76-4.64.3-6.92-.37-1.89-1.65-2.7-3.1-2.7-1.1 0-2.1.72-2.48 1.72.11-4.5-2.19-4.38-3.3-4.1-2.06.55-3.2 3.57-3.35 5.1-.13-.56-.4-2.85-2.78-2.69-1.83.13-2.72 1.9-3.36 3.53-.6 1.5-1.03 3.09-1.5 4.64a44.66 44.66 0 00-1.78 8.82 4.08 4.08 0 00-2.16-1.58c-2.35-.63-3.79 1.49-3.97 3.54-.34 3.85.27 7.88.98 11.66.8 4.28 4.1 13.18 4.36 13.45l-.02.05-3.62 9.12-1.8 4.56c-.3.74-.69 1.35-.95 2.04l25.75 7.47 4.03 2.3z" fill="#00B69E"/><path d="M235.16 100.43c1.75 2.84 2.18 6.13 3.6 9.06.63 1.3.55 1.06 1.75 1.53 5.26 2.07 8.38 4.11 8.06 10.6-.07 1.47 2.2 1.47 2.28 0 .25-5.16-1.7-9.65-6.59-11.81-1.04-.46-3.18-.85-3.61-1.3-.57-.59-1.29-4.42-1.75-5.53-.52-1.26-1.05-2.54-1.77-3.7-.77-1.25-2.74-.1-1.97 1.15M244.4 85.55a152.26 152.26 0 01-2.01 16.33c-.26 1.44 1.93 2.05 2.2.61 1-5.6 1.7-11.26 2.1-16.94.1-1.46-2.18-1.46-2.28 0M250.83 84.53a307.61 307.61 0 01-1.88 19.17c-.17 1.45 2.1 1.44 2.28 0 .76-6.38 1.51-12.75 1.87-19.17.09-1.46-2.2-1.46-2.27 0M256.44 92.13c-.02 4.42-.11 8.84-.13 13.27 0 1.46 2.27 1.46 2.28 0 .02-4.43.1-8.85.13-13.27 0-1.46-2.28-1.47-2.28 0" fill="#1E3255"/><path d="M312.09 143.79c-1.3-4.33-2.59-8.66-3.85-13-.06-.2-.14-.4-.23-.57.63-1.55 1.52-3.12 2.13-4.75.31-.86 1.92-4.8 2.15-9.04.52-10-1.6-15.54-4.57-15.73-1.78-.12-3.02 1.93-3.04 1.7-.83-6.25-3.04-21.28-7.94-20.56-2.62.39-2.76 2.42-2.76 3.14-.08-.03.19-.05.1-.05-.12-1.96-1.13-4.6-4.01-4.35-2.32.2-2.88 3.31-2.84 5.48.02.59.06.78.1 1.15-.04-.27-.1-.31-.44-.67-1.02-1.09-3.11-2.07-4.76.13-1.47 1.98-1.73 4.25-1.44 7.42-.55-.73-2.64-1.04-3.71.57-1.64 2.47-2.53 8.47-2.4 16.48.12 7.28 1.24 14.42 1.42 15.72.67 4.8 1.6 9.6 2.67 14.22.66 2.8 2.22 7.91 3.87 11.53.3.64 4.18-.74 9.04-2.17 8.72-2.57 20.59-6.37 20.5-6.65" fill="#444"/><path d="M279.74 94.5c.75 4.77 1.33 9.57 1.95 14.36.18 1.44 2.46 1.45 2.28 0-.65-5-1.25-10-2.04-14.97-.22-1.45-2.42-.83-2.2.6M286.2 87.57c1.05 6.55 1.85 13.14 2.95 19.69.24 1.44 2.43.83 2.2-.6-1.1-6.55-1.9-13.14-2.95-19.7-.23-1.44-2.43-.83-2.2.6M293.1 85.76c.96 6.3 1.96 12.6 3.08 18.87.26 1.44 2.46.83 2.2-.6a787.5 787.5 0 01-3.09-18.87c-.22-1.45-2.42-.83-2.2.6M304.36 102.88c.34 2.6.51 5.21.84 7.81.18 1.44 2.46 1.46 2.28 0-.33-2.6-.5-5.22-.84-7.81-.18-1.44-2.47-1.46-2.28 0M303.94 155.55a116.5 116.5 0 01-9.37 3.06c-1.76.48-4.8 1.62-6.54 1.24-2.75-.6-5.66-4.54-2.76-6.89 1.51-1.22 5.68-1.46 7.61-1.99a257.1 257.1 0 008.3-2.43c2.54-.8 5.34-2.17 7.97-2.62 1.8-.3 2.49-.82 3.72 1.21.64 1.07.93 3.9.09 4.63-1.11.96.5 2.56 1.61 1.6 2.9-2.5.8-10-3.22-10.43-1.55-.17-3.78 1.13-5.24 1.62-3.06 1.02-6.13 2-9.23 2.91-3.75 1.1-9.84 1.5-13.09 3.68-3.55 2.38-2.23 9.2 1.52 10.74 5.26 2.16 14.35-2.36 19.24-4.13 1.36-.5.77-2.7-.6-2.2M252.9 158.5c-4.41.59-10.8-2.16-14.95-3.6-2.63-.92-6.9-1.5-9.12-3.18a4.48 4.48 0 01-1.02-5.82c1.24-2.13 2.52-1.74 4.89-1.4 4 .58 8.14 2.53 12.01 3.7 3.14.97 7.26 1.4 10.1 3.07 3.4 2 2.6 6.64-1.9 7.24m-5.59-11.9c-4.07-1.22-8.1-2.62-12.18-3.8-1.8-.5-4.64-1.85-6.55-1.21-2.3.76-3.17 3.68-3.5 5.83-1.11 7.2 7.05 7.85 12.26 9.67 4.63 1.6 16.7 6.87 20.54 1.8 6.38-8.43-5.26-10.7-10.57-12.29" fill="#1E3255"/><path d="M292.27 154.2c.53 1.6 1.03 3.21 1.57 4.82.46 1.38 2.66.79 2.2-.61-.54-1.6-1.04-3.22-1.57-4.82-.47-1.39-2.67-.8-2.2.6M297.72 152.54c.57 1.79 1.18 3.56 1.83 5.32.5 1.36 2.7.77 2.2-.6-.65-1.77-1.26-3.54-1.83-5.33-.45-1.39-2.65-.8-2.2.6M287 155.63c.43 1.7.82 3.4 1.4 5.05.5 1.37 2.7.78 2.2-.6-.59-1.66-.97-3.36-1.41-5.06-.37-1.42-2.56-.81-2.2.6M228.88 73.83a39.9 39.9 0 003.7 5.05c.96 1.11 2.57-.5 1.61-1.61a36.14 36.14 0 01-3.34-4.6c-.77-1.24-2.74-.1-1.97 1.16M252.69 74.05c.23-2.02.35-4.06.43-6.1.06-1.46-2.22-1.45-2.28 0-.08 2.04-.2 4.08-.43 6.1-.17 1.45 2.1 1.44 2.28 0M269 79.98c1.19-1.24 2.44-2.43 3.58-3.72.97-1.1-.64-2.71-1.62-1.61-1.14 1.29-2.38 2.48-3.58 3.71-1.02 1.06.6 2.67 1.61 1.62" fill="#1E3255"/><path d="M264.53 37.85c6.72.13 13.43.33 20.15.34 1.76 0 1.76-2.73 0-2.73-6.72-.01-13.43-.21-20.15-.34-1.76-.03-1.76 2.7 0 2.73M255.77 38.06c1-.1 1.78-.85 1.45-1.92v.69l-.62.82.05-.04-.7.19.12-.01c.73-.08 1.36-.57 1.36-1.37 0-.68-.62-1.44-1.36-1.37-1 .1-1.78.85-1.46 1.92v-.73.05c.2-.28.42-.55.63-.82-.02 0-.04.02-.05.03l.69-.19-.11.02c-.74.07-1.37.57-1.37 1.36 0 .68.63 1.45 1.37 1.37" fill="#FFF"/></g></svg>