<svg width="570" height="320" xmlns="http://www.w3.org/2000/svg" xmlns:xlink="http://www.w3.org/1999/xlink"><defs><path id="a" d="M.58.01H150.8v111.57H.58z"/><path id="c" d="M.5.19h12.2v48.4H.5z"/></defs><g fill="none" fill-rule="evenodd"><path d="M128.12 164.73c-.3-1.77-.77-3.75-1.88-5.2-1.76-2.3-5.02-2.24-7.06-.3-2.74 2.6-2.7 7.44-2.75 10.91-.02 1.3 1.32 1.72 2.22 1.28.12.02.23.05.37.04 2.33-.21 8.2 2.17 9.27-1.3.5-1.62.1-3.8-.17-5.43" fill="#A3B6D9"/><path d="M174.95 164.6l-8.9-.14c-.66-.01-1.2.56-1.2 1.2-.03 5.34-.05 10.68-.05 16.02 0 1.55 2.41 1.55 2.41 0 0-4.93.02-9.86.04-14.79l6.49.1-.05 14.48c0 1.55 2.41 1.56 2.42 0l.05-15.67c0-.66-.55-1.2-1.2-1.2M108.05 152.86c-.08 5.87-.1 11.74-.14 17.6 0 1.56 2.4 1.57 2.42 0 .05-5.86.05-11.73.13-17.6.03-1.55-2.4-1.55-2.41 0M135.38 152.86c-.08 5.87-.09 11.74-.13 17.6-.01 1.56 2.4 1.57 2.41 0 .05-5.86.06-11.73.14-17.6.02-1.55-2.4-1.55-2.42 0M190.96 137.29H176.6c.06-15.08-.05-30.16-.27-45.23-.04-3.08-.07-6.16-.2-9.24-.07-1.54-2.49-1.55-2.42 0 .66 15.45.43 30.98.47 46.43 0 3.09.02 6.17 0 9.24 0 .66.56 1.21 1.21 1.21h14.36v39.9c0 1.56 2.41 1.56 2.41 0V138.5c0-.65-.55-1.2-1.2-1.2M151.55 183.72c-.05-11.67-.01-30.94.02-42.6l.17-46.58c.01-3.87.07-7.75.02-11.62-.02-1.55-2.44-1.55-2.42 0 .14 9.86-.05 19.74-.09 29.6-.06 16.65-.13 33.3-.14 49.96v20.77c.79 1.69 1.6-1.2 2.44.47M92.03 139.62c.2 14.92-.32 29.86-.19 44.78.02 1.56 2.43 1.56 2.42 0-.13-14.92.38-29.86.18-44.78-.02-1.55-2.43-1.56-2.41 0M82.73 132.5c.17 12.53-.2 25.08-.23 37.62 0 4.86 0 9.73.05 14.6.01 1.55 2.43 1.55 2.41 0-.13-15.48.05-30.96.17-46.44.02-1.93.05-3.86.02-5.79-.02-1.55-2.44-1.55-2.42 0" fill="#CEDBF2 "/><path d="M150.2 83.69c8.2-.08 16.41-.08 24.63-.16 1.55-.02 1.55-2.43 0-2.42-8.22.08-16.43.08-24.64.16-1.55.01-1.56 2.43 0 2.42" fill="#CEDBF2 "/><path d="M151.03 81.89c-2.74-2.34-5.76-4.32-8.52-6.63-1.19-1-2.9.71-1.71 1.7 2.76 2.32 5.78 4.3 8.52 6.64 1.18 1 2.9-.7 1.71-1.71" fill="#CEDBF2 "/><path d="M141.34 77.01c5.69 0 11.37-.12 17.05-.2 2.7-.03 5.4-.06 8.1-.06.89 0 1.55.04 2.26.63.62.51 1.16 1.16 1.72 1.74a88.9 88.9 0 013.55 3.82c1.02 1.18 2.72-.53 1.7-1.7a91.05 91.05 0 00-3.72-4.01c-1.16-1.19-2.23-2.62-3.97-2.85-2.7-.35-5.64-.03-8.35 0-6.11.08-12.22.22-18.34.22-1.55 0-1.55 2.41 0 2.41" fill="#CEDBF2 "/><path d="M140.11 76.15c-.71 9.37-.4 18.84-.49 28.23-.01 1.55 2.4 1.55 2.42 0 .09-9.39-.23-18.86.49-28.23.12-1.55-2.3-1.54-2.42 0M125.1 112.8c8.2-.07 16.42-.07 24.63-.15 1.55-.01 1.56-2.43 0-2.42-8.21.08-16.42.08-24.63.16-1.56.02-1.56 2.43 0 2.42" fill="#CEDBF2 "/><path d="M125.94 111c-2.75-2.32-5.76-4.31-8.53-6.62-1.18-.99-2.9.71-1.7 1.71 2.76 2.3 5.77 4.3 8.52 6.63 1.18 1 2.9-.7 1.7-1.71" fill="#CEDBF2 "/><path d="M116.25 106.13c7.76.01 15.52-.25 23.28-.26h1.04c-.07 0-.46-.2-.13-.07.28.13.55.34.82.5l3.08 1.86 5.11 3.09c1.34.8 2.55-1.28 1.22-2.09l-5.11-3.08c-1.7-1.03-3.47-2.62-5.5-2.62-7.94-.02-15.87.27-23.81.26-1.56 0-1.56 2.41 0 2.41M92.88 140.38c8.2-.08 16.42-.08 24.63-.16 1.55-.01 1.56-2.43 0-2.41-8.21.08-16.42.07-24.63.16-1.56 0-1.56 2.43 0 2.41" fill="#CEDBF2 "/><path d="M93.72 138.27c-2.75-2.33-5.76-4.32-8.53-6.62-1.18-1-2.9.7-1.7 1.7 2.76 2.31 5.77 4.3 8.52 6.63 1.18 1 2.9-.7 1.7-1.7" fill="#CEDBF2 "/><path d="M84.03 133.4c8.21 0 16.43-.3 24.64-.26 1.56 0 1.56-2.4 0-2.42-8.21-.04-16.43.27-24.64.26-1.56 0-1.56 2.42 0 2.42" fill="#CEDBF2 "/><path d="M115.06 104.96c-1.82 8.97-4.46 17.79-6.69 26.67-.1.4-.01.9.31 1.17l8.37 7.13c.66.56 1.78.4 2.02-.53 2.3-9.2 5.11-18.3 7-27.6.3-1.52-2.02-2.17-2.33-.65-1.89 9.3-4.7 18.4-7 27.6l2.02-.53-8.37-7.13.31 1.18c2.23-8.88 4.87-17.7 6.7-26.67.3-1.52-2.03-2.17-2.34-.64M175.78 132.74h8.58l-.85-.35 6.6 6.55c1.1 1.1 2.8-.6 1.7-1.7l-3.3-3.28c-1.06-1.06-2.1-2.37-3.29-3.28-1.06-.8-3.3-.35-4.54-.35h-4.9c-1.56 0-1.56 2.41 0 2.41" fill="#CEDBF2 "/><path d="M155.07 88.27l.01 6.9c2.9 0 12 .25 14.9.12.18 0 .38-.03.49-.17.06-.09.09-.2.08-.3-.04-2.58-.04-3.51-.04-6.3-2.98-.11-15.44-.25-15.44-.25M155.07 100.35l.01 6.9c2.9 0 12 .25 14.9.12.18 0 .38-.02.49-.17.06-.08.09-.2.08-.3-.04-2.58-.04-3.51-.04-6.3-2.98-.1-15.44-.25-15.44-.25M155.07 113.36l.01 6.9c2.9 0 12 .25 14.9.13.18-.01.38-.03.49-.18.06-.08.09-.2.08-.3-.04-2.58-.04-3.5-.04-6.3-2.98-.1-15.44-.25-15.44-.25M155.07 126.07l.01 6.9c2.9 0 12 .24 14.9.12.18-.01.38-.03.49-.17.06-.09.09-.2.08-.31-.04-2.58-.04-3.5-.04-6.3-2.98-.1-15.44-.24-15.44-.24" fill="#444"/><path d="M131.68 140.9c.02-1.87.03-3.76.02-5.64.09.02.17.05.27.05l8.11-.12-.06 5.65c-2.77.11-5.56.1-8.34.07m-.03-14.15c.12.04.25.08.4.08l8.12-.12-.06 6.05-8.14.12c-.1 0-.19.04-.28.06l-.04-6.19m8.54-2.46l-8.14.12c-.16 0-.29.05-.42.1v-5.81l8.62-.05-.06 5.64m1.28-8.06l-11.05.06c-.33 0-.58.12-.77.3l-.07.05-.07.1c-.17.18-.3.43-.3.75-.06 8.2.16 16.4.05 24.6-.01.66.56 1.2 1.2 1.2 3.59.05 7.18.1 10.76-.09.66-.04 1.2-.53 1.21-1.2l.25-24.56c.01-.65-.56-1.21-1.2-1.2M147.39 151.46c.19-.4.48-.7.8-.98H93.4c-1.55 0-1.56 2.42 0 2.42h53.38c.19-.48.38-.97.62-1.44" fill="#CEDBF2 "/><path d="M140.57 151.46l.62 1.44h8.53c1.56 0 1.56-2.42 0-2.42h-9.85c.28.27.53.58.7.98M150.42 170.3H93.4c-1.55 0-1.56 2.43 0 2.43H151c-.23-.81-.42-1.62-.57-2.42M213.14 181.86c.2-.24.44-.45.66-.67l-88.76.46c.45.77.92 1.52 1.39 2.27l85.8-.44a4.5 4.5 0 01.9-1.62" fill="#CEDBF2 "/><path d="M130.37 181.65l-31.45.22a1.14 1.14 0 10.01 2.27l33.02-.23c-.54-.74-1.07-1.5-1.58-2.26" fill="#CEDBF2 "/><g transform="translate(336.1 69.43)"><mask id="b" fill="#fff"><use xlink:href="#a"/></mask><path d="M141.21 108.33l-13.54.29.05-13.14c0-.67-.56-1.21-1.22-1.22l-8.98-.14c-.66 0-1.22.57-1.22 1.22-.02 4.5-.04 9-.04 13.49-4.62.07-9.23.14-13.85.18-.11-13.87-.04-27.75 0-41.63l.17-46.96c.02-3.65.07-7.3.03-10.95l15.6-.14c.5 12.2.5 24.46.45 36.67 0 .15.02.29.07.41.01.6.4 1.17 1.17 1.16 7.17-.16 14.34.18 21.5.2.2 15.17-.21 30.37-.23 45.55 0 5 0 10 .04 15.01m-15.98.34l-3.7.07-2.83.05.03-12.21 6.54.1c0 4-.03 8-.04 11.99M101.14 7.07c-1.77-1.46-3.6-2.85-5.33-4.35 3.98-.04 7.96-.17 11.94-.22 1.2-.01 2.41-.1 3.6-.02 1.38.09 1.92.73 2.85 1.67.9.9 1.78 1.82 2.65 2.75l-15.52.14-.19.02m-1.06 30.44l-7.27-9.35c.05-8.15-.15-16.37.37-24.51 2.22 2.03 4.67 3.82 6.97 5.75l.02.01c.12 9.36-.04 18.74-.09 28.1M100 60.92l-5.24.01a1.39 1.39 0 00-.73 0c-10.94 0-21.88-.09-32.82-.33 0-2.17 0-4.34-.02-6.51.1-.06.19-.14.28-.24 4.72-5.67 10.23-10.63 15.05-16.21 3.78 4.57 7.19 9.44 11.05 13.96.42.49 1.3.45 1.72 0 3.64-3.87 7.23-7.78 10.78-11.72L100 60.92m-.05 17.7l-4.43.08c.18-5.11.22-10.22.14-15.33l4.33-.02-.04 15.28M69.4 63.19c7.94.12 15.87.18 23.81.18.08 5.12.04 10.23-.14 15.35-7.93.08-15.87.05-23.8.06.18-5.2.22-10.4.13-15.59m-8.2 15.62V63.04l5.76.11c.1 5.21.05 10.42-.13 15.63-1.88 0-3.76.01-5.63.03m25.93 30.31v-.04c0-2.6.3-5.43-.04-8-.3-2.27-2.88-2-4.64-1.97-1.53.02-4.35-.17-4.87 1.77-.3 1.11-.15 2.47-.17 3.6-.03 1.37-.03 2.74-.01 4.12 0 .2.05.38.12.54-5.42 0-10.85-.02-16.28-.05-.06-9.28-.06-18.57-.05-27.85 12.92-.09 25.83.07 38.75-.18l-.02 7.88c0 6.7 0 13.4.05 20.1-4.29.04-8.56.06-12.84.08m-2.45-6.54v1.18l.01 5.32.01.05h-4.98c.07-.15.12-.33.11-.53-.02-1.67-.01-3.33.03-5 .02-.48.07-.98.05-1.46 0-.25.08-.43.06-.48.62-.23 2-.1 2.48-.12.42 0 1.9-.18 2.14-.04.12-.18.15-.12.08.2v.88M61.08 41.25c3.08-3.64 6.47-6.98 9.58-10.6l4.29 5.1c-4.37 5.1-9.33 9.66-13.77 14.7a642.6 642.6 0 00-.1-9.2m30.31-11l6.53 8.39a752.81 752.81 0 01-9.44 10.26c-2.44-2.94-4.73-6-7.07-9.03 3.42-3.12 6.65-6.41 9.98-9.62m29.73 7.81c4.98-.04 9.95-.27 14.92-.28 1.51 2.46 2.84 5.03 4.26 7.55-6.4-.05-12.8-.3-19.2-.21.02-2.35.02-4.7.02-7.06M27.06 69.2c.12-9.24.14-18.5.25-27.74 10.44-.03 20.9-.4 31.32-.14.19 9.26.23 18.52.22 27.78-10.6-.06-21.2.1-31.8.1m31.77 39.88l-4.88-.04.05-15.75c0-.67-.56-1.2-1.22-1.22l-8.98-.13a1.23 1.23 0 00-1.22 1.21c-.02 5.26-.04 10.52-.04 15.78-3.37-.03-6.73-.07-10.1-.12-2.14-.02-10.8 0-18.47.07l-.01-24.22 12.5-12.99c.02 0 .04-.02.05-.03 10.78 0 21.57-.17 32.34-.1 0 8.69-.06 17.38-.05 26.07 0 3.83 0 7.65.03 11.47m-7.32-.06c-2.18-.02-4.36-.03-6.53-.06 0-4.86.01-9.71.04-14.57l6.54.1-.05 14.53M3.64 73.19c.98-1.03 1.97-2.06 2.94-3.1 3.3 2.81 6.4 5.82 9.66 8.68l-3.17 3.3a215.75 215.75 0 01-9.43-8.88m6.64-7.04c3.36 2.78 6.47 5.84 9.9 8.52l-2.25 2.34c-3.26-2.86-6.37-5.87-9.67-8.68l2.02-2.18m3.13-3.43c3.57 2.6 6.91 5.5 10.52 8.06l-2.06 2.14c-3.47-2.66-6.57-5.77-9.95-8.55l1.49-1.65m1.72-27.96c3.26 1.97 6.46 4.04 9.76 5.93-.13 9.2-.15 18.41-.26 27.62-3.43-2.49-6.64-5.26-10.07-7.75.13-8.6.43-17.2.57-25.8m32.54-1.22c2.91 1.72 5.76 3.55 8.65 5.3-9.75-.17-19.51.16-29.26.18a1.23 1.23 0 00-.86-.38c-2.79-1.6-5.5-3.32-8.23-5 9.9-.08 19.81-.4 29.7-.1m103.12 75.61a1.2 1.2 0 00-1.23-1.12c-3.49.08-2.42.16-5.91.24-.15-17.95.05-35.9.17-53.85.02-2.33.05-4.65.02-6.97 0-.28-.08-.5-.2-.68.04-.26.01-.54-.17-.83-.9-1.5-1.72-3.04-2.58-4.57-.97-1.75-1.85-3.73-3.07-5.33-.75-.98-1.94-.7-3.07-.7-1.58.02-3.16.06-4.73.1-2.97.07-5.94.16-8.9.19-.02-9.01-.12-18.03-.5-27.02-.01-.2-.06-.37-.13-.52A1.2 1.2 0 00120.2 7c-1.47-1.7-3.05-3.32-4.63-4.93-.7-.7-1.37-1.5-2.34-1.81-1.14-.38-2.5-.22-3.68-.2-5.6.02-11.2.25-16.81.25l-.12.01c-.38.02-.66.2-.84.45-.47.13-.88.5-.93 1.11-.66 8.62-.44 17.33-.49 25.97-3.51 3.34-6.9 6.82-10.48 10.1a78.32 78.32 0 00-5.32-6.18l-3.05-3.84c-.4-.48-1.33-.49-1.72-.01-3.01 3.62-6.36 6.92-9.46 10.45-3.97-2.27-7.79-4.8-11.73-7.1-.27-.17-.54-.2-.79-.16-11.17-.34-22.38.1-33.55.1-.35 0-.61.13-.8.31-.45.22-.74.73-.72 1.23l-.02.19c-.13 9.17-.46 18.33-.6 27.5l-.04.11c-.94 1.06-1.9 2.1-2.85 3.14-.72.67-8.53 8.92-8.4 9.59-.16.19-.26.43-.26.75v30.5c.4-.12.8-.2 1.21-.18.37-.28.79-.5 1.23-.65V76a193.8 193.8 0 008.5 7.94v.09l.1 24.87c-4.45.04-8.28.09-9.83.14.16.82.35 1.45.48 2.28 3.35-.07 24.39-.15 26.82-.11a2584.9 2584.9 0 0096.78-.13c.37.17.83.16 1.2-.03 8.44-.16 12.33-.35 20.78-.54l1.77-.03a1.2 1.2 0 001.18-1.3v-.03" fill="#CEDBF2 " mask="url(#b)"/></g><path d="M450.88 144.67l.03-6.67a.5.5 0 00-.5-.5h-6.83a.5.5 0 00-.5.5l-.02 6.67c0 .27.22.5.5.5h6.82a.5.5 0 00.5-.5M450.88 155.1l.03-6.66a.5.5 0 00-.5-.5h-6.83a.5.5 0 00-.5.5l-.02 6.66c0 .27.22.5.5.5h6.82a.5.5 0 00.5-.5M462.13 144.67l.02-6.67a.5.5 0 00-.5-.5h-6.82a.5.5 0 00-.5.5l-.02 6.67c0 .27.22.5.5.5h6.82a.5.5 0 00.5-.5M462.13 155.1l.02-6.66a.5.5 0 00-.5-.5h-6.82a.5.5 0 00-.5.5l-.02 6.66c0 .27.22.5.5.5h6.82a.5.5 0 00.5-.5M473.06 144.67l.03-6.67a.5.5 0 00-.5-.5h-6.83a.5.5 0 00-.49.5l-.03 6.67c0 .27.23.5.5.5h6.83a.5.5 0 00.5-.5M450.88 133.68l.03-6.66a.5.5 0 00-.5-.5h-6.83a.5.5 0 00-.5.5l-.02 6.66c0 .27.22.5.5.5h6.82a.5.5 0 00.5-.5M462.13 133.68l.02-6.66a.5.5 0 00-.5-.5h-6.82a.5.5 0 00-.5.5l-.02 6.66c0 .27.22.5.5.5h6.82a.5.5 0 00.5-.5M473.06 133.68l.03-6.66a.5.5 0 00-.5-.5h-6.83a.5.5 0 00-.49.5l-.03 6.66c0 .27.23.5.5.5h6.83a.5.5 0 00.5-.5M473.06 155.1l.03-6.66a.5.5 0 00-.5-.5h-6.83a.5.5 0 00-.49.5l-.03 6.66c0 .27.23.5.5.5h6.83a.5.5 0 00.5-.5M408.7 126.42c.1-1.9-.12-5.42 1.4-7.08.45-.5 1.11-.99 2.01-1.07a3.6 3.6 0 012.28.52 4 4 0 011.08 1.37c.82 1.5.67 4.67.54 6.26h-7.31zM369.65 127.96l7.81.03c.25 0 .44-.2.44-.43v-7.59c0-.24-.2-.43-.43-.43l-7.81-.03c-.25 0-.44.2-.44.44v7.58c0 .24.2.43.43.43M381.14 127.96l7.81.03c.24 0 .44-.2.44-.43v-7.59c0-.24-.2-.43-.44-.43l-7.8-.03c-.25 0-.45.2-.45.44v7.58c0 .24.2.43.44.43" fill="#444"/><path d="M372.1 158.65l.04-6.53a.52.52 0 00-.52-.52H358.9a.52.52 0 00-.52.51l-.04 6.53c0 .29.23.52.52.52h12.72c.28 0 .51-.23.52-.51M372.1 168.96l.04-6.53a.52.52 0 00-.52-.52H358.9a.52.52 0 00-.52.51l-.04 6.53c0 .29.23.52.52.52h12.72c.28 0 .51-.23.52-.51M165.2 151.18l-7.76-.03a.75.75 0 00-.75.76v8.06c0 .41.33.75.75.75l7.75.03c.42 0 .76-.34.76-.75v-8.06a.75.75 0 00-.75-.76M183.39 151.18l-7.76-.03a.75.75 0 00-.75.76v8.06c0 .41.33.75.75.75l7.75.03c.42 0 .76-.34.76-.75v-8.06a.75.75 0 00-.75-.76" fill="#A3B6D9"/><path d="M328.14 150.8c15.84 40.92 18.37 85.17 20.54 128.54.12 2.33 3.76 2.35 3.64 0-2.18-43.67-4.72-88.3-20.67-129.5-.83-2.17-4.36-1.23-3.51.97" fill="#1E3255"/><g transform="translate(229.8 242.54)"><mask id="d" fill="#fff"><use xlink:href="#c"/></mask><path d="M1.67 1.5c-3.3 16.08.78 31.58 7.7 46.16 1 2.11 4.14.27 3.14-1.84C6.04 32.17 2.08 17.56 5.19 2.47 5.66.17 2.15-.8 1.67 1.5" fill="#1E3255" mask="url(#d)"/></g><path d="M199.28 156.51c-3.89-8.7-5.8-19.16 1.72-26.56 1.68-1.65-.9-4.23-2.57-2.58-8.75 8.6-6.87 20.73-2.3 30.98.96 2.14 4.1.29 3.15-1.84" fill="#1E3255"/><path d="M224.57 27.76a16.63 16.63 0 00-10.43 6.1 22.23 22.23 0 00-4.81 11.56l-1.38 13.43c-4.42 37.42-14.39 138.43-15.34 156.98-.33 6.63-.95 14.36 3.23 20.03 3.96 5.37 10.42 7.43 16.82 7.84.3.01 42.09 4.69 61.65 5.68 2.34.12 2.46-20.55.13-20.67l-63.3-6.4 9.85-116.07 5.77-57.93 95.29 10.38-9.13 97.57 12.61 48.1 12.61-124.84s2.54-17.55 1.5-29.08a11.96 11.96 0 00-3.4-7.4c-2.42-2.5-6.61-4.39-10.06-4.87-12.23-1.72-51.96-7.28-79.24-9.55-9.8-.82-18-1.52-22.37-.86" fill="#471180"/><path d="M241.71 132.7l-.23-.02-1.35-.1a2.25 2.25 0 01-2.03-2.46l.46-4.43a.99.99 0 011.96.2l-.46 4.44c-.01.14.1.27.24.29l1.35.1c.15.01.31-.11.33-.24l.47-4.54a.99.99 0 111.96.2l-.47 4.54a2.23 2.23 0 01-2.23 2.01M290.3 138.77l-.23-.01-1.35-.1a2.25 2.25 0 01-2.03-2.46l.47-4.43a.99.99 0 011.96.2l-.46 4.43c-.02.15.09.28.23.3l1.35.09c.16.01.32-.11.33-.24l.47-4.54a.99.99 0 011.97.21l-.48 4.54a2.23 2.23 0 01-2.22 2M267.42 95.9h-.12a.99.99 0 01-.86-1.1c1.1-9.62 2-17.22 2-17.22a.99.99 0 111.96.23s-.9 7.6-2 17.21a.99.99 0 01-.98.88M272.94 96.48l-.12-.01a.99.99 0 01-.87-1.1c1.1-9.6 2-17.21 2-17.21a.99.99 0 111.96.23s-.9 7.6-2 17.21a.99.99 0 01-.97.88" fill="#1E3255"/><path d="M291.56 99.6l-1.96-.23 1.82-14.98c.02-.1.6-3.24-1.18-3.8-.65-.22-2.95-.62-10.21-1.35l-14.68-1.53c-6.64-.73-10.53-1.05-11.59-.95-1.84.19-1.93 3.38-1.93 3.41l-1.33 15.1-1.97-.16 1.33-15.04c.02-1.78.83-4.98 3.7-5.27 1.24-.12 5.04.18 12 .95l14.67 1.53c8.06.81 9.92 1.2 10.61 1.42 2.76.88 2.89 4.18 2.53 6l-1.8 14.9z" fill="#1E3255"/><path d="M296.65 119.1l-4.95-19.8c-.2-.7-1.13-1-1.78-1.07l-39.7-4.35a1.64 1.64 0 00-1.57.87l-9.58 19.94c-.24.5-.77 1.94-.83 2.5-.26 2.3-.52 5.5-.18 7.07.76 3.47 5.58 3.84 5.58 3.84s44.37 5.15 48.58 5.34c4.22.19 4.85-4.01 5.42-9.47.18-1.72-.7-4.17-.99-4.86" fill="#00B69E"/><path d="M293.7 121.01h-.12c-16.94-2-49.63-5.75-52.45-5.75h-.03a.99.99 0 01-.01-1.98h.03c3.65 0 50.69 5.53 52.7 5.76a.99.99 0 01-.12 1.97M290.7 99.07h-.11c-7.27-.85-21.02-2.29-40.89-4.27a.99.99 0 01.2-1.97c19.87 2 33.64 3.43 40.92 4.28a.99.99 0 01-.12 1.96M284.75 133.76h-.12c-.17-.02-18.03-2.12-32.8-3.76a.99.99 0 11.22-1.97c14.78 1.65 32.63 3.75 32.81 3.77a.99.99 0 01-.11 1.96" fill="#1E3255"/><path d="M269.02 91.07c0-1.54-.53-2.92-3.04-3.6-3.33-.9-4.7-.68-8.5-.92-4.28-.15-4.24 5.66-4.16 8.23.14 3.95 6.81 3.76 10.19 4.05 1.64.13 3.44.37 4.27-.99 1.1-1.8 1.23-4.76 1.24-6.77M287.54 93c0-1.53-.52-2.92-3.04-3.6-3.33-.9-4.7-.68-8.5-.91-4.27-.15-4.24 5.66-4.15 8.23.13 3.95 6.8 3.76 10.18 4.04 1.65.14 3.45.38 4.28-.98 1.1-1.8 1.23-4.76 1.23-6.77" fill="#FF00A5"/><path d="M244.5 94.83h-.1a.99.99 0 01-.88-1.09l.72-6.91-10.04-1.05-.72 6.91a.99.99 0 11-1.96-.2l.82-7.9a.98.98 0 011.09-.88l12 1.26a.98.98 0 01.88 1.08l-.83 7.9a.99.99 0 01-.98.88" fill="#1E3255"/><path d="M244.92 90.89h-.1l-12-1.27a.99.99 0 11.2-1.96l12 1.26a.99.99 0 01-.1 1.97M308.28 100.9h-.1a.99.99 0 01-.88-1.08l.72-6.92-10.04-1.05-.72 6.92a.99.99 0 11-1.96-.2l.82-7.9a.98.98 0 011.09-.88l12 1.25a.98.98 0 01.88 1.09l-.83 7.9a.99.99 0 01-.98.88" fill="#1E3255"/><path d="M308.7 96.96h-.1l-12.01-1.26a.99.99 0 11.2-1.96l12 1.25a.99.99 0 01-.1 1.97" fill="#1E3255"/><path d="M243.26 80.51c1.2-1.33 3.47-3.13 1.35-4.62-.77-.55-1.97.1-2.6.6.12-1.13.09-2.5-1.4-2.73-1.65-.26-1.91 1.38-1.96 2.73-.63-.78-1.73-1.75-2.7-1.07-1.53 1.08-.2 3.32.78 4.4 0 0 6.34.9 6.53.7" fill="#FFCE30"/><path d="M243.91 81.54c.15-1-.87-1.33-.87-1.33-.45-.11-5.87-.7-6.34-.7 0 0-1.07-.16-1.14 1.02-.03.36-.04 1.8.1 2.79.03.25.08.52.29.71.2.18.52.25.81.3l2.04.21 1.24.13 2 .2c.29.01.6.01.84-.13.25-.14.35-.4.44-.63.34-.93.54-2.21.6-2.57" fill="#00B69E"/><path d="M306.64 86.21c1.2-1.33 3.46-3.13 1.34-4.62-.77-.55-1.96.1-2.6.6.12-1.13.09-2.5-1.4-2.73-1.65-.26-1.9 1.38-1.96 2.73-.63-.77-1.73-1.75-2.7-1.07-1.53 1.08-.2 3.32.79 4.4 0 0 6.34.9 6.53.7" fill="#FFCE30"/><path d="M307.28 87.24c.15-1-.87-1.33-.87-1.33-.45-.11-5.87-.7-6.34-.69 0 0-1.06-.17-1.14 1-.03.37-.04 1.82.1 2.8.03.25.08.52.3.71.2.18.5.25.8.3l2.04.21 1.24.13 2 .2c.29.01.6.01.85-.13.24-.14.34-.4.43-.63.34-.93.54-2.21.6-2.57" fill="#00B69E"/><path d="M228.28 150.78c16.8 2 33.66 3.37 50.45 5.41 1.74.22 1.73-2.52 0-2.73-16.8-2.04-33.66-3.42-50.45-5.41-1.75-.21-1.73 2.52 0 2.73" fill="#CEDBF2 "/><path d="M271.81 43.74c5.55.78 11.13 1.22 16.68 2 1.72.25 2.46-2.38.72-2.63-5.54-.79-11.13-1.23-16.67-2-1.72-.25-2.46 2.39-.73 2.63M266.47 42.47c.23-.4.27-.92.18-1.26-.21-.77-.95-1.07-1.68-.95-.92.15-1.42 1.3-1.24 1.97.21.77.95 1.07 1.68.95a1.5 1.5 0 001.06-.7z" fill="#FFF"/><path d="M226.42 164.23c16.85 1.87 33.76 3.1 50.6 5.08 1.74.2 1.73-2.54 0-2.74-16.84-1.97-33.75-3.2-50.6-5.07-1.74-.2-1.73 2.54 0 2.73M225.14 178.98c14.32 1.32 28.57 3.2 42.9 4.35 1.75.14 1.75-2.6 0-2.74-14.33-1.15-28.58-3.03-42.9-4.34-1.75-.16-1.74 2.57 0 2.73" fill="#CEDBF2 "/><path d="M289.73 283.73c-12.74-14.74-13.9-34.66-12.58-53.24.68-9.37 1.89-18.69 2.3-28.07.44-9.78-.97-19.46-.73-29.22.24-9.5 3.1-20.85 12.37-25.55 14.52-7.37 21.06 11.76 23.54 21.86 4.86 19.85 8.87 39.87 14.1 59.64.6 2.27 4.12 1.3 3.52-.97a1081.8 1081.8 0 01-9.97-40.75c-2.46-10.98-3.77-23.02-9.16-33.05-3.53-6.56-8.89-12.56-16.93-11.92-8.68.68-15.15 7.75-18.29 15.4-4 9.71-2.73 20.36-2.17 30.57.69 12.7-.81 25.21-1.89 37.85-1.78 20.98-1.15 43.3 13.31 60.03 1.54 1.77 4.1-.81 2.58-2.58" fill="#1E3255"/><path d="M286.27 149.59c1.52 9.41 4.24 22.26 14.06 26.6 7.04 3.12 13.01-.81 17.24-6.42 1.42-1.87-1.75-3.7-3.14-1.84-4.76 6.3-11.43 7.79-17 1.62-5.07-5.6-6.49-13.77-7.65-20.93-.37-2.3-3.89-1.33-3.51.97" fill="#1E3255"/><path d="M401.3 157.95c-.07 2.63-.02 5.27.03 7.9.02 1.47 2.3 1.48 2.27 0-.04-2.63-.1-5.27-.03-7.9.04-1.47-2.24-1.47-2.27 0M411.92 157.95c-.06 2.63 0 5.27.04 7.9.02 1.47 2.3 1.48 2.27 0-.04-2.63-.1-5.27-.03-7.9.04-1.47-2.24-1.47-2.28 0" fill="#CEDBF2 "/><path d="M402.53 159.03c3.5-.12 7.01-.14 10.52-.05 1.46.04 1.46-2.24 0-2.28-3.5-.1-7.01-.06-10.52.05-1.46.05-1.47 2.33 0 2.28M413.05 164.74c-3.5.11-7.01.14-10.52.05-1.46-.04-1.46 2.24 0 2.28 3.5.09 7.01.06 10.52-.05 1.46-.05 1.47-2.33 0-2.28M421.04 157.95c-.07 2.63-.01 5.27.03 7.9.02 1.47 2.3 1.48 2.28 0-.05-2.63-.1-5.27-.04-7.9.04-1.47-2.24-1.47-2.27 0M431.67 157.95c-.07 2.63-.01 5.27.03 7.9.02 1.47 2.3 1.48 2.28 0-.05-2.63-.1-5.27-.04-7.9.04-1.47-2.24-1.47-2.27 0" fill="#CEDBF2 "/><path d="M422.27 159.03c3.5-.12 7.01-.14 10.52-.05 1.47.04 1.46-2.24 0-2.28-3.5-.1-7.01-.06-10.52.05-1.46.05-1.46 2.33 0 2.28M432.79 164.74c-3.5.11-7.01.14-10.52.05-1.46-.04-1.46 2.24 0 2.28 3.5.09 7.01.06 10.52-.05 1.46-.05 1.47-2.33 0-2.28M440.6 83.05c-.05 2.24 0 4.48.04 6.71.03 1.46 2.3 1.47 2.28 0-.04-2.23-.1-4.47-.03-6.7.04-1.47-2.24-1.47-2.28 0M450.57 83.05c-.06 2.24 0 4.48.03 6.71.03 1.46 2.3 1.47 2.28 0-.04-2.23-.1-4.47-.03-6.7.04-1.47-2.24-1.47-2.28 0" fill="#CEDBF2 "/><path d="M441.84 84.15c3.29-.1 6.57-.13 9.86-.05 1.46.04 1.46-2.24 0-2.28-3.29-.07-6.57-.05-9.86.05-1.46.04-1.47 2.32 0 2.28M451.7 88.64c-3.29.1-6.57.12-9.86.04-1.47-.03-1.47 2.25 0 2.28 3.29.08 6.57.06 9.86-.04 1.46-.05 1.47-2.32 0-2.28M440.6 96.16c-.05 2.24 0 4.47.04 6.71.03 1.46 2.3 1.47 2.28 0-.04-2.24-.1-4.47-.03-6.7.04-1.47-2.24-1.47-2.28 0M450.57 96.16c-.06 2.24 0 4.47.03 6.71.03 1.46 2.3 1.47 2.28 0-.04-2.24-.1-4.47-.03-6.7.04-1.47-2.24-1.47-2.28 0" fill="#CEDBF2 "/><path d="M441.84 97.25c3.29-.1 6.57-.12 9.86-.04 1.46.04 1.46-2.24 0-2.28-3.29-.07-6.57-.05-9.86.05-1.46.04-1.47 2.32 0 2.27M451.7 101.75c-3.29.1-6.57.12-9.86.04-1.47-.03-1.47 2.25 0 2.28 3.29.08 6.57.06 9.86-.04 1.46-.05 1.47-2.33 0-2.28M440.6 109.27c-.05 2.24 0 4.47.04 6.7.03 1.47 2.3 1.48 2.28 0-.04-2.23-.1-4.46-.03-6.7.04-1.46-2.24-1.46-2.28 0M450.57 109.27c-.06 2.24 0 4.47.03 6.7.03 1.47 2.3 1.48 2.28 0-.04-2.23-.1-4.46-.03-6.7.04-1.46-2.24-1.46-2.28 0" fill="#CEDBF2 "/><path d="M441.84 110.36c3.29-.1 6.57-.12 9.86-.04 1.46.03 1.46-2.24 0-2.28-3.29-.08-6.57-.05-9.86.05-1.46.04-1.47 2.32 0 2.27M451.7 114.86c-3.29.1-6.57.12-9.86.04-1.47-.03-1.47 2.24 0 2.28 3.29.08 6.57.05 9.86-.05 1.46-.04 1.47-2.32 0-2.27M416.68 148.7c-.03-1.02-.07-2.07.17-3.07.15-.61.43-1.7 1-2.04.8-.45 1.67.57 1.97 1.18.53 1.06.38 2.3.4 3.45.01 1.95 3.05 1.96 3.03 0-.02-2 0-3.95-1.22-5.65a4.6 4.6 0 00-4.34-2.03c-3.66.55-4.13 5.22-4.05 8.16.05 1.95 3.1 1.96 3.04 0" fill="#CEDBF2 "/></g></svg>