<svg width="570" height="320" # xmlns="http://www.w3.org/2000/svg" xmlns:xlink="http://www.w3.org/1999/xlink"><defs><path id="a" d="M.8.38h145.55v3.94H.8z"/><path id="c" d="M0 .04h52.74V10.6H0z"/><path id="e" d="M.04.09h76.84v71.3H.04z"/><path d="M314.2 89.76a8.93 8.93 0 011.72-1.31c1.9-.98 4.37-.53 5.22 1.17a8.1 8.1 0 01-5.14 11.63c-.8 7.57 0 13.51-.19 21.06l-33.55.01c.21-3.23 1.03-5.4-.06-8.64-2.43-1.89-4.86-3.78-6.22-6.75-3.24-7.03-2.16-14.6-2-22.03 0 0-.38-6.76 1.4-9.87 0 0 10.94-9.76 22.84-5.16 1.5.58 2.85 1.17 4.1 1.76a21.41 21.41 0 0112.15 18.13h-.27z" id="g"/><path d="M208.56 167.98c-7.5-8.3-14.38-18.6-26.78-18.38-2.87.05-6.6.46-8.04 3.33-1.2 2.42.67 4.13 2.55 4.82 1.22.45 5.2.6 8.7 1.47a5 5 0 013.77 4.17c.52 3.5-2.9 3.38-5.48 3.14-2.67-.26-5.69-1.91-6.54 1.48-.6 2.38.92 4.4 2.86 5.47 3.51 1.95 6.22 1.3 10.45 5.03a63.53 63.53 0 016.7 7.17l11.81-17.7z" id="h"/><path d="M183.08 164.78c.43-.34.87-.67 1.35-.94.07-.04.73-.38.34-.2-.42.2.56-.2.55-.2.25-.08 1.46-.31.74-.23.61-.07 2.21-.6 3.55.09 1.9.96 2.36-2.31 2.2-4.42a4.2 4.2 0 00-4.2-3.99c-3.08-.13-6.35.9-8.78 2.85-1.66 1.34-2.66 3.68-1.34 5.68 1.1 1.67 3.8 2.8 5.59 1.36" id="i"/><path d="M182.72 167.1c-3.54-3.04-7.97-1.62-8.44 1.91-.25 1.84.65 4.1 4.43 5.29 1.96.61 3.08 1.13 5.21 1.7l-1.2-8.9z" id="j"/></defs><g fill="none" fill-rule="evenodd"><path d="M82 34.28c-.49 46.21-.87 92.43-1.36 138.64-.02 2.03 3.02 2.03 3.04 0 .49-46.21.87-92.43 1.36-138.64.02-2.03-3.02-2.03-3.04 0" fill="#CEDBF2 "/><path d="M224.32 101.67c-47.1-.51-94.19-.17-141.28.01-2.03.01-2.03 3.25 0 3.24 47.1-.18 94.19-.53 141.28-.01 2.03.02 2.03-3.22 0-3.24" fill="#CEDBF2 "/><path d="M126.45 122.87a6.6 6.6 0 012.5-.35c.31-29.41.62-58.82.97-88.23.02-2.04-3.4-2.04-3.42 0-.35 29.7-.66 59.4-.98 89.11.26-.23.58-.41.93-.53" fill="#CEDBF2 "/><path d="M127.42 166.02c-.54.96-1.72 1.16-2.7.83l-.08 6.13c-.02 1.95 3.41 1.95 3.43 0l.09-7.34c-.2.19-.46.32-.74.38" fill="#CEDBF2 "/><path d="M182.32 34.28c-.48 46.21-.87 92.43-1.36 138.64-.02 2.03 3.02 2.03 3.04 0 .48-46.21.87-92.43 1.36-138.64.02-2.03-3.02-2.03-3.04 0" fill="#CEDBF2 "/><path d="M129.5 175.2c27.74-.44 55.5-.13 83.24-.06 2.93.01 10.01-1.38 12.65.08 1.01.56 2.2 4.27 1.18 5.37-1.03 1.14-1.13.4-2.08.67-1.56.47-3.83.06-5.46.07-15.6.13-31.21.11-46.82.1-14.46 0-28.95.23-43.4-.2-2.04-.06-2.04 3.2 0 3.26 30.5.9 61.13.4 91.64.1 3.31-.04 8.14.88 9.23-3.17 2.04-7.6-1.7-9.45-7.43-9.5-15.7-.12-31.38-.07-47.08-.07-15.21 0-30.45-.16-45.66.08-2.03.03-2.04 3.3 0 3.26" fill="#CEDBF2 "/><path d="M224.56 33.4c-.49 46.21-.87 92.43-1.36 138.64-.02 2.03 3.02 2.03 3.04 0 .49-46.21.87-92.43 1.36-138.64.02-2.03-3.02-2.03-3.04 0" fill="#CEDBF2 "/><g transform="translate(80.64 31)"><mask id="b" fill="#fff"><use xlink:href="#a"/></mask><path d="M144.83.85C97.33.3 49.83.93 2.33.38.3.36.3 3.82 2.33 3.85c47.5.55 95-.08 142.5.47 2.03.02 2.03-3.44 0-3.47" fill="#CEDBF2 " mask="url(#b)"/></g><g transform="translate(78 170.92)"><mask id="d" fill="#fff"><use xlink:href="#c"/></mask><path d="M51.23.68L13.29.55c-3.03 0-9.69-1.6-12.16.89-1.74 1.74-.98 5.3-.9 7.57.08 2.1 3.22 2.1 3.14 0-.04-1.25-.43-4.28.6-5.22.56-.5 6.2.03 6.97.03L24 3.86l27.22.1c2.02 0 2.02-3.28 0-3.28" fill="#CEDBF2 " mask="url(#d)"/></g><path d="M128.39 180.46l-27.05.08-12.88.04c-.99 0-5.7.74-6.44.02-1.02-1-.66-3.46-.62-4.65.09-2.01-3.1-2.01-3.17 0-.09 2.1-.82 5.32.9 6.93 2.32 2.17 7.88.83 10.61.82l38.65-.12c2.04 0 2.04-3.13 0-3.12M207.68 143.87c.61.86 2.02.87 2.77 0 .07-.07.12-.15.17-.23a1.8 1.8 0 00-.04-1.92c-.32-.48-.86-.82-1.12-1.33-.24-.5-.2-1.09-.25-1.65-.09-.8-.45-1.62-1.21-1.97-.55-.25-1.3-.2-1.92-.02-.33.09-.65.24-.94.4-.7.41-1.27 1.31-1.3 2.1-.03.8.57 1.45.69 1.58.38.4.94.62 1.41.93.64.4 1.14.97 1.44 1.64.05.11.17.3.3.47M212.42 147c-1.07-.07-1.82-1.21-1.44-2.28a1.95 1.95 0 011.83-1.23c.6.02 1.17.29 1.76.23.57-.06 1.07-.4 1.59-.64.75-.35 1.66-.48 2.37-.04.5.32.85.96 1.02 1.56.1.32.13.65.13.98 0 .79-.49 1.72-1.17 2.15-.7.44-1.58.3-1.76.26-.55-.1-1.04-.44-1.55-.68a4.06 4.06 0 00-2.2-.32c-.13.02-.35.01-.58 0M195.3 145.14c1.06-.08 1.79-1.24 1.39-2.3a1.95 1.95 0 00-1.86-1.2c-.6.03-1.17.31-1.76.26-.56-.04-1.07-.38-1.6-.6-.76-.34-1.67-.45-2.37 0-.5.33-.83.98-.99 1.58-.09.32-.11.65-.11.99 0 .78.53 1.7 1.22 2.12.7.43 1.58.26 1.76.23.55-.11 1.03-.47 1.54-.7a4.06 4.06 0 012.2-.37c.12.01.34 0 .57-.01M200.05 142.1c-.6.85-2.02.9-2.8.05a1.78 1.78 0 01-.18-2.14c.32-.5.86-.84 1.11-1.36.24-.5.18-1.08.23-1.64.06-.8.42-1.62 1.18-1.98.55-.27 1.3-.22 1.93-.06.34.08.66.22.97.39.71.39 1.3 1.27 1.35 2.06.04.8-.54 1.45-.66 1.58-.38.41-.94.64-1.41.95a3.8 3.8 0 00-1.42 1.66c-.05.12-.17.3-.3.48" fill="#CEDBF2 "/><path d="M209.76 157.1c.6-7.04 1.97-12.34 6.86-17.78 1.37-1.52-.94-3.73-2.3-2.2-5.5 6.1-7.16 12.08-7.83 19.99-.17 2 3.1 1.98 3.27 0" fill="#CEDBF2 "/><path d="M213.28 138.05c.03-.28.1-.55.24-.8-.19-.08-.37-.22-.49-.38a1.69 1.69 0 01.13-2.3l.06-.05.1-.09c-.07-.26-.1-.54-.05-.79.09-.4.3-.81.64-1.04.33-.23.75-.37 1.15-.27l.25.08a1.5 1.5 0 011.54-1.08c.39.04.8.2 1.05.54.15.2.27.4.36.64.18-.06.36-.1.55-.07.4.04.78.21 1.06.54l.05.06c.26.31.4.76.38 1.18 0 .13-.04.28-.08.42 1.03.3 1.76 1.8.7 2.8-.15.14-.32.24-.48.3.32.6.32 1.37-.3 1.96-.63.58-1.36.48-1.87.07-.07.29-.22.57-.48.82-.99.92-2.22.15-2.5-.87a1.35 1.35 0 01-.57.05c-.4-.03-.8-.23-1.06-.55-.25-.3-.42-.77-.38-1.17" fill="#A3B6D9"/><path d="M202.95 157.1c-.67-7.9-2.34-13.88-7.82-19.99-1.37-1.52-3.68.69-2.31 2.2 4.89 5.45 6.26 10.75 6.86 17.8.17 1.98 3.44 2 3.27 0" fill="#CEDBF2 "/><path d="M196.16 138.05c-.02-.28-.1-.55-.24-.8.19-.08.37-.22.49-.38a1.7 1.7 0 00-.3-2.44 1.65 1.65 0 00-.58-1.84 1.47 1.47 0 00-1.15-.26l-.25.08a1.54 1.54 0 00-.42-.68 1.5 1.5 0 00-1.12-.4c-.39.04-.8.2-1.05.54-.15.2-.27.4-.36.64-.17-.06-.36-.1-.55-.07a1.57 1.57 0 00-1.1.6c-.27.31-.41.76-.4 1.18.02.13.05.28.1.42-1.04.3-1.77 1.8-.71 2.8.15.14.32.24.48.3-.32.6-.32 1.37.3 1.96.63.58 1.35.48 1.87.07.07.29.22.57.48.82.99.92 2.22.15 2.5-.87a1.35 1.35 0 00.57.05c.4-.03.8-.23 1.06-.55.25-.3.42-.77.38-1.17M195.43 156.63a261.05 261.05 0 001.37 11c.15 1.02.03 2.44.95 3.3.96.9 2.96.83 4.5.85 1.79.03 3.58.03 5.38 0 1.35 0 3.12.08 4.28-.43 1.54-.67 1.39-2.2 1.56-3.26.38-2.45.7-4.9.98-7.36.27-2.26.51-4.52.7-6.78.06-.68.14-1.36.13-2.04-.02-1.14-1.2-1.93-2.94-2.09l-.32-.02h-.2c-3.04.02-6.09 0-9.13 0h-4.22c-1.91.01-3.36.72-3.42 1.96-.07 1.61.22 3.26.38 4.87" fill="#A3B6D9"/><path d="M435.52 248.34c5.84-.93 7.72-6.52 8.45-11.72.7-4.96.03-9.9 3-14.16 3.6-5.15 10.27-3.05 15.82-3.41 2.03-.13 2.05-3.3 0-3.17-5.97.38-14.16-1.7-18.53 3.81-4.97 6.27.26 24.02-9.59 25.6-2.02.31-1.16 3.37.85 3.05" fill="#CEDBF2 "/><path d="M490.45 245.28c-9.82-1.56-4.64-19.35-9.6-25.6-4.36-5.5-12.56-3.42-18.52-3.8-2.04-.13-2.04 3.04 0 3.17 4.3.28 10.33-1.24 14.2 1.09 5.07 3.05 3.93 11.6 4.61 16.48.74 5.19 2.62 10.79 8.46 11.72 2 .32 2.87-2.74.85-3.06" fill="#CEDBF2 "/><path d="M460.8 180.36c.1 23.63.22 47.25.33 70.88 0 2.03 3.2 2.03 3.19 0-.1-23.63-.22-47.25-.33-70.88 0-2.03-3.2-2.03-3.19 0M452.39 187.65c-.42-3.95-1.79-7.08-4.85-8.75-.23.1-.48.16-.73.18-1.03.09-2.06.18-3.09.18-.48 0-.91-.16-1.26-.42-.34.8-.1 1.8 1.01 2 9.95 1.76 5.84 28.76 5.41 36.08-.12 2.03 3.07 2.02 3.2 0 .55-9.6 1.32-19.67.3-29.27M480.03 178.94l-1.6.28a2.18 2.18 0 01-2.5-1.26c-3.71 1.63-5.38 5.18-5.84 9.5-1 9.65-.24 19.79.32 29.46.12 2.02 3.31 2.04 3.2 0a320.1 320.1 0 01-.59-18.19c0-5.84-1.75-16.93 6-18.43a1.32 1.32 0 001.14-1.4l-.13.04" fill="#CEDBF2 "/><path d="M476.74 177.76c-5.37.41-10.3.65-15.67.56-4.43-.02-9.45.01-13.88-.18-2.02-.1-4.99-.04-6.84-.88-7.71-3.47 5.96-4.51 7.56-4.62 8.84-.59 18.38-.8 27.23-.44 2.22.09 7.25.27 8.52 1.35 4.55 3.88-4.57 4.03-6.92 4.21m11.08-4.73c-2.67-3.58-9.3-3.12-13.27-3.4-8.53-.62-17.16-.6-25.7-.1-3.88.21-11-.02-13.64 3.49-2.08 2.75.18 5.57 2.97 6.78 6.18 2.7 15.79 1.34 22.44 1.36 3.4.05 34.64 1.84 27.2-8.13M471.01 147.4c.71-7.43 2.45-12.47 7.8-17.77 1.45-1.44-.79-3.69-2.24-2.25-2.57 2.54-4.99 5.23-6.44 8.6-1.56 3.59-1.91 7.56-2.28 11.42-.2 2.03 2.97 2.02 3.16 0" fill="#CEDBF2 "/><path d="M475.65 128.1c.03-.3.12-.6.3-.86a1.75 1.75 0 01-1.05-1.7c.04-.47.23-.9.6-1.23l.07-.06.14-.1a1.6 1.6 0 01-.07-.86c.1-.44.35-.89.76-1.14a1.9 1.9 0 011.68-.2c.1-.29.28-.56.51-.74a1.9 1.9 0 012.6.15c.18.21.33.45.43.7.21-.07.43-.1.66-.08.49.05.94.23 1.27.6l.06.06c.31.34.49.83.46 1.28 0 .15-.04.3-.1.46 1.25.33 2.11 1.97.85 3.05-.19.16-.38.27-.58.34.38.65.39 1.49-.36 2.13-.75.64-1.63.53-2.25.08-.07.31-.25.62-.57.89-1.18 1-2.66.17-3-.95-.18.05-.36.08-.55.07l-.13-.01a1.94 1.94 0 01-1.27-.6c-.3-.32-.51-.84-.46-1.28M475.46 146.33c-.3-1.81-1.76-1.81-1.76-1.81H466.38s-1.47 0-1.76 1.81c-.3 1.81-2.93 14.2-1.76 26.57 0 0 0 2.42 3.81 2.42h6.74c3.81 0 3.81-2.42 3.81-2.42 1.17-12.38-1.46-24.76-1.76-26.57" fill="#A3B6D9"/><path d="M467.18 131.03a15.1 15.1 0 011.96 7.57c-.01 2.02 3.1 2.03 3.1 0a18.4 18.4 0 00-2.38-9.15c-.99-1.76-3.67-.18-2.68 1.58" fill="#CEDBF2 "/><path d="M462.45 128.1c.03-.3.12-.6.3-.86a1.75 1.75 0 01-1.05-1.7c.04-.47.23-.9.6-1.23l.07-.06.14-.1a1.6 1.6 0 01-.07-.86c.1-.44.35-.89.76-1.14a1.9 1.9 0 011.68-.2c.1-.29.28-.56.51-.74a1.9 1.9 0 012.6.15c.18.21.33.45.43.7.21-.07.43-.1.66-.08.49.05.94.23 1.27.6l.06.06c.31.34.49.83.46 1.28 0 .15-.04.3-.1.46 1.25.33 2.11 1.97.85 3.05-.19.16-.38.27-.58.34.38.65.39 1.49-.36 2.13-.75.64-1.63.53-2.25.08-.07.31-.25.62-.57.89-1.18 1-2.66.17-3-.95-.18.05-.36.08-.55.07l-.13-.01a1.94 1.94 0 01-1.27-.6c-.3-.32-.51-.84-.46-1.28M456.5 158.01a5 5 0 00-4.35-2.92v-.01h-.3v.01a5 5 0 00-4.36 2.92 7.35 7.35 0 00-.77 3.35v11.97c0 .61.5 1.11 1.13 1.11h8.3c.63 0 1.13-.5 1.13-1.11v-11.97c0-1.16-.24-2.31-.77-3.35" fill="#A3B6D9"/><path d="M353.65 248.3c-.74-.1-.61-.14-.92-.91-.98-2.46-1.7-5.04-2.54-7.55a1179.29 1179.29 0 01-13.93-44.73l6.6-.1c4.9 17.77 9.7 35.58 14.59 53.36-.71-.02-1.42-.07-2.14-.09-.54-.01-1.14.1-1.66.03zm-58.03-26.06c.9-2.85 1.79-5.7 2.67-8.56h40.78c.88 2.86 1.77 5.71 2.67 8.56h-46.12zm-8.45 17.6c-.83 2.5-1.52 5.13-2.54 7.55-.28.65-.2.8-.92.92-.47.08-1.17-.04-1.66-.03-.72.02-1.43.07-2.14.1 4.9-17.76 9.67-35.55 14.57-53.3 2.2 0 4.41 0 6.62.02a1210.09 1210.09 0 01-13.93 44.74zm46.48-44.31c1.5 5.19 3.05 10.37 4.62 15.54h-39.19c1.58-5.17 3.12-10.35 4.63-15.54.04-.15.05-.28.05-.41 6.72.03 13.44.07 20.16.07 3.23 0 6.45-.03 9.68-.06 0 .13.01.26.05.4zm-45.41-3.1h-2.3c-.36 0-.82.06-1.18 0-.57-.08-.55-.14-.7-.56-.22-.59-.06-1.61-.08-2.24-.03-.76-.05-1.53-.03-2.29 0-.52-.11-1.92.2-2.34.4-.52 1.93-.35 2.47-.36 4.85-.13 9.71-.26 14.57-.27 5.7 0 11.39.03 17.08.04 11.05.02 22.1.04 33.14.04 1 .1.7.84.73 1.65.03.73.07 1.46.08 2.19.01.73 0 1.47-.06 2.2-.08.96-.12 1.5-1.12 1.72-1.51.31-3.36.08-4.91.12l-5.24.1c-6.58.11-13.16.16-19.74.15-9.54-.02-19.08-.09-28.62-.13l-4.29-.01zm-1.53-75.34l3.87-.04c.8 0 1.12-.14 1.38.66.23.7.2 1.6.3 2.35a2587.12 2587.12 0 003.48 26.05c1.62 11.88 3.26 23.76 4.77 35.66H300l-5.37.09c-2.66-21.59-5.68-43.13-7.92-64.77zm54.04 9.31a2898.74 2898.74 0 01-1.08 8.22c-14.33.05-28.67-.23-42.99.48l-1.08-8.17c15.03-.8 30.1-.46 45.15-.53zm-12.76 10.64c3.79 0 7.57.02 11.35 0l-3.74 27.86a2263.4 2263.4 0 00-2.19 16.87l-5.96-.03.54-44.7zm-15.8 44.66a755.54 755.54 0 01-.13-44.62c4.5-.05 9-.06 13.5-.05l-.55 44.7a1988 1988 0 00-12.83-.03zm-9.25.05c-1.87-14.76-3.94-29.5-5.93-44.25 4.2-.2 8.4-.32 12.61-.39-.4 14.86-.35 29.74.13 44.6-2.27 0-4.54.02-6.8.04zm39.97-53.25l1.09-8.44c.1-.74.08-1.64.3-2.35.25-.8.55-.67 1.35-.66 1.26 0 2.54.02 3.8.04-2.2 21.62-5.19 43.15-7.81 64.72l-5.8-.02c1.49-11.82 3.1-23.62 4.69-35.43a6994.52 6994.52 0 002.38-17.86zm17.52 120.83c-5-18.12-9.87-36.27-14.87-54.39l3.64-.08c1.57-.04 3.49.08 4.64-1.21.99-1.11.97-2.86 1-4.26.05-1.65.19-3.66-.16-5.27-.31-1.47-1.58-2.03-2.93-2.23-.1-.03-.22-.05-.34-.05h-.3c-2.35 0-4.7 0-7.04-.02 2.66-21.82 5.68-43.6 7.9-65.48.07-.67-.35-1.05-.85-1.14-.2-.3-.52-.52-.98-.52l-3.65-.04c-.92-.01-1.97-.15-2.86.19-1.93.73-1.82 3.26-2.03 4.95l-.55 4.23c-.09-.02-.18-.03-.29-.03-15.06.07-30.13-.26-45.18.53-.1 0-.2.03-.3.05l-.37-2.83c-.17-1.35-.32-2.7-.51-4.05-.14-.96-.36-1.9-1.17-2.52-.77-.58-1.73-.54-2.65-.53-1.52 0-3.03.03-4.55.05-.46 0-.78.22-.97.52-.51.09-.93.46-.86 1.14 2.24 21.9 5.3 43.71 8 65.57l-3.18.06c-2.18.05-6.39-.53-7.35 2.16-.53 1.46-.38 3.4-.34 4.93.04 1.33-.23 3.18.4 4.4.56 1.1 1.87 1.52 3.03 1.58 1.88.12 3.8 0 5.67.01h1.33c-4.98 18.09-9.84 36.2-14.83 54.28-.24.85.42 1.6 1.26 1.65 1.3.07 2.57-.06 3.86-.1 1.08-.02 2.28.26 3.3-.18.9-.4 1.29-1.17 1.6-2.04.5-1.34.93-2.7 1.39-4.06a1209.6 1209.6 0 005.36-16.28l1.1-3.47h47.76l1.1 3.47a1191.2 1191.2 0 005.36 16.28c.46 1.35.88 2.72 1.38 4.06.33.88.7 1.65 1.61 2.04.95.4 2.02.16 3.02.18 1.38.03 2.75.18 4.14.1.84-.05 1.5-.8 1.26-1.65z" fill="#CEDBF2 "/><path d="M294.16 74.64l6.95-6.3c1.25-1.13-.66-2.9-1.9-1.78l-6.96 6.3c-1.25 1.13.66 2.9 1.9 1.78M300.3 76.39l2.6-2.71c.49-.52.53-1.32 0-1.83-.5-.47-1.42-.51-1.91 0l-2.6 2.71c-.5.52-.54 1.32 0 1.83.5.47 1.41.51 1.9 0" fill="#FFF"/><path d="M338.4 79.4c-1.12-.02-6.64-.03-8.1-.03-.21 0-.37-.22-.48-.36-.05-.15-.1-.36-.1-.5 0-1.67-.11-11.5.05-13.23.05-.22.1-.36.26-.5.11-.08.22-.22.38-.22 1.39-.09 7.07-.08 8.47-.12h.08c1.4.04 7.08.03 8.47.12.16 0 .27.14.38.21.16.15.2.3.26.5.16 1.74.06 11.57.06 13.23 0 .15-.06.36-.11.5-.1.15-.27.37-.48.37-1.46 0-6.98.01-8.1.03h-1.04z" fill="#CEDBF2 "/><path d="M334.32 74.66l6.45-6.43c1.08-1.07-.57-2.76-1.65-1.69l-6.45 6.43c-1.08 1.07.57 2.76 1.65 1.69M340.69 76.37l2.71-2.77c1.14-1.16-.7-2.9-1.85-1.73l-2.71 2.77c-1.14 1.16.7 2.9 1.85 1.73" fill="#FFF"/><path d="M351 80.81c.09.7.03.45-.73.45h-2.62c-3.3.02-6.62.05-9.93.05-3.25-.05-6.5-.04-9.74-.04-.51 0-1.49.18-1.97 0l-.02-.02v-.12c-.05-.18 0-.45-.01-.64l-.02-3.88c-.03-3.61-.05-7.23-.02-10.84.02-1.2.12-2.43.09-3.63-.02-.6-.03-.42.54-.44l2.29-.04a703.94 703.94 0 0121.54.04c.57.02.56-.15.55.44-.04 1.26.07 2.53.08 3.79.03 3.56 0 7.12-.01 10.68-.01 1.35-.22 2.86-.03 4.2m2.45-12.92c0-1.67-.01-3.34-.07-5-.04-1.52-.28-3.2-2.05-3.55-1.57-.31-3.39-.1-4.97-.12l-6.16-.05c-3.3-.03-6.62.02-9.93.05-1.5.02-3.3-.22-4.76.14-1.76.43-1.87 2.26-1.9 3.74-.12 3.78-.07 7.57-.05 11.35l.03 5.58c0 1.67.19 3.5 2.24 3.65 3.94.27 7.96 0 11.9.04 3.25 0 6.5-.03 9.76-.04 1.38 0 3.81.46 4.98-.45 1.15-.9.93-2.54.94-3.85.02-3.83.05-7.66.04-11.5M310.51 80.81c.1.7.04.45-.72.45h-2.62c-3.3.02-6.62.05-9.93.05-3.25-.05-6.5-.04-9.74-.04-.51 0-1.49.18-1.97 0l-.02-.02v-.12c-.05-.18 0-.45-.01-.64l-.02-3.88c-.03-3.61-.05-7.23-.02-10.84.02-1.2.12-2.43.09-3.63-.02-.6-.03-.42.54-.44l2.29-.04a703.94 703.94 0 0121.54.04c.57.02.56-.15.55.44-.04 1.26.07 2.53.08 3.79.03 3.56 0 7.12-.01 10.68-.01 1.35-.22 2.86-.03 4.2m2.38-17.92c-.04-1.52-.28-3.2-2.05-3.55-1.57-.31-3.39-.1-4.97-.12l-6.16-.05c-3.3-.03-6.62.02-9.93.05-1.5.02-3.3-.22-4.76.14-1.76.43-1.87 2.26-1.9 3.74-.12 3.78-.07 7.57-.05 11.35l.03 5.58c0 1.67.19 3.5 2.24 3.65 3.94.27 7.96 0 11.9.04 3.25 0 6.5-.03 9.76-.04 1.38 0 3.81.46 4.98-.45 1.15-.9.93-2.54.94-3.85.02-3.83.05-7.66.04-11.5 0-1.66-.01-3.33-.07-5" fill="#CEDBF2 "/><path d="M297.92 79.4c-1.12-.02-6.64-.03-8.1-.03-.21 0-.37-.2-.48-.34-.05-.13-.1-.34-.1-.47 0-1.57-.11-10.82.05-12.45.05-.2.1-.34.26-.48.11-.07.22-.2.38-.2 1.39-.08 7.07-.07 8.47-.11h.08c1.4.04 7.08.03 8.47.1.16 0 .27.14.37.21a.8.8 0 01.27.48c.16 1.63.06 10.88.06 12.45 0 .13-.06.34-.11.47-.1.14-.27.34-.48.34-1.46 0-6.98.01-8.1.03h-1.04z" fill="#CEDBF2 "/><path d="M293.84 74.66l6.45-6.43c1.08-1.07-.57-2.76-1.65-1.69l-6.45 6.43c-1.08 1.07.57 2.76 1.65 1.69M300.2 76.37l2.72-2.77c1.14-1.16-.7-2.9-1.85-1.73l-2.71 2.77c-1.14 1.16.7 2.9 1.85 1.73" fill="#FFF"/><path d="M160.25 164.62c-.25-3.47-1.38-8.13 1.67-10.58 1.38-1.1 2.56-2.11 3.48-3.66.91-1.53 1.5-3.22 1.92-4.95.8-3.34.95-6.8.98-10.21.04-4.4.04-8.78-.75-13.13-.25-1.33 1.77-1.91 2.01-.56.8 4.35.86 8.7.84 13.1a54.12 54.12 0 01-.84 10.35c-.68 3.34-1.97 6.73-4.42 9.15-.64.63-1.4 1.1-2.07 1.68-1.13.99-1.04 2.16-1.03 3.56 0 1.75.17 3.5.3 5.25.1 1.36-1.99 1.36-2.09 0" fill="#1E3255"/><path d="M159.92 164.33c.05.62.6.8.97.78.34-.03.7-.24.66-.75l-.09-1.04c-.1-1.4-.22-2.84-.23-4.26v-.3c-.01-1.27-.02-2.48 1.16-3.5.3-.24.61-.47.93-.7.42-.32.83-.62 1.2-.97 2.16-2.08 3.66-5.14 4.48-9.1.72-3.47.84-7.03.86-10.37.03-4.18-.01-8.65-.85-13.15-.05-.27-.19-.44-.4-.52a.95.95 0 00-.88.2.82.82 0 00-.28.8c.8 4.3.83 8.55.78 13.27-.03 3.36-.18 6.94-1.02 10.35-.5 2-1.15 3.66-2 5.07-.96 1.56-2.18 2.58-3.66 3.75-2.54 2-2.15 5.55-1.8 8.7.06.6.13 1.18.17 1.74m.9 1.31c-.67 0-1.37-.43-1.43-1.28-.04-.54-.1-1.12-.17-1.72-.36-3.28-.77-7 2-9.16 1.44-1.14 2.62-2.13 3.53-3.62a17.38 17.38 0 001.94-4.91c.83-3.37.98-6.9 1-10.24.06-4.68.03-8.9-.76-13.17-.1-.5.07-.97.45-1.3.4-.33.95-.45 1.4-.29.4.14.67.47.75.92.85 4.55.9 9.04.86 13.26a53.74 53.74 0 01-.87 10.47c-.84 4.07-2.4 7.22-4.63 9.37-.4.38-.84.7-1.26 1.01-.3.22-.6.45-.9.7-.99.84-.98 1.83-.97 3.08v.3c0 1.4.12 2.83.23 4.22l.09 1.05c.06.83-.56 1.26-1.15 1.3l-.12.01" fill="#1E3255"/><path d="M160.25 164.16c.04.48.49.62.73.6.19-.02.5-.1.47-.53l-.09-1.04a56.03 56.03 0 01-.22-4.25v-.28c-.01-1.32-.02-2.57 1.2-3.63.29-.25.6-.48.9-.71.4-.31.8-.6 1.15-.95 2.06-2.03 3.5-5.04 4.3-8.93.69-3.43.8-6.96.83-10.26.02-4.15-.02-8.57-.83-13.03-.04-.19-.12-.31-.27-.36-.2-.07-.47 0-.66.16-.12.1-.26.3-.2.6.78 4.3.8 8.53.76 13.23-.03 3.34-.18 6.91-1 10.32-.48 2-1.13 3.67-1.97 5.08-.94 1.59-2.13 2.61-3.6 3.79-2.37 1.9-2 5.38-1.67 8.45.07.6.13 1.19.17 1.74" fill="#1E3255"/><path d="M160.8 164.75c0 .1.05.19.12.25.11.1.27.12.34.1.24 0 .25-.11.24-.24l-.08-1.05c-.1-1.33-.23-2.83-.24-4.3v-.28c0-1.34-.02-2.71 1.34-3.86.3-.26.63-.5.95-.74.42-.3.81-.6 1.16-.93 2.1-2 3.57-4.99 4.37-8.85.72-3.43.84-6.98.86-10.3.03-4.17-.02-8.62-.85-13.08-.03-.14-.08-.16-.1-.17-.1-.03-.29 0-.43.12-.1.09-.15.2-.12.36.82 4.36.84 8.64.8 13.37-.04 3.4-.19 7-1.05 10.47a18.27 18.27 0 01-2.07 5.2c-1 1.64-2.25 2.69-3.78 3.88-2.35 1.84-1.97 5.26-1.64 8.29.07.64.14 1.21.18 1.76m.43.89c-.18 0-.44-.06-.65-.23a.86.86 0 01-.31-.62c-.05-.54-.1-1.11-.17-1.7-.36-3.2-.75-6.79 1.82-8.8 1.5-1.17 2.7-2.18 3.67-3.74.85-1.4 1.51-3.06 2-5.05.85-3.42 1-7 1.03-10.35.05-4.71.02-8.96-.78-13.28a.87.87 0 01.3-.86c.27-.23.65-.31.95-.2.16.05.37.2.44.56.85 4.5.9 8.98.87 13.18a53.2 53.2 0 01-.87 10.4c-.83 3.98-2.35 7.05-4.53 9.13-.37.36-.77.66-1.2.97-.33.24-.64.47-.94.72-1.16.99-1.15 2.13-1.14 3.45v.29c0 1.44.12 2.94.23 4.26l.09 1.05c.03.47-.25.78-.73.82h-.08M158.82 146.55a16.27 16.27 0 01-12.05-.15c-1.88-.75-2.7 2.18-.84 2.92a18.96 18.96 0 0013.73.14c1.87-.7 1.06-3.62-.84-2.91M143.12 130.2c.03.45 0 .9.03 1.36.04.82.77 1.52 1.74 1.52.92 0 1.8-.7 1.75-1.52-.03-.45 0-.9-.03-1.36-.04-.82-.77-1.52-1.74-1.52-.92 0-1.8.7-1.75 1.52M161.6 130.2c.03.45 0 .9.03 1.36.04.82.77 1.52 1.74 1.52.92 0 1.8-.7 1.75-1.52-.03-.45 0-.9-.03-1.36-.04-.82-.77-1.52-1.74-1.52-.92 0-1.8.7-1.75 1.52M158.52 137.6a38.05 38.05 0 01-2.08-6.93c-.4-1.94-3.5-1.12-3.1.81.42 2.1.98 4.14 1.75 6.15.44 1.17 1.13 2.34 1.7 3.51a34.47 34.47 0 01-2.53-1.55c-1.7-1.15-3.31 1.52-1.63 2.65 1.51 1.01 7.45 4.24 8.06.58.27-1.57-1.6-3.83-2.17-5.22M120.24 134.56c.01-3.6 2.16-5.92 5.77-6.26l-.02-1.5c-.01-.95-.03-1.9-.03-2.86 0-.93.76-1.42 1.51-1.42s1.5.49 1.5 1.42a230.73 230.73 0 01.06 5.53c.01.1-.01.18-.03.25l-.02.05c.01.43-.14.82-.42 1.08-.26.25-.61.36-1.04.35-1.52-.1-2.66.2-3.37.85-.6.56-.9 1.4-.9 2.5.04 2.24 1.52 4.68 4.2 4.8.21.01.39.07.53.13l.06.02c.03 0 .05.02.09.05.53.23.84.69.84 1.27-.01 3.67-.13 7.4-.24 11a339.4 339.4 0 00-.23 12.4c0 .53-.24.96-.69 1.21-.24.14-.53.21-.82.21-.28 0-.56-.07-.8-.2-.46-.25-.7-.68-.71-1.22a346 346 0 01.23-12.46c.1-3.18.2-6.47.22-9.71a7.6 7.6 0 01-5.69-7.49" fill="#1E3255"/><path d="M201.2 225.57c-.19-36.76-8.43-44.15-15.24-47.3-4.68-2.15-8.68-2.05-11.44-2.38a4.39 4.39 0 01-3.74-2.95l-1.96-6.42c-.32-1.04-1.38-1.76-2.58-1.76h-46.16c-1.22 0-2.28.74-2.59 1.79l-1.71 5.88a4.03 4.03 0 01-3.38 2.78c-2.78.4-7.12.92-11.76 3.06-6.8 3.15-19.11 22.49-11.37 53.37l111.93-6.07z" fill="#471180"/><path d="M120.33 124.23c.45 1.38 2.07 2 3.63 1.75 16.1-2.62 32.5-3.6 48.88-3.6 3.8 0 3.78-5.02 0-5.02l-3.36.01c0-.03 0-.08-.02-.12-.73-4.64-1.6-9.76-7.08-12.26-5.22-2.38-10.53-1.98-16.19-1.34-3.2.36-6.4.77-9.6 1.25-2.84.43-4.68 1.03-6.84 2.77-4.38 3.5-4.34 7.03-4.52 13.02l-2.84.45c-1.57.25-2.45 1.86-2.06 3.09" fill="#FF00A5"/><path d="M128.67 117.65c1.7 3.57 6.37 3.66 9.44 2.3 2.41-.76 4.08-3.79 2.82-6.26-.6-1.14-1.77-1.63-2.95-1.18-.77.3-1.27.87-1.63 1.56-.78-1.2-1.97-2.39-3.27-2.05-1.57.4-1.57 1.98-1.65 2.86-.45-1.09-1.61-1.35-2.22-1.07-1.44.66-1.18 2.49-.54 3.84" fill="#471180"/><path d="M160.98 115.48c-5.77.06-11.51.47-17.26 1.07-1.96.21-1.98 3.53 0 3.32 5.75-.6 11.49-1.02 17.26-1.08 2-.01 2-3.33 0-3.31" fill="#FFF"/><path d="M88.57 231.37c2.09 17.37 4.34 34.75 10.88 51.14.74 1.86 3.82 1.05 3.07-.83-6.43-16.14-8.7-33.2-10.76-50.3-.23-1.99-3.43-2-3.19 0M201.56 221.32c-1.8 9.13 3.37 17.22 12.49 19.52 6.14 1.55 12.86 1.63 19.12.96 3.32-.35 6.63-.96 9.85-1.8 3.89-1.01 9.73-4.42 13.52-1.25 1.53 1.28 3.76-.9 2.22-2.2-6.56-5.5-16.12.74-23.43 1.82-11.6 1.72-34.21 1.34-30.74-16.22.38-1.96-2.65-2.8-3.03-.83M181.1 249.87c5.89 13.31 23.51 16.74 36.63 17.63 9.1.62 18.23-.14 27.26-1.34 7.4-.98 14.71-2.01 21.42-5.43 1.8-.92.2-3.61-1.6-2.7-12.17 6.2-28.91 6.8-42.36 6.55-13.15-.25-32.61-2.7-38.62-16.28-.81-1.84-3.53-.25-2.72 1.57" fill="#1E3255"/><path d="M248.88 243.85a138.87 138.87 0 0111.06-3.6c.49-.12 3-.99 4.85-.91 1.43.06 2.45.77 1.89 2.25-.7 1.88 1.77 3.12 2.64 1.3a4.66 4.66 0 00-3.82-6.82c-2.6-.24-5.37.88-7.8 1.58-3.26.94-6.48 2.02-9.67 3.2-1.89.7-1.07 3.71.85 3" fill="#1E3255"/><path d="M258.61 248.15c2.67-.7 5.24-1.66 7.79-2.72.85-.36 3.32-1.19 4.16-.65 1.02.44 1.4 1.2.96 2.73-.28.97-2.86 1.79-3.66 2.05-1.94.64-1.1 3.76.85 3.11 4-1.32 8.99-5.31 4.86-9.74-1.64-1.76-4.48-1.93-6.61-1.2-3.1 1.04-6 2.46-9.2 3.3-1.97.53-1.13 3.65.85 3.12" fill="#1E3255"/><path d="M260.3 254.91l4.34-1.44c1.6-.53 5.25-2.08 6.06-.26.42.96-.03 1.48-1.17 2.29-.53.38-1.09.68-1.65 1.02-1.32.83-2.92 1.47-4.3 2.19-1.79.92-.2 3.58 1.57 2.66 3.03-1.56 10.83-4.84 8.74-9.4-2.48-5.43-10.66-1.28-14.41-.03-1.9.63-1.09 3.61.83 2.97" fill="#1E3255"/><g transform="translate(113.2 218.44)"><mask id="f" fill="#fff"><use xlink:href="#e"/></mask><path d="M.04 10.77a766.62 766.62 0 005.3 34.14c1.09 6.08 2.1 12.24 3.52 18.26.82 3.43 1.43 6.28 5.21 7.5 4.55 1.45 10.93.28 15.64.18a625.9 625.9 0 0035.65-1.76c2.85-.23 7.42.15 9.66-2.2 2.68-2.83 1.68-8.73 1.65-12.09-.05-5.9-.29-11.81-.5-17.72l-.65-17.6c-.16-4.6.9-11.08-1.05-15.4-1.22-2.7-3.39-3.29-6.09-3.65C62.7-.33 56.44.36 50.73.66c-12.63.64-25.17 2.22-37.7 3.8" fill="#471180" mask="url(#f)"/></g><path d="M112.33 233.15c2.04 16.62 4.2 33.22 9.13 49.3.6 1.95 3.7 1.12 3.1-.84-4.84-15.8-7-32.12-9-48.46-.25-2-3.47-2.02-3.23 0" fill="#1E3255"/><path d="M355.2 140.22c-.32.45-1.2.62-1.74.72-1.92.35-4.35-.92-4.95-2.61-.64-1.82-.59-4.36 1.77-5.8a4.26 4.26 0 011.82-.33c.36 0 .68.03.86.1l2.24 7.92z" fill="#FF00A5"/><g transform="translate(78 31)"><use fill="#FFF" xlink:href="#g"/><use fill="#471180" xlink:href="#g"/></g><path d="M399.7 104.62c4.93-.69 8.57-5.5 5.28-10.11-2.38-3.34-7.66-.17-7.66-.17s4.02-5.89-.89-8.65c-3.56-2.01-6.41 2.8-6.41 2.8s3.37-5.74-1.49-7.56c-2.27-.85-5.28 1.27-5.75 4.62-.26-1.42-1.03-5.57-4.1-5.25-5.3.55-3.85 6.88-3.85 6.88s-.9-5.25-6.86-3.54c-1.97.57-4.73 4.81-.82 9.74-1.2.45-2.37.95-3.5 1.48l-.07.03c-3.94 1.87-7.61 4.45-9.34 8.28a25.93 25.93 0 00-1.68 4.78c2.15-1.9 5.59-3.09 8.59-3.51 7.17-1 14-.13 20.41 3.02 4.56 2.25 9.09 7.07 11.35 13.3.18-.04 1.19-1.42 2.95-1.62 2.46-.27 2.94.87 3 .77 2.58-4.74 2.32-10.98.78-15.2.02-.04.03-.08.06-.09" fill="#1E3255"/><path d="M402.62 161.12a3.84 3.84 0 003.12 2.83c2.57.41 6.58.94 10.87 3.12 6.28 3.2 7.8 8.86 7.94 10.74.23 2.94.18 12.04.12 13.3-.02.52-.52.93-1.13.93h-92.68c-.6 0-1.11-.41-1.13-.94a221 221 0 01.12-13.3c.14-1.87 1.66-7.53 7.95-10.73 4.32-2.2 8.01-2.1 10.56-2.42a4.15 4.15 0 003.46-3.01l1.81-6.53a2.47 2.47 0 012.38-1.79h42.64c1.12 0 2.1.75 2.39 1.82l1.58 5.98z" fill="#444"/><path d="M370.11 129.49c-.28.23-.58-.2-.73-.37-.5-.59-1.67-.6-2.16 0-.62.75-2.06 1.56-2.69.32-.44-.86.3-2.24.63-3.03.82-1.96 1.75-3.77 1.87-5.94.1-1.96-2.96-1.96-3.06 0-.18 3.41-3.73 6.61-2.25 10.12 1.15 2.75 4.42 3.11 6.62 1.62 1.25.68 2.69.45 3.94-.55 1.53-1.24-.65-3.39-2.17-2.17M360.64 139.77a18.81 18.81 0 0013.77-.15c1.82-.73 1.02-3.64-.82-2.9-4 1.62-8.08 1.67-12.12.15-1.86-.7-2.67 2.2-.83 2.9M373.7 119.66c0 .42 0 .84-.02 1.27-.04.86.83 1.59 1.75 1.59a1.7 1.7 0 001.75-1.6c.02-.42.02-.84.02-1.26.03-2.05-3.47-2.05-3.5 0M355.23 119.63c-.02.46 0 .92-.03 1.38-.04.81.84 1.51 1.75 1.51.98 0 1.7-.7 1.74-1.51.02-.46 0-.92.03-1.38.04-.81-.83-1.51-1.75-1.51-.98 0-1.7.7-1.74 1.51" fill="#1E3255"/><path d="M252.27 205.4c-.75.6-2.09.71-2.93-.28-.74-.87-.46-1.92.24-2.38.53-.35 2.06-.56 2.78.5.72 1.06.21 1.93-.09 2.17m3.44-3.45a2.53 2.53 0 00-.37-.44l-.05-.07c-2.4-2.34-6-3.24-8.99-1.34-2.87 1.82-3.8 5.68-1.76 8.46 1.97 2.67 6.47 3.74 9.35 1.93a6.37 6.37 0 001.82-8.54" fill="#444"/><path d="M246.43 218.88a46 46 0 00-1.64-1.06l.52-.87c.61.39 1.22.78 1.84 1.15.74.45 1.71.3 2.2-.47.45-.72.28-1.82-.46-2.27-.63-.38-1.24-.77-1.85-1.16.63-1 1.26-2 1.92-2.98 1.54-2.33-2-4.71-3.55-2.4a185.5 185.5 0 00-6.05 9.75c-1.4 2.4 2.14 4.8 3.54 2.38l.22-.35c.53.33 1.05.67 1.57 1.02 1.71 1.15 3.45-1.59 1.74-2.74" fill="#444"/><g transform="translate(78 31)"><use fill="#6D8BFF" xlink:href="#h"/><use fill="#00B69E" xlink:href="#h"/><use fill="#471180" xlink:href="#h"/></g><path d="M374.83 94.66a39.35 39.35 0 0118.04 7.27c1.6 1.19 3.87-.94 2.25-2.14a42.44 42.44 0 00-19.44-8.05c-2-.29-2.87 2.63-.85 2.92" fill="#FF00A5"/><path d="M258.94 212.02a2.11 2.11 0 01-2.55 1.46c-1.13-.27-1.53-1.27-1.24-2.05.22-.59 1.33-1.64 2.56-1.2 1.2.43 1.33 1.43 1.23 1.8m.71-4.77a2.7 2.7 0 00-.56-.14l-.08-.02c-3.37-.5-6.83.85-8.11 4.1a5.9 5.9 0 003.66 7.83c3.2 1.02 7.5-.73 8.75-3.84 1.19-2.99-.6-6.79-3.66-7.93" fill="#444"/><path d="M261.91 226.45c-.7.04-1.38.08-2.07.15l-.08-1.03c.77-.06 1.54-.11 2.3-.19.92-.09 1.67-.8 1.62-1.73-.05-.85-.87-1.65-1.79-1.56-.77.08-1.54.14-2.31.2-.06-1.2-.13-2.4-.17-3.6-.08-2.83-4.62-2.6-4.53.22.12 3.88.35 7.75.72 11.6.26 2.82 4.8 2.6 4.53-.22l-.03-.42c.66-.05 1.32-.1 1.99-.13 2.18-.1 2.01-3.4-.18-3.29" fill="#444"/><path d="M395.3 131.65a4.7 4.7 0 00-2.68-.23c-3.92 1.47-4.35 7.87.02 8.65 1.93.34 3.85-1 4.45-2.68.64-1.8.59-4.32-1.78-5.74" fill="#FF00A5"/><path d="M331.46 173.56c-3.08 6.54-3.1 14.33-3.8 21.4-.56 5.62-1.16 12.73-4.74 17.34-5.76 7.43-11.24-2.04-15.3-6.42-4.41-4.76-10.34-10.24-17.37-9.82-3.84.23-6.14 2.53-8.54 5.23-2.64 2.97-6.46 6.52-8.34 10.07-2.94 5.55 2.12 13.61 5 18.33a56.31 56.31 0 0016.14 17.1c13.1 9 35.45 9.3 47.3-6.5-.08 6.94-5.46 19.78-.17 24.89 5.27 5.08 12.62 6.51 19.7 6.83 10.1.47 19.37 4.44 29.48 4.3 10.28-.13 22.35 3.4 32.62 3.71 24.24.75 18.6-21.43 19.65-34.84.64-8.14-1.57-20.52-5-28.03-4.18-9.23-13.47-18.17-13.24-28.76" fill="#444"/><path d="M421.2 280.55c-.74-28.8-15.92-45.02-9.78-67.92 6.1-22.75-2.7-42.85-2.72-47.64 0-1.05-3.46-1.6-3.46-.54.01 4.24-.6 9.53-.59 13.77-.12.03.1-.16-.02-.08-4.12 2.68-49.46 3.33-53.38.58-.28-4.85-.56-8.66-.75-14.12-.03-1.05-3.14-.51-3.16.55-.1 4.24-12.8 24.1-5.67 48.22 5.88 19.91-7.42 45.02-6.68 67.55l86.21-.37z" fill="#00B69E"/><g transform="translate(78 31)"><use fill="#6D8BFF" xlink:href="#i"/><use fill="#00B69E" xlink:href="#i"/><use fill="#471180" xlink:href="#i"/></g><path d="M252.21 205.25c-.77-2.96.59-6.72 3.69-7.84 2.2-.8 4.46-.4 6.02 1.27 4.7 5.03.44 10.68-5.05 12.18-1.5.4-.86 2.66.65 2.25 3.58-.98 6.8-2.84 8.24-6.32 1.41-3.4.05-8.08-2.8-10.48-2.51-2.13-6.56-2.06-9.35-.44-3.34 1.93-4.63 6.53-3.73 10 .38 1.46 2.71.84 2.33-.62" fill="#1E3255"/><path d="M252.18 210.87a3.84 3.84 0 012.96-2.38c1.08-.21.63-1.68-.45-1.47a5.48 5.48 0 00-4.17 3.44c-.33.94 1.32 1.34 1.66.4" fill="#FFF"/><path d="M257.43 190.04c3.16-.25 6.09.66 8.37 2.67.75.66 1.91-.38 1.15-1.05a12.82 12.82 0 00-9.52-3.1c-1.05.08-1.06 1.56 0 1.48" fill="#1E3255"/><path d="M258.66 189.2c2.71 0 5.16 1 7.12 2.94.3.3.6 0 .64-.03.05-.05.28-.33 0-.6a10.86 10.86 0 00-8.7-3.18c-.35.03-.46.36-.44.57.02.14.07.37.4.34.32-.03.65-.04.98-.04m7.4 3.72c-.24 0-.5-.1-.72-.31a9.34 9.34 0 00-7.61-2.72.97.97 0 01-1.09-.93c-.04-.58.33-1.21 1.03-1.27 3.42-.3 6.7.89 9.2 3.35.5.49.38 1.14 0 1.53-.2.21-.5.35-.8.35" fill="#1E3255"/><g transform="translate(78 31)"><use fill="#6D8BFF" xlink:href="#j"/><use fill="#00B69E" xlink:href="#j"/><use fill="#471180" xlink:href="#j"/></g></g></svg>