<svg width="570" height="320" xmlns="http://www.w3.org/2000/svg" xmlns:xlink="http://www.w3.org/1999/xlink"><defs><path id="a" d="M.9.44h153.41v133.78H.91z"/><path id="c" d="M.54.21h108.04v128.23H.54z"/></defs><g fill="none" fill-rule="evenodd"><path d="M369.93 148.33l.03-7.17h-7.4l-.04 7.17h7.4zM383.36 148.33l.03-7.17H376l-.03 7.17h7.4zM175.66 151.14l.04-7.17h-9.92l-.04 7.17h9.92zM193.65 151.14l.04-7.17h-9.92c0 2.4-.02 4.78-.03 7.17h9.91zM402.65 141.65c-.02-2.32-.28-4.64.02-6.94.13-1.04.32-2.13 1.04-2.94.46-.51 1.52-2.06 3.89-2.06a3.84 3.84 0 013.71 2.39c.3.78.34 1.62.38 2.44l.26 6.3" fill="#A3B6D9"/><g transform="translate(318.9 65.53)"><mask id="b" fill="#fff"><use xlink:href="#a"/></mask><path d="M145.23 103.02c-4.27.1-8.55.19-12.82.27l.04-12.44c0-.63-.53-1.15-1.15-1.16l-8.5-.13c-.63 0-1.15.54-1.16 1.16l-.04 12.77-13.11.18c-.11-13.14-.04-26.29 0-39.43.04-14.82.1-29.65.16-44.47.01-3.46.06-6.92.03-10.38l14.77-.13c.47 11.56.47 23.17.42 34.73 0 .15.03.27.07.4.01.55.38 1.1 1.1 1.09 6.8-.15 13.59.17 20.38.18.18 14.38-.2 28.77-.23 43.14 0 4.74 0 9.48.04 14.22m-15.13.32l-3.5.07-2.69.04.03-11.56 6.2.1-.04 11.35M107.28 7.12c-1.67-1.38-3.4-2.7-5.05-4.11 3.77-.05 7.54-.16 11.31-.2 1.13-.02 2.29-.1 3.42-.03 1.3.08 1.82.68 2.7 1.58.84.86 1.68 1.72 2.5 2.6l-14.7.14c-.06 0-.12 0-.18.02m-1 28.82l-6.89-8.85c.05-7.72-.14-15.5.35-23.21 2.1 1.91 4.43 3.61 6.6 5.44l.03.01c.1 8.87-.04 17.74-.09 26.6m-.08 22.19h-4.96a1.31 1.31 0 00-.68 0c-10.36.01-20.73-.08-31.09-.3 0-2.06 0-4.11-.02-6.17.1-.06.18-.13.26-.23 4.48-5.37 9.7-10.06 14.26-15.35 3.58 4.33 6.8 8.95 10.46 13.22.4.46 1.23.43 1.63 0 3.45-3.66 6.85-7.36 10.21-11.1l-.07 19.93m-.04 16.77l-4.2.06c.17-4.83.21-9.67.13-14.51l4.1-.02-.03 14.47M77.24 60.27c7.51.12 15.03.17 22.54.17.08 4.84.04 9.7-.13 14.54-7.51.07-15.03.04-22.54.05.17-4.92.21-9.84.13-14.76m-7.77 14.79V60.13l5.46.1c.08 4.94.04 9.87-.13 14.8-1.78 0-3.56.01-5.33.03m24.55 28.7v-.03c0-2.46.3-5.15-.03-7.58-.29-2.14-2.73-1.9-4.4-1.87-1.45.03-4.11-.15-4.6 1.68-.29 1.05-.15 2.34-.17 3.41-.03 1.3-.03 2.6-.01 3.9 0 .2.05.37.12.51-5.14 0-10.28-.01-15.42-.04-.06-8.8-.06-17.58-.05-26.38 12.23-.08 24.46.07 36.7-.17l-.02 7.46c0 6.35-.01 12.7.04 19.04l-12.16.08m-2.32-6.2v1.12l.02 5.04v.05h-4.71c.07-.14.11-.31.1-.51-.01-1.58 0-3.15.03-4.73.02-.46.07-.93.05-1.39 0-.23.07-.4.06-.45.59-.21 1.9-.1 2.35-.11.39 0 1.8-.18 2.02-.04.11-.18.14-.11.08.19v.83M69.34 39.5c2.92-3.44 6.13-6.6 9.07-10.03l4.06 4.82c-4.14 4.83-8.84 9.15-13.03 13.93-.02-2.9-.05-5.81-.1-8.72m28.7-10.41l6.18 7.94a712.8 712.8 0 01-8.93 9.71c-2.32-2.78-4.49-5.68-6.7-8.55 3.23-2.95 6.3-6.07 9.45-9.1m28.16 7.4c4.7-.04 9.41-.27 14.12-.27 1.44 2.33 2.7 4.76 4.04 7.14-6.06-.04-12.12-.28-18.18-.2l.02-6.68m-89.07 29.5c.11-8.76.13-17.52.24-26.28 9.88-.03 19.78-.38 29.66-.13.18 8.77.21 17.53.2 26.3-10.03-.05-20.07.1-30.1.1m30.07 37.77l-4.62-.04.05-14.92c0-.63-.53-1.14-1.15-1.15l-8.5-.13c-.63 0-1.16.54-1.16 1.15-.02 4.99-.04 9.97-.04 14.95l-9.56-.11c-4.36-.06-8.7-.3-12.99.65-1.53.35-3.04.8-4.52 1.37V80.6l11.84-12.3c.02 0 .04-.02.05-.03 10.21 0 20.42-.16 30.63-.1-.01 8.23-.06 16.47-.05 24.7 0 3.62 0 7.24.02 10.86m-6.93-.06l-6.18-.05.03-13.8 6.2.09-.05 13.76M14.95 69.74l2.8-2.93c3.11 2.66 6.06 5.5 9.13 8.21l-3 3.12a203.45 203.45 0 01-8.93-8.4M22.41 80v26.47a37.68 37.68 0 00-8.05 5.03V72.4c2.62 2.57 5.28 5.1 8.06 7.52l-.01.08m-1.17-16.92c3.18 2.62 6.13 5.52 9.37 8.06l-2.13 2.22c-3.08-2.71-6.03-5.56-9.16-8.22.65-.68 1.28-1.37 1.92-2.06m2.96-3.26c3.39 2.46 6.55 5.22 9.97 7.64l-1.96 2.03c-3.28-2.53-6.22-5.47-9.42-8.1l1.41-1.57m1.64-26.48c3.08 1.87 6.1 3.83 9.23 5.63-.12 8.71-.13 17.43-.24 26.14-3.25-2.35-6.29-4.97-9.53-7.33.12-8.15.4-16.29.54-24.44m30.8-1.15c2.77 1.63 5.46 3.36 8.2 5.02-9.23-.16-18.48.15-27.71.17-.2-.23-.5-.35-.82-.36-2.64-1.52-5.2-3.14-7.79-4.74 9.37-.07 18.76-.37 28.13-.09m96.5 70.55c-3.31.07-2.3.15-5.61.22-.14-17 .05-34 .16-51 .02-2.2.05-4.4.02-6.6 0-.26-.08-.47-.2-.64.05-.24.02-.51-.15-.79-.85-1.41-1.63-2.88-2.44-4.32-.92-1.66-1.76-3.54-2.91-5.05-.71-.93-1.83-.67-2.9-.66l-4.5.09c-2.8.07-5.61.15-8.42.18a621.6 621.6 0 00-.47-25.59c-.01-.19-.05-.35-.12-.49.08-.33.02-.7-.26-1.03a96.17 96.17 0 00-4.4-4.67c-.66-.67-1.28-1.41-2.2-1.72-1.09-.35-2.38-.2-3.5-.2-5.3.04-10.6.25-15.91.25l-.11.01c-.36.02-.63.19-.8.43-.45.12-.84.47-.88 1.05-.62 8.16-.41 16.4-.46 24.6-3.33 3.16-6.54 6.45-9.93 9.55-1.6-2-3.23-4-5.04-5.84l-2.88-3.65c-.38-.45-1.26-.45-1.64 0-2.85 3.43-6.02 6.55-8.96 9.9-3.76-2.15-7.37-4.54-11.1-6.74a1.08 1.08 0 00-.75-.14c-10.58-.32-21.2.1-31.78.1-.32 0-.57.12-.75.29-.42.2-.7.69-.68 1.16l-.02.18c-.13 8.68-.44 17.36-.57 26.04l-.04.11c-.89 1-1.79 2-2.7 2.98-.68.63-8.07 8.44-7.95 9.07a1.1 1.1 0 00-.25.72v43.04c-.97.96-1.88 1.99-2.71 3.08-2.42 3.16-4.24 6.71-5.9 10.32-.83 1.81-1.62 3.65-2.42 5.48-.6 1.34 1.4 2.52 2 1.16 3.2-7.28 6.27-14.95 12.57-20.17a35 35 0 0110.68-6.07c4.22-1.47 8.36-1.7 12.79-1.64a2438.72 2438.72 0 0091.65-.13c.35.17.78.16 1.12-.02 8-.15 11.69-.33 19.69-.5l1.67-.04a1.14 1.14 0 001.12-1.23v-.02a1.14 1.14 0 00-1.17-1.06" fill="#CEDBF2 " mask="url(#b)"/></g><path d="M430.74 79.3v6.6c2.77 0 5.54.23 8.3.11.18 0 .37-.02.48-.16a.48.48 0 00.08-.3c-.04-2.45-.04-3.34-.04-6-2.85-.1-8.82-.24-8.82-.24M430.74 90.85v6.58c2.77 0 5.54.24 8.3.12.18 0 .37-.02.48-.16a.48.48 0 00.08-.3c-.04-2.45-.04-3.34-.04-6-2.85-.11-8.82-.24-8.82-.24M430.74 103.27v6.59c2.77 0 5.54.24 8.3.12.18 0 .37-.03.48-.16.06-.09.08-.2.08-.3-.04-2.46-.04-3.35-.04-6-2.85-.11-8.82-.25-8.82-.25" fill="#A3B6D9"/><path d="M439.3 132.83l.03-7.17h-7.4l-.03 7.17h7.4zM439.3 142.59l.03-7.17h-7.4l-.03 7.17h7.4zM449.96 132.83l.02-7.17h-7.4l-.03 7.17h7.4zM449.96 142.59l.02-7.17h-7.4l-.03 7.17h7.4zM460.31 132.83l.03-7.17h-7.4l-.03 7.17h7.4zM460.31 142.59l.03-7.17h-7.4l-.03 7.17h7.4zM399.58 118.5c.08-1.82-.1-3.7 1.16-5.28.38-.47.93-.93 1.68-1.01.68-.07 1.35.2 1.78.57.44.37.68.84.9 1.3.69 1.42.68 2.9.57 4.41l-6.41.01M395.42 148.33a.46.46 0 00-.32.41c-.05 1.58-.26 3.16-.03 4.72.01.08.02.16.08.21.08.07.2.07.3.07 3.02 0 6.13 0 9.1-.14.07 0 .15 0 .2-.05.05-.04.06-.11.07-.17.16-1.5-.04-3.02-.02-4.54 0-.12 0-.25-.1-.33-.08-.05-.18-.06-.27-.06l-8.82-.15c-.07 0-.13.01-.2.03M410.83 148.33a.46.46 0 00-.32.41c-.05 1.58-.26 3.16-.03 4.72 0 .08.02.16.08.21.08.07.2.07.3.07 3.02 0 6.13 0 9.1-.14.07 0 .15 0 .2-.05.05-.04.06-.11.07-.17.16-1.5-.04-3.02-.02-4.54 0-.12 0-.25-.1-.33-.08-.05-.18-.06-.27-.06l-8.82-.15c-.07 0-.13.01-.2.03M362.49 122.53l7.6.02v-7.4l-7.6-.03v7.4zM372.55 122.53l7.6.02v-7.4l-7.6-.03v7.4z" fill="#444"/><path d="M207.53 130.8c.2-10.4.45-20.8.47-31.21 3.08 2.27 6.06 4.68 9.12 6.97.02 10.33.02 20.65.01 30.98l-9.6-6.74zm55.94-23.64c-.12-.79-.26-1.57-.4-2.35h-44.4c-2.9-2.16-5.73-4.44-8.63-6.62 14.79.05 29.56-.39 44.34-.58a495 495 0 008.56 6.4c-.18-1.1-.36-2.2-.56-3.3a468.83 468.83 0 01-6.66-5.02 1.04 1.04 0 00-.9-.44c-15.98.2-31.94.73-47.91.6-.78-.01-1.15.61-1.12 1.22-.08.15-.12.32-.12.53.01 11.04-.27 22.1-.49 33.14-.23.5-.2 1.14.38 1.54 3.87 2.69 7.7 5.43 11.57 8.12l-.03 19.37-.03 12.6c0 1.51 2.35 1.52 2.35 0 .07-18.43.06-36.85.06-55.28v-9.93h44z" fill="#CEDBF2 "/><path d="M229.24 139.83c0-.51-.37-1-.87-1.13-1.32-.37-2.71-.14-4.08-.14-1.88 0-3.77-.09-5.66-.16-1.51-.05-1.51 2.3 0 2.35 1.72.06 3.45.14 5.17.15.98.01 2.08-.15 3.1-.07.03 10.47-.17 21 .47 31.44.09 1.5 2.43 1.51 2.34 0-.65-10.78-.41-21.64-.47-32.44M183.15 158.82l-8.43-.13a1.16 1.16 0 00-1.15 1.15c-.02 5.05-.04 10.1-.04 15.16 0 1.47 2.29 1.47 2.29 0 0-4.67.02-9.34.04-14l6.14.09-.05 13.71c0 1.47 2.29 1.47 2.3 0 0-4.95.02-9.9.04-14.84 0-.62-.52-1.13-1.14-1.14" fill="#CEDBF2 "/><path d="M131.3 165.07l4.63-.4c-.7-3.52-.54-6.95.88-10.06.06-.14.15-.23.22-.35a3.88 3.88 0 00-2.58-.89c-2.35 0-3.4 1.55-3.85 2.05-.72.8-.91 1.89-1.04 2.91a23.82 23.82 0 00-.12 3.8c.6.99 1.21 1.97 1.85 2.94" fill="#6D8BFF"/><path d="M198.7 133.1h-13.59c.06-14.28-.05-28.56-.25-42.84-.04-2.91-.07-5.83-.2-8.74-.06-1.47-2.35-1.48-2.28 0 .62 14.63.4 29.33.44 43.97 0 2.92.02 5.83 0 8.75 0 .62.53 1.14 1.15 1.14h13.6v37.79c0 1.47 2.28 1.47 2.28 0v-38.93c0-.62-.52-1.15-1.14-1.15M161.4 169.87c-.06-11.05-.02-22.1.01-33.15.04-14.7.1-29.4.16-44.1.01-3.67.07-7.34.02-11-.02-1.48-2.31-1.48-2.29 0 .13 9.33-.05 18.68-.09 28.02-.06 15.77-.12 31.54-.13 47.32v8.16c.74 1.6 1.51 3.18 2.31 4.75M105.02 135.3c.19 14.13-.3 28.28-.17 42.41 0 1.48 2.3 1.48 2.28 0-.12-14.13.36-28.28.18-42.4-.02-1.48-2.3-1.48-2.29 0M96.22 128.55c.16 11.87-.2 23.76-.22 35.63 0 4.61 0 9.22.04 13.83.02 1.47 2.3 1.47 2.3 0-.13-14.66.03-29.32.15-43.97.01-1.83.04-3.66.02-5.49-.02-1.47-2.3-1.47-2.29 0" fill="#CEDBF2 "/><path d="M160.1 82.33c7.78-.07 15.56-.07 23.33-.15 1.47 0 1.48-2.3 0-2.28-7.77.07-15.55.07-23.33.15-1.47 0-1.47 2.3 0 2.28" fill="#CEDBF2 "/><path d="M160.9 80.63c-2.6-2.2-5.46-4.1-8.07-6.28-1.13-.93-2.75.68-1.62 1.62 2.62 2.19 5.47 4.07 8.07 6.28 1.12.95 2.74-.66 1.62-1.62" fill="#CEDBF2 "/><path d="M151.72 76.01c5.38.01 10.77-.1 16.15-.18 2.55-.03 5.1-.07 7.67-.06.84 0 1.46.03 2.14.59.59.49 1.1 1.1 1.63 1.65a84.16 84.16 0 013.36 3.62c.96 1.11 2.58-.5 1.62-1.62a86.23 86.23 0 00-3.53-3.8c-1.1-1.12-2.11-2.47-3.77-2.69-2.55-.33-5.33-.02-7.9 0-5.79.08-11.58.21-17.37.2-1.47 0-1.47 2.3 0 2.3" fill="#CEDBF2 "/><path d="M150.56 75.2c-.68 8.87-.38 17.84-.47 26.73-.01 1.47 2.28 1.47 2.3 0 .07-8.89-.22-17.86.46-26.73.11-1.47-2.18-1.46-2.29 0M136.34 109.91c7.78-.07 15.55-.07 23.33-.15 1.47-.01 1.47-2.3 0-2.28-7.78.07-15.55.07-23.33.14-1.47.02-1.48 2.3 0 2.3" fill="#CEDBF2 "/><path d="M137.13 108.2c-2.6-2.2-5.45-4.08-8.07-6.27-1.12-.93-2.75.68-1.62 1.62 2.62 2.19 5.48 4.07 8.08 6.28 1.11.95 2.74-.66 1.61-1.62" fill="#CEDBF2 "/><path d="M127.96 103.6c7.35 0 14.7-.25 22.05-.25h.98c-.06 0-.43-.2-.12-.07.27.12.52.32.77.47l2.92 1.76 4.84 2.93c1.27.76 2.42-1.22 1.16-1.98l-4.84-2.92c-1.6-.97-3.29-2.48-5.21-2.48-7.52-.02-15.03.25-22.55.24-1.47 0-1.47 2.3 0 2.3M105.83 136.02c7.77-.07 15.55-.07 23.33-.15 1.47 0 1.47-2.3 0-2.28-7.78.07-15.56.07-23.33.15-1.47 0-1.48 2.3 0 2.28" fill="#CEDBF2 "/><path d="M106.62 134.03c-2.6-2.21-5.45-4.1-8.07-6.28-1.12-.94-2.75.67-1.62 1.62 2.62 2.18 5.48 4.07 8.07 6.28 1.12.94 2.75-.67 1.62-1.62" fill="#CEDBF2 "/><path d="M97.45 129.41c7.78.01 15.56-.28 23.34-.24 1.47 0 1.47-2.28 0-2.3-7.78-.03-15.56.26-23.34.25-1.47 0-1.48 2.29 0 2.3" fill="#CEDBF2 "/><path d="M126.84 102.48c-1.73 8.5-4.23 16.84-6.34 25.26-.1.37-.01.84.3 1.1l7.92 6.76c.63.53 1.69.38 1.91-.5 2.19-8.72 4.84-17.34 6.63-26.15.29-1.44-1.91-2.05-2.2-.6-1.8 8.8-4.45 17.42-6.64 26.13l1.92-.5-7.93-6.75.3 1.11c2.11-8.4 4.61-16.75 6.33-25.25.3-1.44-1.91-2.06-2.2-.61M184.33 128.79h8.13l-.8-.34 6.24 6.21c1.04 1.04 2.66-.58 1.62-1.62l-3.13-3.1c-1-1-1.98-2.24-3.11-3.1-1.01-.76-3.13-.34-4.3-.34h-4.65c-1.47 0-1.47 2.29 0 2.29" fill="#CEDBF2 "/><path d="M164.73 86.67v6.54c2.75 0 11.37.23 14.1.12.18-.01.37-.03.47-.17a.47.47 0 00.09-.29c-.05-2.44-.05-3.32-.05-5.96-2.82-.1-14.61-.24-14.61-.24M164.73 98.12v6.53c2.75 0 11.37.24 14.1.12.18-.01.37-.03.47-.17a.47.47 0 00.09-.29c-.05-2.44-.05-3.32-.05-5.96-2.82-.1-14.61-.23-14.61-.23M164.73 110.44v6.53c2.75 0 11.37.24 14.1.12.18 0 .37-.03.47-.16a.47.47 0 00.09-.3c-.05-2.43-.05-3.31-.05-5.96a1203 1203 0 00-14.61-.23M164.73 122.47V129c2.75 0 11.37.24 14.1.12.18-.01.37-.03.47-.16a.47.47 0 00.09-.3c-.05-2.44-.05-3.32-.05-5.96-2.82-.1-14.61-.23-14.61-.23" fill="#444"/><path d="M255.06 120.58l-.2-7.7c0-.17-.05-.3-.1-.44h.7l4.68-.04.12 8.18h-5.2zm-30.17 0c-.14-2.63-.15-5.27-.15-7.9h5.34c-.01.06-.04.12-.04.2l.2 7.7h-5.35zm22.56-7.7c0-.14-.05-.25-.09-.36l5.28-.05c-.04.12-.07.25-.07.4l.2 7.7h-5.13l-.2-7.7zm-7.1 0c0-.1-.04-.19-.06-.28l4.93-.06c-.03.1-.07.21-.06.34l.19 7.7h-4.8l-.2-7.7zm-8.02 0c0-.08-.03-.14-.05-.21l5.83-.05c-.02.08-.05.16-.04.26l.19 7.7h-5.74l-.19-7.7zm30.08-1.63c0-.28-.1-.49-.24-.66a1.02 1.02 0 00-.9-.48c-10.6.03-21.2.18-31.8.26-1.95.01-3.91.03-5.87.02-.62 0-1.14.53-1.15 1.15 0 3.39-.02 6.8.2 10.18.04.62.5 1.14 1.15 1.14h37.63c.6 0 1.15-.52 1.14-1.14l-.16-10.47zM142.58 136.52l.02-5.34c.08.01.15.04.24.04l7.69-.11-.05 5.35c-2.63.1-5.27.1-7.9.06m-.04-13.4c.12.05.24.08.39.08l7.69-.11-.07 5.73-7.7.11c-.1 0-.18.04-.27.06 0-1.95-.02-3.9-.04-5.86m8.1-2.33l-7.71.11c-.16 0-.28.04-.4.09v-5.5l8.16-.04-.05 5.34m1.2-7.64l-10.46.06c-.31 0-.55.12-.73.28a.86.86 0 00-.07.06l-.07.08c-.16.18-.27.41-.27.72-.06 7.76.15 15.53.04 23.3 0 .62.53 1.13 1.14 1.14 3.4.04 6.8.09 10.19-.1.62-.03 1.14-.5 1.14-1.14l.24-23.25c.01-.62-.53-1.15-1.14-1.15M260.4 154.6a1.16 1.16 0 00-1.14-1.14 177.84 177.84 0 01-7.29-.05c-.09-.9.04-1.88.06-2.74a63.7 63.7 0 00.01-3.35 1.16 1.16 0 00-1.14-1.15l-6.98-.04c-.03-.8-.04-1.6-.04-2.4 0-1.26.32-3.19-.32-4.3-.67-1.17-2.31-.85-3.43-.84l-4.35.04c-.1-2.05-.16-4.1-.1-6.16.03-1.47-2.26-1.47-2.3 0-.06 2.44.01 4.87.16 7.3.05.62.5 1.16 1.15 1.15l4.14-.03 2.07-.01h.64v.08c-.22 1.04.05 2.45.05 3.53 0 .93.02 1.85.1 2.77.04.62.47 1.14 1.13 1.15l6.93.04c0 1.3-.03 2.6-.04 3.9 0 1.04-.24 2.6.89 3.15 1.01.5 2.56.23 3.66.24 1.3.02 2.58.01 3.87 0 .05 2.46.06 4.92-.04 7.38-.07 1.47 2.22 1.47 2.28 0 .12-2.85.1-5.67.04-8.52M267.47 134.56l-.95-6.97c.06 10.35.13 20.7.17 31.05.02 4.6.03 9.2.02 13.79 0 1.47 2.29 1.47 2.29 0 .01-11.78-.06-23.55-.13-35.33a3.9 3.9 0 01-1.4-2.54M117.12 147.31c-.02-.67.13-1.24.37-1.72h-11.18c-1.47 0-1.47 2.29 0 2.29h10.84c0-.2-.03-.38-.03-.57M124.2 145.59c.26.48.42 1.05.43 1.72 0 .2.02.38.03.57h19.26c.18-.46.36-.91.58-1.37.19-.36.46-.66.77-.92H124.2zM151 146.51l.58 1.37h8.08c1.47 0 1.48-2.3 0-2.3h-9.33c.27.27.5.56.67.93M132.36 166.65h4.05c-.22-.76-.4-1.52-.54-2.28h-5.03c.5.77 1 1.53 1.52 2.28M112.37 164.37h-6.06c-1.47 0-1.47 2.28 0 2.28h6.67c-.23-.74-.44-1.5-.6-2.28" fill="#CEDBF2 "/><path d="M245.95 125.9l.01 5.58c6.81.17 10.97.14 16.45.02.06-2.03.06-3.68 0-5.74l-16.33.02M222.85 125.9v5.58c5.86.17 10.97.14 16.45.02v-5.74l-16.33.02" fill="#A3B6D9"/><path d="M250.4 175.95l-85.35.6c.42.72.87 1.43 1.31 2.15l84.05-.6a1.08 1.08 0 00-.02-2.15M118.16 176.87l-6.67.05a1.08 1.08 0 10.02 2.16l8.2-.06a70.1 70.1 0 01-1.55-2.15" fill="#CEDBF2 "/><path d="M255.45 59.3c.1-2.22-3.34-2.22-3.45 0-.5 10.66-1.6 23.2 2.55 33.34 1.63 3.98 4.7 5.82 6.72 9.22 2.27 3.8 1.33 9.07.99 13.32-.18 2.21 3.27 2.2 3.45 0 .52-6.45 1.26-11.93-3.1-16.81-9.3-10.47-7.77-25.89-7.16-39.07M323.11 72.38a8.35 8.35 0 00-8.32-7.66c-.02-1-.05-1.99-.04-2.99.03-2.22-3.42-2.22-3.45 0-.03 1.64 0 3.25.06 4.88a1.75 1.75 0 002.18 1.67c3.97-.92 6.87 2.71 6.03 6.5-.69 3.12-3.52 4.96-6.4 5.8-1.19.34-1.43 1.54-1.03 2.42.04 10.66.2 21.32.49 31.97.06 2.22 3.51 2.23 3.45 0-.3-10.53-.44-21.06-.48-31.6 4.5-1.83 8.05-5.78 7.51-11M268.8 87.13c2.8.83 5.56-.91 7.94-2.24 1.94-1.09.2-4.07-1.74-2.98-.72.4-1.75 1.05-2.79 1.5 2.42-4.96 4.44-10 4.86-15.6.16-2.22-3.3-2.2-3.46 0-.45 6.06-3.11 11.45-5.84 16.78-.51 1-.08 2.2 1.03 2.54M286.93 67.13v3.1c0 2.23 3.45 2.23 3.45 0v-3.1c0-2.22-3.45-2.22-3.45 0M263.38 71.96c.9 0 1.77-.79 1.73-1.72l-.14-2.84a1.76 1.76 0 00-1.73-1.72c-.9 0-1.77.79-1.72 1.72l.14 2.84c.04.93.76 1.72 1.72 1.72M285.4 90.58a19.8 19.8 0 01-16.6.4c-2.04-.85-2.94 2.49-.91 3.32a23.1 23.1 0 0019.26-.74c2-.97.25-3.95-1.74-2.98" fill="#1E3255"/><path d="M319.82 55.68c-1.3-.22-2.61-.42-3.92-.62-.25-8.36-.2-13.27-6.23-18.16-3-2.42-5.53-3.26-9.45-3.85-4.4-.67-8.83-1.24-13.26-1.74-7.81-.89-15.15-1.45-22.35 1.87-7.56 3.47-8.77 10.62-9.78 17.08l-.02.17-4.64-.02c-5.23 0-5.24 7 0 7 22.62 0 45.25 1.37 67.49 5.02 2.15.35 4.39-.52 5-2.45.55-1.7-.67-3.95-2.84-4.3" fill="#444"/><path d="M310.39 44.88c-.85-.37-2.47-.02-3.1 1.45-.11-1.2-.1-3.31-2.31-3.86-1.82-.45-3.49 1.14-4.58 2.77-.5-.93-1.2-1.7-2.28-2.1a3.25 3.25 0 00-4.12 1.59c-1.77 3.32.56 7.41 3.94 8.43 4.3 1.83 10.84 1.72 13.2-3.1.9-1.82 1.26-4.3-.75-5.18" fill="#00B69E"/><path d="M265.46 51.88c8.14.07 16.21.61 24.3 1.41 2.21.22 2.2-3.23 0-3.45-8.09-.8-16.16-1.34-24.3-1.41-2.22-.03-2.22 3.43 0 3.45" fill="#FFF"/><path d="M210.64 185.5c.03-5.3-.28 4.2-.03-.26 2.17-38.67 12.26-47.36 20.73-51.28 6.5-3 12.06-2.87 15.9-3.32a6.1 6.1 0 005.19-4.12l2.72-8.94a3.67 3.67 0 013.58-2.45h64.1c1.69 0 3.16 1.03 3.6 2.5l2.37 8.19a5.6 5.6 0 004.7 3.87c3.84.56 9.88 1.29 16.32 4.27 9.45 4.37 26.54 31.32 15.78 74.33l-154.96-22.8z" fill="#471180"/><path d="M364 209.68c-2.8 23.84-5.87 47.73-14.73 70.2-.82 2.07 2.52 2.96 3.32.92 8.98-22.76 12.02-46.99 14.87-71.12.26-2.2-3.2-2.18-3.45 0M211.04 184.36c-3.61 7.42-10.56 14.3-19.44 13.96-9.02-.34-17.83-9.18-23.64-15.34a81.83 81.83 0 01-7.87-9.82c.6 1.4 1.15 2.81 1.62 4.23.45 1.33-1.77-.08-2.31.8 4.82 7.43 14.4 15.82 22.08 20.3 12.86 7.48 26.44.13 32.54-12.4.97-1.98-2-3.73-2.98-1.73" fill="#1E3255"/><path d="M110.39 167.44c4.7 14.65 16.31 27.62 26.39 38.97 11.03 12.43 23.89 23.83 39.24 30.6 9.8 4.31 22.05 7.42 32.25 2.67 9.58-4.46 17.1-13.38 23.57-21.38 1.38-1.71-1.05-4.17-2.44-2.44-6.08 7.5-13.05 15.93-21.87 20.37-10.6 5.33-23.95.9-33.81-4.13-13.02-6.63-24.03-16.45-33.72-27.26-9.93-11.06-21.66-23.94-26.29-38.32-.67-2.1-4-1.2-3.32.92" fill="#1E3255"/><path d="M147.44 165.8a186.2 186.2 0 00-6.43-12.66c-1.65-2.97-3.27-6.82-6.03-8.98-3.33-2.58-8.41-1.1-9.58 3-.61 2.15 2.72 3.06 3.32.92 1.3-4.55 5.38.17 6.42 1.78 1.2 1.85 2.23 3.82 3.3 5.75a186.5 186.5 0 016.02 11.92c.92 2.02 3.9.27 2.98-1.74" fill="#333"/><path d="M134.18 160.46a91.43 91.43 0 01-5.43-11.08c-1.26-2.92-3.69-5.71-7.1-5.98-2.67-.2-5.86 1.75-6.6 4.35-.85 2.94.63 6.53 1.98 9.08 1.04 1.96 4.02.22 2.98-1.74-.8-1.5-2.34-4.62-1.64-6.42.76-1.94 3.07-1.94 4.57-1.18 1.56.8 2.18 2.15 2.83 3.65a90.45 90.45 0 005.43 11.06c1.15 1.9 4.13.17 2.98-1.74" fill="#1E3255"/><path d="M125.13 165.3c-2.43-4.79-5.82-15.87-13.24-14.07-7.07 1.72-2.28 13.55-.93 17.7.68 2.1 4.01 1.2 3.32-.92a75.29 75.29 0 01-2-7.18c-.48-2.16-1.84-6.53 1.7-6.08 2.5.32 3.65 3.37 4.64 5.31l3.53 6.99c1 1.98 3.98.24 2.98-1.74" fill="#1E3255"/><g transform="translate(225.43 160.44)"><mask id="d" fill="#fff"><use xlink:href="#c"/></mask><path d="M106.87 44.54c-2.11 15.8-4.5 31.55-7.33 47.24-1.51 8.43-2.91 16.95-4.88 25.29-1.13 4.74-1.98 8.7-7.21 10.37-6.29 2.02-15.13.39-21.65.25a867.08 867.08 0 01-49.33-2.44c-3.94-.3-10.26.22-13.37-3.05-3.7-3.9-2.32-12.06-2.28-16.72.07-8.18.4-16.35.7-24.53l.89-24.36c.23-6.36-1.8-26.1.89-32.07 1.68-3.74 9.76-10.03 13.5-10.53C24.67 12.93 49.1-.19 57.02.22c17.46.9 34.21 15.64 51.56 17.82l-1.7 26.5z" fill="#471180" mask="url(#d)"/></g><path d="M329.37 210.04c-2.72 22.6-5.62 45.2-12.23 67.05-.65 2.13 2.68 3.04 3.33.92 6.7-22.15 9.6-45.07 12.35-67.97.26-2.2-3.19-2.18-3.45 0" fill="#1E3255"/><path d="M150.05 159.05c2.38 0 3.91 1.76 4.34 3.9.79.58 1.42 1.4 1.76 2.4a34.5 34.5 0 002.36 5.06l.43-1.15-.51-7.03-4.22-16.42-4.35-12.17-2.2-6.85-2.96-4.12-4.6-1.03-3.98 1.06-8.99 3.11-5.03 2.75-.65 5.39 2.76 12.59 1.93 7.95 3.87 11.78L133 174l5.12 4.32 3.58-.58 5.06-.95 1.35-.48a76.16 76.16 0 01-2.5-12.81c-.25-2.4 2.24-4.44 4.44-4.44" fill="#FFF"/><path d="M148.7 174.46a51.9 51.9 0 01-10.14 1.88c-3.56.29-3.86-2.1-5.15-5.82a346.5 346.5 0 01-8.37-28.06c-.1-.37-1.11-4.1-1.41-6.1-.34-2.22-1.13-5.34.8-7.29 1.2-1.2 4.33-2.28 5.9-2.69 4.84-1.26 10.6-2.98 12.72-1.86 2.17 1.15 2.45 1.99 3.73 5.71a364.44 364.44 0 018.37 28.06c.1.37 1.68 4.9 1.98 6.9.3 1.97.83 3.6-.44 5.32.55 1.58 1.2 3.12 1.98 4.6 2.26-1.63 3.3-4.04 2.46-8.39-2.38-12.19-6.64-24.3-9.9-36.3-.12-.4-2.37-5.98-3.66-7.88-3.83-5.65-12.76-1.86-17.67-.25-5.56 1.82-12.37 3.87-10.83 11.74 2.38 12.19 10.22 36.98 10.47 37.18.82 2.61 1.8 5.1 3.08 7 3.65 5.38 12.65 1.83 17.77.2a42.73 42.73 0 01-1.68-3.95" fill="#471180"/><path d="M142.8 134.91c-3.13-2.54-8.05-2.81-11.11.06a6.94 6.94 0 00-1.42 8.33 7.6 7.6 0 005.41 4.9c3.74.85 7.73-.87 9.24-4.21a7.7 7.7 0 00-2.12-9.08" fill="#FF00A5"/><path d="M139.18 137.4c-.75 1.5-1.52 3-2.32 4.46l-.02.02c-.61-.37-1.41-.65-1.97-.98-1.44-.86-2.74 1.38-1.3 2.23 1.4.84 3.84 2.73 5.08.81 1.07-1.64 1.89-3.5 2.77-5.24.74-1.49-1.5-2.8-2.24-1.3" fill="#FFF"/><path d="M133.5 156.6c5.4-1.15 10.72-2.64 16.08-4.03 1.6-.42.92-2.92-.7-2.5-5.34 1.4-10.67 2.88-16.08 4.04-1.62.35-.93 2.85.7 2.5M134.8 161.67c4.67-1 9.34-2.06 13.97-3.23 1.6-.41.93-2.91-.7-2.5-4.62 1.18-9.28 2.23-13.95 3.23-1.63.35-.94 2.85.69 2.5M145.47 162.81c.02-.1.07-.2.1-.3-3.23.83-6.47 1.63-9.73 2.33-1.63.35-.94 2.85.69 2.5 2.9-.63 5.78-1.33 8.65-2.05 0-.83.15-1.66.29-2.48" fill="#333"/><path d="M149.41 173.78c-1-2.8-1.97-5.99-2.07-9-.08-2.8.8-4.98 3.76-3.46 1.45.74 2.23 2.35 2.92 3.77 2.26 4.66 2.63 9.43 5.87 13.72 1.32 1.75 4.32.03 2.98-1.74-2.92-3.87-3.47-8.1-5.28-12.42-1.32-3.16-3.39-6.66-7.03-7.36-9.74-1.87-6.11 12.85-4.47 17.41.74 2.08 4.08 1.18 3.32-.92" fill="#1E3255"/></g></svg>