<svg width="570" height="320" xmlns="http://www.w3.org/2000/svg" xmlns:xlink="http://www.w3.org/1999/xlink"><defs><path id="a" d="M.52.45h294.32V202.4H.52z"/><path id="c" d="M.78.09h88.5v106.05H.78z"/></defs><g fill="none" fill-rule="evenodd"><path d="M438.37 155.16c-1.42-12.94-3.38-26.32-10.18-37.69-3.26-5.46-7.58-10.55-13.5-13.13-.23-.1-.47-.2-.72-.27a9.46 9.46 0 00-.68-.32c-7.06-2.96-14.5-3.1-22.04-3.3a1573.95 1573.95 0 00-68.76-.28c-30.18.53-60.39 1.8-90.48 4.17-14.09 1.12-28.25 3.12-40.77 10.1-10.81 6.04-19.77 15.1-26.52 25.4-7.3 11.15-11.84 24.07-14.09 37.15a151.38 151.38 0 00-1.26 41.5c1.4 13.1 4.4 25.95 10.28 37.8a74.28 74.28 0 0024.82 28.34c20.4 13.92 46.6 17.94 70.81 17.6 7.45-.1 14.92-.75 22.24-2.14 6.8-1.29 13.3-3.45 19.66-6.18 11-4.73 21.07-11.3 31.3-17.46a199.75 199.75 0 0115.59-8.64c1.29-.62 2.59-1.23 3.9-1.8l.73-.33.23-.09c.8-.31 1.59-.63 2.39-.93 2.66-1 5.38-1.88 8.14-2.57a65.82 65.82 0 016.94-1.36l1.62-.17c3.7-.34 7.42-.4 11.14-.41 7.02 0 14.07.23 21.05-.67 6.7-.86 13.25-2.47 19.2-5.78a34.39 34.39 0 0013.61-13.85c2.99-5.63 4.57-11.81 5.43-18.1.98-7.13 1.39-14.34 1.62-21.55.5-15.03-.07-30.1-1.7-45.04" fill="#CEDBF2 "/><path d="M168.28 157.9l-.18.4.18-.4" fill="#6D8BFF"/><g transform="translate(147.58 100.65)"><mask id="b" fill="#fff"><use xlink:href="#a"/></mask><path d="M79 109.88c.59 1.61 1.8 2.43 3.43 2.38 1.8-.07 3.05-1.17 3.68-3.18 1.27 1.21 2.62 1.7 4.08 1.46.72-.12 1.34-.41 1.82-.86.24.74.46 1.48.67 2.2 1.56 5.48 2.65 11.19 3.7 16.71.26 1.33.5 2.65.77 3.97H67.97c.98-4.88 2.17-9.9 3.55-14.93l.25-.9c.6-2.2 1.23-4.5 1.98-6.7.37.36.8.64 1.26.8 1.4.53 2.78.2 3.98-.95zm11.4-2.04c-.26.3-.67.4-1.21.32-1.28-.2-2.08-1.42-2.83-2.56-.3-.45-.85-.66-1.36-.5-.51.14-.85.58-.87 1.12-.04 1.62-.2 3.38-1.68 3.63-.4.07-.7 0-.93-.2-.33-.32-.7-1.12-.5-3.15.06-.54-.31-1.02-.9-1.18a1.38 1.38 0 00-.36-.05c-.44 0-.81.23-.98.62l-.05.11c-.5 1.13-1.11 2.52-2.35 2.63a1.21 1.21 0 01-1.28-.76c-.19-.43-.16-.91.09-1.56l.6-1.3a9.47 9.47 0 015.7-4.6c1.97-.59 3.9-.4 5.44.5 1.47.87 2.43 2.5 3.18 3.97l.42.9.07.18c.22.78.14 1.5-.2 1.88zm24 8.41c.59 1.62 1.8 2.46 3.43 2.39 1.8-.08 3.06-1.17 3.68-3.19 1.27 1.22 2.6 1.7 4.08 1.46.72-.11 1.34-.4 1.82-.86 1.48 4.5 2.44 9.23 3.38 13.88l-.07.04-.47.25c-4.77 2.35-10.17 2.35-15.42 2.34H104.76c1.15-4.94 2.3-9.25 3.5-13.16.29-.95.6-1.91.95-2.94.36.34.77.6 1.2.76 1.41.52 2.78.19 3.98-.97zm11.4-2.03c-.25.3-.66.4-1.21.32-1.28-.2-2.08-1.42-2.82-2.56-.3-.46-.85-.66-1.37-.51-.51.14-.85.59-.86 1.12-.05 1.63-.21 3.38-1.7 3.64-.39.07-.7 0-.92-.21-.33-.31-.69-1.1-.49-3.14.05-.54-.32-1.03-.91-1.18a1.45 1.45 0 00-.35-.05c-.44 0-.82.23-1 .62l-.04.11c-.5 1.12-1.1 2.52-2.35 2.63a1.22 1.22 0 01-1.28-.77c-.18-.4-.16-.87.06-1.46l.29-.7.08-.19c.32-.72.64-1.28.98-1.77 2.03-2.84 6.82-4.7 10.2-2.95 2 1.04 3.19 3.39 3.88 5l.01.17c.22.78.14 1.5-.2 1.88zm36.93-43.73v19.36c-1.91.89-3.7 1.97-5.3 3.22V65.56a133.2 133.2 0 005.3 4.93zm18.9-32.17c-2.5.03-5 .06-7.5.07a1.21 1.21 0 00-.59-.25c-1.54-.89-3.07-1.84-4.56-2.76l-.19-.11 4.5-.06c4.96-.07 10.1-.14 15.14 0l3.44 2.1 1.53.95c-3.94-.05-7.91 0-11.77.06zm-15.86 6l.18-7.98 1.84 1.13c1.42.88 2.88 1.78 4.35 2.63l-.1 10.13-.07 8.42a133.6 133.6 0 01-3.02-2.33c-1.1-.86-2.23-1.75-3.38-2.59.05-3.14.12-6.27.2-9.41zm30.25 43.37l-2.74-.03.03-10.73c0-.65-.53-1.2-1.2-1.2l-6.31-.1h-.02a1.21 1.21 0 00-1.19 1.2l-.03 10.76-8.91-.1c-2.71-.05-5.36-.03-8.02.62-.78.2-1.6.44-2.5.76V71l8.63-8.96c3.08 0 6.16-.02 9.24-.04 4.27-.02 8.69-.05 13.04-.03 0 2.27 0 4.55-.02 6.82L196 79.86c0 2.6 0 5.22.02 7.83zm.03-28.13c-4.37-.03-8.8 0-13.1.03-2.86.02-5.73.04-8.59.04l.1-9.5c.01-3.12.04-6.23.08-9.34 2.38-.01 4.76-.04 7.14-.08 4.66-.06 9.48-.13 14.22-.01.14 6.9.15 13.66.15 18.86zm-24.75 1.56l-7.14 7.42c-2.2-1.94-4.33-3.99-6.14-5.77 1.97-2.06 4.24-4.46 6.43-6.9 1.08.8 2.16 1.65 3.2 2.47 1.18.93 2.4 1.88 3.65 2.78zm19.6 17l-.02 9.53-1.44-.02c-.82 0-1.65 0-2.48-.02l.03-9.56 3.92.06zm51.9 1.53l-.03 7.76-3.91.07.02-7.89 3.92.06zm-2.25-36.97V38.4c1.5-.02 2.98-.06 4.47-.1 1.8-.04 3.66-.09 5.5-.1.66 1.1 1.29 2.23 1.9 3.33l.7 1.28-4.37-.06c-2.1-.04-4.25-.08-6.4-.08l-1.8.01zm13.47 44.5l-8.85.18.04-8.9c0-.64-.54-1.18-1.2-1.2l-6.32-.09a1.22 1.22 0 00-1.2 1.2l-.03 9.15c-3.02.05-6.05.08-9.07.11-.06-8.19-.03-16.5 0-24.56v-4.44l.08-21.51.06-13.6c0-1.75.02-3.5 0-5.25l10.3-.1c.35 8.65.35 17.33.31 25.47 0 .11.02.2.05.3.01.32.13.63.34.84.21.2.49.31.8.31h.04c3.06-.06 6.19 0 9.21.05 1.86.04 3.72.08 5.58.09.07 6.36 0 12.84-.07 19.1a1196.1 1196.1 0 00-.07 22.84v.01zm-33.38-60.35c0-4.03 0-8.19.23-12.27.82.72 1.68 1.4 2.51 2.07.6.47 1.18.94 1.75 1.42.06 4.65.02 9.38-.02 13.95l-.03 4.67-4.45-5.71.01-4.13zm2.68-13.32a1030.3 1030.3 0 008.18-.16c.6-.02 1.22-.04 1.8 0 .83.08 1.15.4 1.73 1l.14.14 1.25 1.3-3.81.03-6.32.06h-.03l-1.2-.97-1.74-1.4zm-12.64 46.97c.41-.42.95-.63 1.64-.63h.02c.93 0 1.57.63 1.72 1.24.16.64.17 1.38.18 2.09l.01.78.1 2.4h-4.54v-.03c-.11-1.84-.28-4.63.87-5.85zm-3.3 5.49l.03.4h-3.33c.11-3.36.14-6.82.09-10.3a1086 1086 0 0016.07.12c.05 3.45.02 6.86-.09 10.14l-3.39.02v-.95c0-1.68 0-3.6-.53-5.15-.63-1.86-1.94-2.8-3.89-2.8-1.61 0-3.2.91-4.12 2.39-1.1 1.73-.95 4.07-.83 6.13zm-5.7.4H201l-2.6.02v-10.4l1.98.03c.46 0 .92 0 1.39.02.05 3.52.02 7-.1 10.34zm20.96-10.17H225L225 66.27l-1.74.02h-.7c.11-3.27.14-6.66.09-10.1zm-4.57-8.38a510.4 510.4 0 006.99-7.6l-.02 7.84-.02 5.74h-3.46a1.24 1.24 0 00-.27 0c-8.53 0-16-.07-22.9-.21v-1.07-3.02a.71.71 0 00.1-.11c1.77-2.11 3.71-4.12 5.6-6.07 1.57-1.62 3.2-3.3 4.71-5.04a169.6 169.6 0 013.27 4.16c1.37 1.78 2.78 3.63 4.27 5.37.2.22.5.36.82.36.36-.03.69-.12.9-.35zm-.8-2.67c-1.3-1.55-2.54-3.17-3.75-4.74l-.8-1.04c1.53-1.4 3.02-2.86 4.47-4.28.69-.67 1.37-1.34 2.07-2l4.17 5.35c-1.99 2.2-4.06 4.46-6.17 6.71zm-6.61 38.8v.59a87 87 0 00-.01 3.2c-3.42 0-6.83 0-10.25-.02l-1.97-.01c-.05-6.21-.05-12.5-.04-18.92 3.32-.02 6.64-.02 9.97-.02 5.45 0 11.07 0 16.62-.1l-.02 5.56c0 4.4 0 8.95.03 13.43l-6.8.04c0-.48.02-.98.04-1.48.04-1.28.09-2.6-.07-3.85-.24-1.78-2.11-1.73-3.33-1.7l-.62.01c-1.15 0-2.89.01-3.37 1.37-.2.58-.2 1.29-.18 1.9zm2.41.15l.02-.31a6 6 0 00.02-.61v-.06c.31-.06.77-.05 1.1-.04a11.3 11.3 0 001.56-.08l.01 4.72h-1.11l-1.62.01v-.03c-.02-1.29 0-2.47.02-3.6zm-5.82-47.69a136.95 136.95 0 01-4.9 5.28c-1.32 1.37-2.69 2.8-4 4.24a414.2 414.2 0 00-.05-5.5c1.11-1.3 2.3-2.58 3.44-3.82.98-1.05 1.98-2.14 2.95-3.24l2.56 3.04zm63.25 49.95c.33-4.31.66-8.94.82-13.57.02-.5-.25-.92-.7-1.1a.56.56 0 00-.1-.09c-1.18-.95-3.18-2.81-3.35-4.62-.07-.64.16-1.53.64-1.91.25-.2.53-.23.86-.11 1.08.37 1.56 2.14 1.85 3.2.32 1.15.52 2.25.58 3.26.06.8.75 1.16 1.36 1.14.66-.05 1.09-.53 1.04-1.19-.09-1.35-.38-3.9-1.34-5.93l.02-.1c.02-.6.3-1.17.7-1.47.32-.24.69-.3 1.1-.2.63.16.9 1 1.07 1.71a17.94 17.94 0 00-1.38 6c-.05.65.38 1.13 1.05 1.18.2.01.41-.02.6-.1-.04.13-.05.28-.05.43.25 4.43.6 8.91 1.05 13.34.02.17.07.33.15.48l-2.6.05-3.5.06c.08-.14.12-.3.13-.46zm5.66-24.03a3.17 3.17 0 00-2.34-1.08h-.08c-.83 0-1.59.23-2.23.68.07-1.36.4-2.84 1.18-3.51.35-.3.78-.4 1.29-.32.76.14 1.48 1.02 1.85 1.82.35.74.38 1.67.33 2.4zm2.68 2.56c.18 0 .35.06.5.17.32.23.57.71.65 1.23-.01.12 0 .23.02.29.01.2 0 .36-.02.5-.27 1.66-2.34 3.3-3.7 4.37l-.2.15-.06.05.04-.23c.07-1.06.27-2.2.6-3.37.28-.96.84-2.94 1.99-3.14l.18-.02zm2.74-.9a3.23 3.23 0 00-2.4-1.46c.27-.7.55-1.21.9-1.6.33-.36.8-.56 1.24-.51.31.03.56.2.73.5.56.97.1 2.15-.47 3.07zm-1.4 7.2c1.3-1.35 2.02-2.62 2.18-3.85.67-.64 2.29-2.12 3.43-2.08.28.02.52.15.7.38.52.64.16 1.94-.31 2.55-.7.91-2.06 1.52-3.16 2.01l-.13.06c-.85.38-1.76.7-2.7.93zm-13.42.1c-1.08-.25-2.11-.6-3.1-1.03l-.13-.06c-1.09-.5-2.44-1.1-3.14-2-.48-.62-.84-1.92-.32-2.56.19-.23.42-.36.7-.38 1.19-.08 2.85 1.53 3.52 2.17.06.06.13.1.15.1a7.5 7.5 0 00.46.4 8.57 8.57 0 001.86 3.35zm-1.59-6.52c-.74-.97-1.05-1.9-.92-2.77.05-.36.22-.65.47-.82.23-.15.53-.2.86-.12.76.18 1.38.9 1.85 1.6-1 .27-1.8 1.01-2.26 2.1zm29.5 22.16c-.21-.35-.6-.57-1-.54-4.42.06-8.83.15-13.24.24l-1.76.04c.05-.15.07-.32.05-.5-.4-3.94-.72-8.03-.97-12.16 2.5-.2 5-.93 7.26-2.12 1.63-.85 3.22-1.9 3.83-3.76.6-1.79.28-4.1-1.8-4.97a3.6 3.6 0 00-2.53-.07c.43-1.66.11-3.08-.94-4.12a3.63 3.63 0 00-4.48-.35c-.34.23-.65.52-.95.88-.65-2.27-2.12-3.65-4.1-3.8-1.12-.1-2.1.22-2.9.92-1.02.9-1.71 2.48-1.94 4.4a5.77 5.77 0 00-3-2.28 3.47 3.47 0 00-3.9 1.59c-.45.81-.6 1.72-.46 2.69-.82-.2-1.6-.16-2.3.14-2.1.87-2.41 3.19-1.82 4.97.62 1.86 2.2 2.91 3.83 3.76 2.28 1.2 4.8 1.93 7.3 2.13-.17 4.52-.5 8.93-.75 12.3-.01.2.02.39.09.55l-11.77.26c-.08-10.12 0-20.4.07-30.35l.06-8.36c.01-1.25.02-2.5 0-3.76 0-.2-.04-.37-.14-.54.02-.25-.03-.48-.16-.7-.54-.87-1.02-1.82-1.5-2.74a30.03 30.03 0 00-2.5-4.24c-.53-.71-1.3-.68-1.97-.65l-.38.01c-1.12.01-2.24.04-3.36.07l-1.02.02c-1.66.04-3.31.09-4.96.1-.02-7.51-.12-13.29-.35-18.68 0-.14-.04-.28-.09-.4.05-.35-.05-.67-.28-.94a74.52 74.52 0 00-3.49-3.7c-1.32-1.33-2.51-1.3-4.21-1.31h-.12c-1.79.01-3.58.05-5.37.09-2.1.05-4.25.1-6.37.1H220.13l-.03.01c-.3.04-.54.16-.72.36-.47.17-.76.55-.8 1.05-.36 4.65-.35 9.42-.34 14.02v4.14c-.95.9-1.88 1.8-2.8 2.71a195.23 195.23 0 01-4.2 4.03c-.51-.63-1.02-1.26-1.54-1.87l-4.13-4.9c-.2-.24-.52-.37-.87-.37-.36 0-.67.13-.87.36a105.5 105.5 0 01-3.85 4.3c-.86.93-1.75 1.89-2.6 2.85-1.46-.84-2.92-1.74-4.32-2.61-1.23-.76-2.46-1.52-3.7-2.26-.2-.11-.42-.16-.63-.15-5.07-.16-10.23-.08-15.22 0-2.79.03-5.67.07-8.5.08-.3 0-.56.1-.77.29-.4.23-.65.7-.63 1.1l-.03.16c-.04 3.3-.13 6.64-.2 9.88-.09 3.13-.16 6.26-.21 9.38-2.45 2.75-5.01 5.44-7.63 8.18-.24.24-.35.55-.33.87-.12.2-.18.39-.18.61v31.84l-.13.14-.55.56c-3.16 3.5-5.08 7.87-6.94 12.1l-.39.89c-3.17 7.2-7.32 15.13-14.06 19.72-.92-4.56-1.97-9.68-3.65-14.47-1.15-3.27-2.63-6.92-5.57-8.81-3.65-2.35-8.72-1.06-11.84 1.42-1.2.95-2.2 2.24-3.04 3.94l-.04.08-.01.02-.02.03c-.72 1.46-1.25 3.04-1.76 4.56l-.14.4a177.9 177.9 0 00-4.59 16.74v.03h-2.7c-.3-1.5-.6-3-.88-4.5-1.02-5.32-2.08-10.83-3.54-16.15l-.07-.26c-1.17-4.26-2.63-9.57-6.31-12.36a8.48 8.48 0 00-6.45-1.48 11.95 11.95 0 00-7.68 4.4c-.48.63-.9 1.4-1.35 2.4a75.37 75.37 0 00-3.17 9.07 207.08 207.08 0 00-4.6 18.9l-.96.04c-2.03.06-4.11.13-6.03-.23-1.36-.25-2.23-.79-2.7-1.65-.52-1-.57-2.21-.61-3.39l-.03-.63a457.39 457.39 0 01-.59-27.35c.02-2.81.07-5.73.14-8.67l3.13.03c9.38.1 19.07.2 28.62.2h.9c12.18-.01 24.45-1.38 31.66-11.24 6.8-9.32 6.44-21.77 6.1-32.75v-.5c-.09-2.6-.16-5.2-.23-7.8-.28-10.4-.56-21.18-1.4-31.74-.14-1.78-.3-3.55-.46-5.32-.04-.45-.3-.82-.71-1a1.3 1.3 0 00-1.27.08c-.31.22-.46.57-.42.98 1.23 13.18 1.59 26.7 1.9 38.64.05 1.67.12 3.38.2 5.11.42 10.16.85 20.66-3.67 29.62a22.19 22.19 0 01-12.01 10.86C101.58 88 95.5 88.4 90.29 88.5c-4.88.09-9.85.03-14.66-.03-1.98-.03-3.96-.06-5.94-.07l-24.71-.19-43.28-.33h-.01c-.43 0-.79.2-1 .55a1.3 1.3 0 000 1.29c.2.36.57.56 1 .57a63380.02 63380.02 0 0149.44.38l1.24.01c-.34 13.3-.18 25.4.5 36.98.12 2.2.44 4.67 2.6 6.1 1.86 1.23 4.23 1.22 6.34 1.2h23.24c.06 2.87.16 5.78.26 8.6l.2 6.09.07 3.26.05 2.18c.04 1.76.13 3.61.79 5.3.86 2.25 2.43 2.85 4.84 3.14 1.12.14 2.26.18 3.36.22 1.24.05 2.52.1 3.75.27.7.1 1.43.21 1.93.68.56.53.96 1.3 1.27 1.97 1.93 4.26 1.99 9.54 2.04 14.2l.01.72c.05 3.8-.07 7.64-.18 11.37-.08 2.7-.17 5.51-.19 8.27 0 .43.2.8.55 1a1.29 1.29 0 001.28 0c.36-.2.57-.56.57-1 .02-2.73.11-5.52.2-8.22.08-2.95.18-6 .19-9.01.01-5.1.03-10.88-1.5-16.12-.43-1.48-1.18-3.62-2.67-5.01-1.32-1.22-3.4-1.32-5.08-1.4l-.51-.03c-.55-.03-1.13-.04-1.71-.05-1.7-.02-3.47-.04-4.95-.63-.97-.39-1.21-1.79-1.39-2.85-.23-1.39-.24-2.85-.25-4.27v-1.46c-.07-2.81-.17-5.67-.27-8.44-.1-2.88-.2-5.85-.26-8.78h13.11l5.62.03c4.23.02 8.6.05 12.89-.07 6.18-.17 10.87-1.44 14.78-4 3.5-2.3 6.62-5.56 9.53-9.98 2.81-4.28 4.96-9.13 6.68-13.02 2-4.51 4.28-9.19 8.22-12.43 4.42-3.64 9.71-5.64 14.9-5.64h.1c3.33.02 6.66.06 10 .11a1836.47 1836.47 0 0058.7-.13l1.56-.03c.29.1.6.1.89-.02 5.61-.1 11.22-.24 16.83-.36 8.41-.2 17.1-.39 25.66-.52l6.75-.1c.44-.01.8-.22 1-.59.23-.4.22-.9 0-1.28z" fill="#FFF" mask="url(#b)"/></g><path d="M346.56 243.47c-.74-.96-1.05-1.89-.92-2.76.05-.36.22-.65.47-.82.16-.1.35-.16.55-.16.1 0 .2.01.3.04.77.18 1.39.89 1.86 1.59-1 .28-1.8 1.02-2.26 2.11m-1.5 5.5l-.14-.07c-1.09-.49-2.44-1.1-3.14-2-.48-.61-.84-1.91-.32-2.55a.96.96 0 01.79-.38c1.16 0 2.78 1.55 3.43 2.17l.15.1a11.99 11.99 0 00.46.39 8.55 8.55 0 001.86 3.36c-1.07-.24-2.11-.58-3.09-1.02m12.4 1.15c.07-1.05.28-2.19.6-3.37.28-.95.84-2.93 2-3.13a1 1 0 01.17-.02c.19 0 .35.05.5.16.33.24.57.72.65 1.23 0 .12 0 .24.02.3.01.2 0 .36-.01.49-.28 1.67-2.35 3.3-3.71 4.38l-.2.15-.06.05.04-.24m.1-9.09a3.18 3.18 0 00-2.35-1.08h-.07c-.84 0-1.6.24-2.23.68.06-1.35.39-2.84 1.17-3.5.36-.3.78-.4 1.29-.32.76.14 1.48 1.01 1.86 1.82.34.74.38 1.67.32 2.4m5.42 1.67a3.27 3.27 0 00-2.39-1.46c.26-.71.54-1.22.9-1.61.32-.35.8-.55 1.23-.5.31.03.57.2.73.5.56.97.1 2.14-.47 3.07m-1.4 7.2c1.31-1.35 2.03-2.62 2.18-3.85.66-.62 2.23-2.08 3.35-2.08h.08c.29.02.52.14.7.38.52.64.16 1.94-.31 2.55-.7.9-2.06 1.52-3.16 2l-.12.07c-.86.38-1.77.7-2.71.93m6.84-8.04a3.6 3.6 0 00-2.52-.06c.44-1.66.12-3.08-.94-4.13a3.64 3.64 0 00-4.47-.35 4.4 4.4 0 00-.95.89c-.66-2.28-2.13-3.65-4.1-3.8-1.14-.1-2.1.21-2.9.91-1.03.91-1.72 2.49-1.95 4.42a5.76 5.76 0 00-3-2.3 3.46 3.46 0 00-3.9 1.6c-.45.8-.6 1.71-.46 2.69-.82-.2-1.6-.16-2.3.13-2.1.88-2.41 3.2-1.82 4.98.65 1.95 2.32 2.96 3.83 3.76 2.28 1.2 4.8 1.93 7.31 2.13-.15 4.06-.4 8.3-.76 12.95-.03.42.13.77.45.98.2.14.44.2.69.2.2 0 .4-.04.58-.12.4-.2.65-.56.68-1.01.41-5.29.68-9.94.82-14.24.02-.5-.25-.9-.7-1.08a.58.58 0 00-.1-.1c-1.17-.95-3.18-2.82-3.35-4.62-.06-.64.16-1.53.65-1.91.24-.2.52-.23.85-.12 1.08.38 1.56 2.14 1.86 3.2.31 1.15.5 2.24.58 3.26.03.45.27.82.67 1.01.41.2.91.18 1.27-.06.32-.22.48-.57.46-.99a17.7 17.7 0 00-1.34-5.94l.01-.1c.02-.58.3-1.16.7-1.46.32-.24.69-.3 1.1-.2.63.16.9 1 1.07 1.7a17.88 17.88 0 00-1.38 6c-.03.42.13.77.45.99.35.23.81.26 1.2.1-.03.13-.05.28-.04.43.17 3.04.5 6.12.81 9.09l.24 2.27c.08.78.78 1.2 1.42 1.12.64-.07 1.04-.55.98-1.19l-.22-2.07c-.28-2.66-.57-5.4-.75-8.1 2.5-.2 5-.94 7.25-2.12 1.63-.85 3.22-1.9 3.84-3.76.59-1.79.27-4.1-1.82-4.98M238.14 132.95c.07-1.13.3-2.33.65-3.58.29-1 .88-3.11 2.14-3.31.06-.02.13-.02.19-.02.2 0 .4.06.56.19.35.26.62.78.7 1.34 0 .12 0 .23.02.28.01.24 0 .42-.02.57-.16.9-.98 1.79-1.65 2.52-.71.76-1.54 1.52-2.46 2.25-.09.07-.16.15-.23.25l-.04.02c.08-.15.13-.32.14-.5m4.2-.13c1.46-1.48 2.26-2.86 2.42-4.19.75-.72 2.43-2.26 3.63-2.22.32.02.58.15.8.4.6.7.2 2.12-.32 2.8-.77.96-2.32 1.66-3.5 2.18-.96.44-1.98.78-3.04 1.03m1.66-7.57a3.4 3.4 0 00-2.6-1.59 5.2 5.2 0 01.98-1.77 1.6 1.6 0 011.32-.57c.24.02.58.12.82.5.7 1.1.07 2.5-.52 3.43m-5.67-1.73a3.29 3.29 0 00-2.48-1.2h-.08c-.91 0-1.73.26-2.4.76.06-1.47.41-3.17 1.3-3.89.39-.32.85-.42 1.42-.29 1.95.44 2.33 2.9 2.24 4.62m-9.74 9.39a17.32 17.32 0 01-3.46-1.14c-1.13-.5-2.68-1.2-3.44-2.17-.53-.67-.92-2.09-.32-2.78.21-.26.47-.39.8-.4 1.23-.05 2.94 1.56 3.7 2.3l.16.09a9.37 9.37 0 00.5.43 9.04 9.04 0 002.06 3.67m-1.72-10.95c.13 0 .26.02.4.06.81.23 1.46 1 1.96 1.75a3.65 3.65 0 00-2.45 2.31c-.84-1.05-1.2-2.08-1.05-3.04.06-.4.25-.72.53-.91.18-.12.38-.17.6-.17m-3.79 11.48a19.9 19.9 0 007.63 2.18c-.2 4.77-.53 9.43-.8 12.98-.03.42.12.77.44.98a1.35 1.35 0 001.27.07c.4-.19.65-.55.69-1 .35-4.54.7-9.41.86-14.27.02-.5-.25-.91-.71-1.09a.61.61 0 00-.1-.1c-1.26-1.01-3.38-2.99-3.56-4.9-.06-.69.18-1.65.7-2.06.27-.22.57-.26.94-.14 1.17.38 1.71 2.33 2 3.38.34 1.22.55 2.39.63 3.47.03.45.27.82.66 1.01.42.2.92.18 1.28-.06.32-.22.48-.57.46-.99-.1-1.43-.4-4.11-1.41-6.24l.01-.1c.03-.64.33-1.27.77-1.6.35-.26.75-.33 1.2-.21.7.18 1 1.08 1.18 1.85a18.74 18.74 0 00-1.46 6.3c-.05.66.39 1.14 1.05 1.18.26.02.52-.03.74-.16-.08.17-.11.36-.1.57.26 4.65.63 9.37 1.1 14.02.08.78.8 1.17 1.43 1.12.64-.06 1.04-.55.97-1.18a312.5 312.5 0 01-1.02-12.83c2.6-.2 5.2-.96 7.57-2.18 1.6-.83 3.36-1.88 4.06-3.89.68-1.93.27-4.34-1.83-5.23a3.81 3.81 0 00-2.72-.05c.49-1.78.16-3.3-.99-4.4a3.75 3.75 0 00-4.63-.3c-.37.26-.7.58-1 .98-.67-2.39-2.17-3.85-4.2-4.06a3.9 3.9 0 00-3.07.92c-1.44 1.25-1.92 3.38-2.07 4.78-.76-1.05-1.83-2.17-3.28-2.53a3.58 3.58 0 00-4 1.73 4.4 4.4 0 00-.42 2.81 3.74 3.74 0 00-2.5.12c-2.1.89-2.5 3.3-1.83 5.23.7 2 2.47 3.06 4.06 3.89M181.94 164.92c.07-1.12.3-2.32.65-3.57.29-1.02.88-3.12 2.14-3.32l.18-.02c.21 0 .4.06.57.19.35.26.62.78.7 1.34 0 .11 0 .23.02.29.01.23 0 .41-.02.56-.16.91-1.01 1.83-1.65 2.52-.72.77-1.54 1.53-2.46 2.25-.09.07-.16.15-.23.25a.42.42 0 00-.04.02c.07-.14.12-.31.14-.5m4.2-.13c1.46-1.48 2.26-2.85 2.42-4.18.76-.73 2.42-2.3 3.63-2.22.32.01.58.15.8.4.59.7.2 2.11-.32 2.78-.77.98-2.32 1.67-3.5 2.2-.96.43-1.98.77-3.03 1.02m1.65-7.57a3.4 3.4 0 00-2.6-1.58c.29-.79.6-1.34.98-1.78a1.6 1.6 0 011.32-.57c.24.02.58.12.82.5.7 1.1.07 2.5-.52 3.43m-5.67-1.73a3.29 3.29 0 00-2.48-1.2h-.08c-.91 0-1.73.26-2.4.77.06-1.48.41-3.18 1.3-3.9.39-.32.85-.41 1.42-.28 1.94.44 2.33 2.89 2.24 4.61m-9.74 9.39a17.27 17.27 0 01-3.46-1.14c-1.13-.5-2.68-1.2-3.44-2.17-.53-.67-.92-2.09-.32-2.78a1.07 1.07 0 01.86-.4c1.24 0 2.9 1.58 3.65 2.3.06.05.12.08.15.09a9.37 9.37 0 00.5.43 9.08 9.08 0 002.06 3.67m-1.72-10.95c.13 0 .26.02.4.06.81.23 1.46 1 1.96 1.75a3.65 3.65 0 00-2.45 2.32c-.84-1.06-1.2-2.08-1.05-3.05.06-.4.25-.72.53-.9.18-.12.38-.18.6-.18m-3.79 11.48a19.9 19.9 0 007.63 2.19c-.2 4.75-.53 9.42-.8 12.97-.03.42.12.77.44.99a1.35 1.35 0 001.27.07c.4-.2.66-.56.69-1 .35-4.53.7-9.39.86-14.27.02-.51-.25-.92-.71-1.1a.57.57 0 00-.1-.1c-1.26-1.01-3.38-2.99-3.56-4.9-.06-.68.19-1.64.7-2.06.27-.21.57-.25.94-.14 1.17.38 1.71 2.34 2 3.39.35 1.22.55 2.39.63 3.46.05.8.7 1.18 1.34 1.15.67-.05 1.1-.53 1.06-1.19-.1-1.42-.4-4.11-1.41-6.23a.6.6 0 00.01-.1c.03-.65.33-1.27.77-1.6.35-.26.75-.33 1.2-.22.7.18 1 1.09 1.18 1.86a18.78 18.78 0 00-1.46 6.3c-.05.65.39 1.13 1.05 1.18.25.02.52-.04.75-.17-.09.17-.12.37-.11.58.26 4.65.63 9.36 1.1 14.01.05.46.31.82.73 1.01.42.2.92.16 1.26-.1.3-.21.45-.56.41-.97-.41-4.1-.76-8.42-1.02-12.83 2.6-.2 5.2-.95 7.57-2.18 1.6-.83 3.36-1.88 4.06-3.89.68-1.93.27-4.34-1.83-5.22a3.82 3.82 0 00-2.72-.06c.5-1.78.16-3.3-.99-4.4a3.75 3.75 0 00-4.63-.29c-.37.26-.7.58-1.01.97-.65-2.38-2.16-3.85-4.2-4.06a3.91 3.91 0 00-3.07.93c-1.43 1.25-1.9 3.37-2.06 4.78-.76-1.05-1.83-2.18-3.28-2.53a3.58 3.58 0 00-4 1.72 4.4 4.4 0 00-.42 2.81 3.75 3.75 0 00-2.5.13c-2.09.88-2.5 3.3-1.83 5.22.7 2.01 2.47 3.06 4.06 3.9M178.64 214.62c.08-1.12.3-2.33.65-3.58.29-1.01.89-3.11 2.14-3.32l.19-.01c.2 0 .4.06.57.18.35.26.6.79.7 1.34-.02.12 0 .23.01.29.02.23.01.42-.02.57-.16.9-.97 1.78-1.65 2.52-.72.77-1.52 1.51-2.46 2.25a1.1 1.1 0 00-.23.25c-.01 0-.03 0-.04.02.08-.15.13-.32.14-.51m4.2-.12c1.46-1.48 2.26-2.86 2.42-4.19.76-.72 2.4-2.3 3.64-2.22.31.02.57.15.79.4.6.7.2 2.12-.32 2.79-.76.97-2.31 1.66-3.5 2.2a17 17 0 01-3.03 1.02m1.65-7.57a3.39 3.39 0 00-2.59-1.59c.2-.59.5-1.25.97-1.78.34-.38.89-.6 1.32-.57.24.02.58.13.82.51.7 1.1.07 2.5-.52 3.43m-5.67-1.73a3.28 3.28 0 00-2.48-1.2h-.09c-.9 0-1.72.26-2.39.76.06-1.47.41-3.17 1.3-3.89.39-.32.86-.42 1.42-.3 1.95.45 2.33 2.9 2.24 4.63m-9.74 9.39a17.43 17.43 0 01-3.48-1.15c-1.12-.5-2.66-1.19-3.42-2.16-.51-.66-.9-2.1-.32-2.79.22-.25.48-.38.8-.4 1.27-.07 2.95 1.57 3.7 2.3.07.06.14.1.16.1a9.69 9.69 0 00.5.42 9.06 9.06 0 002.06 3.68m-1.72-10.96c.13 0 .26.03.4.06.81.23 1.46 1 1.96 1.76a3.65 3.65 0 00-2.45 2.31c-.84-1.06-1.2-2.08-1.05-3.04.06-.4.25-.73.54-.91.17-.12.38-.18.6-.18m-3.8 11.48c2.39 1.24 5.02 2 7.63 2.2-.19 4.75-.53 9.41-.8 12.97-.03.41.13.76.44.98.2.14.45.2.7.2.19 0 .4-.04.58-.13.4-.19.65-.56.68-1 .35-4.53.7-9.38.86-14.27.02-.5-.25-.92-.71-1.09a.59.59 0 00-.1-.1c-1.26-1.02-3.38-3-3.55-4.9-.07-.69.18-1.65.7-2.06.26-.21.57-.26.94-.14 1.17.38 1.7 2.33 2 3.38.34 1.22.55 2.39.62 3.47.05.8.72 1.19 1.35 1.14.66-.04 1.1-.53 1.05-1.18-.1-1.43-.4-4.11-1.41-6.24a.6.6 0 00.01-.1c.03-.64.33-1.27.77-1.6.35-.26.75-.33 1.2-.22.7.19 1 1.1 1.18 1.86a18.73 18.73 0 00-1.46 6.3c-.04.65.39 1.14 1.05 1.18.25.02.52-.04.75-.16-.08.16-.12.36-.11.57.26 4.65.63 9.37 1.1 14.02.08.78.81 1.2 1.43 1.12.64-.07 1.04-.55.97-1.19-.41-4.12-.76-8.43-1.02-12.82 2.6-.2 5.2-.96 7.57-2.19 1.6-.82 3.36-1.87 4.07-3.88.67-1.93.26-4.35-1.84-5.23a3.8 3.8 0 00-2.72-.06c.5-1.78.16-3.29-.98-4.4a3.75 3.75 0 00-4.64-.28c-.37.25-.7.57-1 .96-.66-2.38-2.17-3.84-4.2-4.05a3.89 3.89 0 00-3.07.92c-1.44 1.25-1.92 3.38-2.07 4.78-.76-1.05-1.83-2.18-3.28-2.53-1.6-.4-3.28.34-4 1.73a4.4 4.4 0 00-.42 2.8 3.74 3.74 0 00-2.5.13c-2.09.88-2.5 3.3-1.83 5.23.71 2 2.47 3.06 4.07 3.88M294.3 129.3c.08-1.13.3-2.33.65-3.58.29-1 .88-3.1 2.14-3.31l.19-.02c.2 0 .4.06.56.19.36.26.62.78.7 1.34 0 .11 0 .23.02.28.02.23.01.42-.02.57-.16.91-1 1.83-1.65 2.52-.72.77-1.52 1.51-2.46 2.25-.09.08-.16.15-.23.25l-.04.02c.08-.15.13-.32.14-.5m4.2-.13c1.46-1.48 2.26-2.85 2.42-4.19.76-.72 2.41-2.24 3.64-2.21.31.01.57.15.79.4.6.7.2 2.11-.32 2.78-.76.97-2.3 1.66-3.5 2.2-.96.43-1.98.77-3.03 1.02m1.65-7.57a3.4 3.4 0 00-2.59-1.58c.28-.79.58-1.35.97-1.78.34-.39.85-.62 1.32-.57.24.02.58.12.82.5.7 1.1.07 2.5-.52 3.43m-5.67-1.73a3.29 3.29 0 00-2.48-1.2h-.08c-.9 0-1.73.26-2.4.77.06-1.48.41-3.18 1.3-3.9.39-.32.86-.42 1.42-.29 1.95.44 2.33 2.9 2.24 4.62m-9.74 9.39a17.4 17.4 0 01-3.48-1.14c-1.12-.5-2.66-1.2-3.42-2.17-.53-.67-.91-2.09-.32-2.78.21-.25.47-.39.8-.4h.06c1.24 0 2.9 1.58 3.65 2.29.06.06.13.1.15.1a9.37 9.37 0 00.5.43 9.08 9.08 0 002.06 3.67m-1.72-10.95c.13 0 .26.02.4.06.81.23 1.46 1 1.96 1.75a3.65 3.65 0 00-2.45 2.32c-.84-1.06-1.2-2.08-1.05-3.05.06-.4.25-.72.53-.9.18-.12.39-.18.6-.18m-3.79 11.48c2.4 1.24 5.02 2 7.63 2.19-.19 4.75-.53 9.42-.8 12.97-.03.42.13.77.44.99a1.35 1.35 0 001.27.07c.4-.2.66-.56.69-1.01.35-4.52.7-9.38.86-14.26.02-.51-.25-.92-.71-1.1a.6.6 0 00-.1-.1c-1.26-1.01-3.38-2.99-3.56-4.9-.06-.68.19-1.64.7-2.06.27-.21.58-.26.94-.14 1.18.38 1.72 2.34 2 3.38.35 1.23.56 2.4.63 3.47.05.8.7 1.17 1.35 1.15.66-.05 1.1-.53 1.05-1.19-.1-1.42-.4-4.11-1.41-6.23l.01-.11c.03-.64.33-1.27.77-1.6.35-.25.75-.32 1.2-.21.7.18 1 1.09 1.18 1.86a18.72 18.72 0 00-1.46 6.3c-.03.41.13.77.46.98a1.3 1.3 0 001.34.03c-.09.17-.12.36-.11.58.26 4.62.63 9.33 1.1 14.01.05.46.31.82.73 1.01.42.19.92.15 1.27-.1.3-.21.44-.56.4-.97a312.5 312.5 0 01-1.02-12.83c2.6-.2 5.2-.95 7.57-2.18 1.6-.83 3.36-1.88 4.06-3.89.68-1.93.27-4.34-1.83-5.22a3.82 3.82 0 00-2.72-.06c.5-1.78.16-3.3-.99-4.4a3.75 3.75 0 00-4.63-.29c-.37.26-.7.58-1 .97-.66-2.38-2.17-3.85-4.2-4.06a3.9 3.9 0 00-3.07.92c-1.44 1.26-1.92 3.38-2.07 4.79-.76-1.05-1.83-2.18-3.28-2.54a3.59 3.59 0 00-4 1.73 4.4 4.4 0 00-.42 2.81 3.73 3.73 0 00-2.5.13c-2.09.88-2.5 3.3-1.83 5.22.7 2.01 2.47 3.06 4.06 3.89M407.5 234.4c-3 .03-6.03-.02-9.02-.16v-1.14l4.47.08c1.52.03 3.03.06 4.55.07v1.15m1.2-3.54c-1.91 0-3.85-.04-5.72-.09-1.84-.04-3.74-.08-5.61-.08-.37 0-.68.14-.85.35-.29.23-.44.54-.44.92v3.43c0 .65.52 1.17 1.19 1.2a157.26 157.26 0 0011.43.2 1.22 1.22 0 001.2-1.19c.04-1.18.03-2.38 0-3.55a1.21 1.21 0 00-1.2-1.19M324.7 172.53l-.01 4H321.59v-4h3.1zm-.02 6.41v3.73h-3.1v-3.75h.31l2.8.02zm1.22-8.81h-5.5c-.66 0-1.2.55-1.2 1.2l-.03 12.55c0 .31.13.61.36.84.23.23.53.36.84.36h5.5c.3 0 .57-.1.77-.3l.09-.06a.33.33 0 00.05-.07c.2-.22.3-.48.3-.77l.02-12.55c0-.31-.13-.61-.35-.84a1.2 1.2 0 00-.85-.36zM330.9 269.9l-6.32-.1h-.02c-.3 0-.6.12-.82.34-.23.23-.37.54-.37.86l-.01 2.86c-.01 1.43-.02 2.33-.02 4.85 0 .76.6 1.17 1.2 1.17s1.2-.4 1.2-1.17c0-2.13.01-2.9.02-3.95l.01-2.54 3.92.06c0 .7-.01.8-.02.88l-.02 1.22c0 .43.2.8.56 1 .39.23.9.23 1.28 0 .36-.2.57-.57.57-1 0-1.15 0-1.4.02-1.63l.01-1.65c0-.65-.53-1.2-1.2-1.2M334.31 152.77l.02-2.78v-.32h4v3.1h-4.02zm-6.13-.01v-3.1h3.75v.44l-.02 2.67-3.73-.01zm-1.2-5.5c-.32 0-.62.12-.85.35-.23.23-.35.53-.35.85v5.5c0 .3.1.56.29.77l.07.09.06.04c.22.2.48.3.78.3l12.54.02a1.2 1.2 0 001.2-1.2v-5.5c0-.65-.55-1.2-1.2-1.2l-12.54-.02zM356.51 147.9l.08.29h-.57l.03-.21c.08-.39.16-.66.22-.84.06.15.14.39.24.76m-.35-3.37c-2.45.13-2.58 3.68-2.63 4.85-.01.44.18.72.35.87.23.21.58.33.92.29.1.03.2.05.33.05h2.8c.65 0 1.2-.54 1.2-1.2.03-.99-.23-3.15-1.36-4.24-.45-.45-1-.67-1.61-.62M353.3 175.99c-.53.03-1.07.06-1.58.03l.01-.53.01-.28a11.88 11.88 0 00.01-.92l.15.02.44.03 1.75.03c.34 0 .7 0 1.07-.02.5-.01 1.01-.03 1.49 0l.01.36.02.3.02.4.03.54c-.49.04-1.01.02-1.52.01a22.1 22.1 0 00-1.9.03m5.8-.88l-.05-.55v-.36c0-.83-.01-1.85-1.19-2.13-.82-.2-1.75-.16-2.65-.13-.38.02-.76.04-1.12.03l-2.16-.04-.31-.01a3.73 3.73 0 00-.74 0 1.08 1.08 0 00-.79.32l-.05.05c-.73.68-.72 1.71-.71 2.62v.5l-.01.22c-.03.94-.07 2.38 1.25 2.69.46.11.96.15 1.48.15.5 0 1-.04 1.5-.07l1.16-.06 2.12-.05c.5-.02 1.2.06 1.7-.33.76-.6.65-1.9.56-2.85M364.76 175.99c-.53.03-1.08.06-1.59.03 0-.18 0-.36.02-.53v-.28a11.88 11.88 0 00.01-.92l.16.02.4.03 1.78.03c.34.01.7 0 1.08-.02.5-.01 1-.03 1.48 0l.02.36.01.3.02.4.04.54c-.5.04-1.02.02-1.53.01a22.26 22.26 0 00-1.9.03m-2.73 2.33c.47.11.97.15 1.48.15.5 0 1-.04 1.5-.07l1.16-.06 2.12-.05c.5-.02 1.2.06 1.7-.33.77-.6.65-1.9.57-2.85-.02-.2-.04-.39-.04-.55v-.36c-.01-.83-.02-1.85-1.2-2.13-.82-.2-1.74-.16-2.64-.13-.4.02-.77.04-1.13.03l-2.15-.04-.32-.01a3.74 3.74 0 00-.73 0h-.01a1.08 1.08 0 00-.8.33c-.77.68-.76 1.73-.75 2.66v.72c-.03.95-.07 2.38 1.24 2.69M384.22 160.9v1.6l-.51-.01-3.78-.06v-1.61l4.3.07zm-.02 4v1.1l-.01 1.48h-.59l-2.18-.06h-.33c-.24.02-.8.03-1.05 0l-.01-.76v-.3c-.03-.45-.04-.9-.05-1.36v-.17l3.3.05.92.01zm.04-8.35v1.94l-4.35-.08a10 10 0 01.05-1.92c.32-.12 1.33-.04 1.68 0l.42.02 2.2.04zm5.97 8.43v.2l-.07 2.35h-3.55V166l.01-1.07 3.61.05zm-3.6-2.45l.01-1.6 2.67.04 1.02.02-.01.65-.02.94-3.67-.05zm.02-4l.02-1.94c1.25.01 2.5.04 3.74.06l-.02 1.56-.01.37h-1l-2.73-.05zm6.05 4.08l.02-.93.01-.67 1.2.02 2.91.02.02 1.61-4.16-.05zm4.1-4.93l.02.4v.57l-2.87-.03-1.17-.01v-.28l.04-1.63 3.85.09h.14c-.05.29-.03.6 0 .89zm.11 9.82h-1.11l-3.24.02.07-2.3V165l4.24.05.02 2.1.02.34zm2.38-1l-.06-7.76.03-.8c.05-.89.1-1.9-.29-2.62-.49-.9-1.46-.92-2.24-.93l-.25-.01a389.96 389.96 0 00-9.35-.19l-2.63-.04c-.5 0-1.01-.03-1.52-.05a35.7 35.7 0 00-2.94-.03c-.9.04-1.66.4-2.04.97a.75.75 0 00-.16.2l-.08.15a.8.8 0 00-.08.21c-.2.85-.17 1.74-.14 2.6l.01.9V163.09c.02 1.46.05 2.65.11 3.74l.01.24c.04.86.09 1.93 1.05 2.43.62.33 1.4.32 2.1.32h.6a134.63 134.63 0 006.87.12c1.37 0 2.72 0 3.98-.02l3.68-.02.46.01c.85.03 1.9.07 2.5-.74.48-.62.43-1.45.4-2.18l-.02-.48zM186.65 274.07l-6.31-.1h-.02c-.3 0-.6.13-.82.35-.24.23-.37.54-.37.86l-.01 2.35-.02 5.05c0 1.54 2.4 1.54 2.4 0l.02-5.27v-.91l3.93.06-.04 10.15c0 .77.6 1.17 1.2 1.17s1.2-.4 1.2-1.16l.04-11.34c0-.66-.53-1.2-1.2-1.2M179.5 262.57l-.01 1.55c0 .87 0 1.73-.02 2.6l-.58-.01c-.73-.01-1.46-.02-2.18-.05H176.37c-.23.01-.79.03-1.04 0l-.02-.76v-.3c-.05-.93-.07-1.92-.09-3.1l4.28.07zm.03-6.78l-.01 2.74-.01 1.64-4.29-.08V259l-.03-1.09c-.04-.74-.07-1.5.04-2.19.32-.11 1.33-.03 1.68 0l.42.03 2.2.04zm6.01 6.87l-.02.63-.1 3.48h-3.54l.01-2.61v-1.55l2.68.04.97.01zm-3.63-2.45v-1.36l.02-3.02 3.75.05c-.01 1.46-.04 2.92-.08 4.38l-1.13-.01-2.56-.04zm10.16-3.3l.02.41.02 3.01-3.05-.03-1.05-.01c.03-1.45.06-2.9.07-4.35a337.43 337.43 0 014 .09c-.05.29-.03.6 0 .89zm.11 9.83h-1.12l-3.23.02.1-3.43.01-.64 1.08.01c1.04.01 2.07.03 3.11.03l.03 3.68c0 .12 0 .23.02.33zm2.38-1l-.06-7.76.03-.8c.05-.89.1-1.9-.29-2.62-.49-.9-1.46-.92-2.24-.94h-.25l-3.78-.1-5.56-.1-2.64-.03-1.53-.05c-.96-.04-1.96-.08-2.93-.04-.9.05-1.67.42-2.04.97a.96.96 0 00-.17.22l-.07.15a.8.8 0 00-.09.2c-.19.84-.16 1.73-.14 2.59l.02.9v3.99c.01 1.46.05 2.65.1 3.75l.02.24c.04.86.08 1.93 1.04 2.43.63.32 1.43.32 2.12.32h.58a139.82 139.82 0 006.87.12c1.38 0 2.72 0 3.98-.02l3.68-.02.47.01c.84.03 1.9.07 2.5-.74.48-.62.43-1.45.4-2.19a9.77 9.77 0 01-.02-.48zM209.39 262.6l.02.08.08.29h-.57a5.13 5.13 0 01.25-1.05l.22.68m-1.36 2.77h2.8c.65 0 1.19-.54 1.2-1.2.03-.99-.23-3.15-1.36-4.24-.46-.45-1-.66-1.61-.62-2.45.13-2.59 3.68-2.63 4.85-.02.44.18.71.34.86.24.22.58.34.93.3.1.03.2.05.33.05M209.4 288.98c-.44.03-.91.01-1.37 0l-.86-.02c-.29 0-.6.03-.91.05-.48.03-.97.06-1.43.04l.02-.53.01-.29v-.41-.49l.38.03 1.73.03c.32 0 .66 0 1-.02.45-.01.91-.03 1.35 0l.01.4.01.26.03.41.02.54m2.34-1.4v-.38c0-.78 0-1.75-1.06-2.09a7.9 7.9 0 00-2.63-.15c-.37.02-.73.04-1.06.03l-1.95-.04-.3-.01c-.23-.02-.5-.04-.69-.01a.96.96 0 00-.71.21c-.87.66-.87 1.68-.87 2.59v.48l-.02.31c-.04.93-.1 2.33 1 2.76.27.1.58.13.88.13l.5-.01.43-.02a178.37 178.37 0 004.26-.07c.5-.02 1.2.06 1.7-.33.75-.6.64-1.9.55-2.86l-.03-.54M219.68 288.98c-.44.03-.9.01-1.36 0l-.86-.02c-.29 0-.6.03-.91.05-.48.03-.97.06-1.43.04l.02-.53v-.29-.42l.01-.48.35.03 1.76.03c.31 0 .66 0 1-.02.45-.01.9-.03 1.34 0l.02.38v.28l.03.41.03.54m2.33-1.4v-.38c0-.78.01-1.75-1.05-2.09a7.9 7.9 0 00-2.63-.15c-.38.02-.74.04-1.06.03l-1.95-.04-.3-.01c-.24-.02-.5-.04-.69-.01a.98.98 0 00-.71.21c-.87.66-.87 1.69-.87 2.6v.47l-.02.31c-.04.93-.1 2.33.99 2.76.28.1.59.13.89.13l.5-.01.43-.02a178.4 178.4 0 004.26-.07c.5-.02 1.2.06 1.7-.33.75-.6.64-1.9.55-2.85l-.04-.55" fill="#FFF"/><path d="M194.64 246.44c-3.61 0-7.22-.04-10.83-.07-3.33-.03-6.67-.06-10-.07h-3.91l-5.4-4.49h20.03c1.35 0 2.7 0 4.05.02 1.03.87 2.13 1.68 3.2 2.46l1.06.79 1.8 1.36zm13.09 5.4a139.56 139.56 0 01-4.92 5.29 183.18 183.18 0 00-3.68 3.9l.05-6.7c1.33-1.37 2.75-2.7 4.13-3.97l1.77-1.66 2.65 3.14zm16.18 2.03c-1.99 2.2-4.06 4.45-6.17 6.71-1.28-1.54-2.51-3.15-3.71-4.7l-.83-1.08c1.52-1.4 3.01-2.86 4.46-4.27l2.07-2.02 4.18 5.36zm2.73.05c0-.1-.03-.2-.05-.28a1 1 0 00-.1-.27.94.94 0 00-.14-.25l-5.62-7.22a1 1 0 00-.73-.38c-.37-.02-.74.1-1 .34l-3.1 3a192.16 192.16 0 01-4.2 4.04c-.5-.63-1-1.26-1.52-1.87l-4.14-4.9a1.06 1.06 0 00-.77-.37c-.34-.02-.7.1-.94.34-.91.89-1.84 1.75-2.77 2.61-.79.74-1.58 1.47-2.36 2.22v-2.65c0-.17-.04-.34-.12-.5.03-.26-.04-.51-.2-.75l-.1-.13-.07-.07c-.53-.69-1.24-1.23-1.92-1.75l-.4-.3c-.97-.76-1.98-1.51-2.98-2.26l-1.06-.8c-.53-.39-1.06-.78-1.57-1.19-.12-.08-.24-.2-.36-.3-.32-.3-.69-.63-1.1-.76-.54-.17-1.23-.12-1.83-.08l-.7.03c-6.09-.02-12.17-.01-18.25-.01h-7.35c-.37 0-.72.2-.96.53a1.1 1.1 0 00-.37.87c.01 1.12-.02 2.26-.06 3.35l-.04 1.52c-.1 4.51-.08 8.99-.04 13.95 0 .43.22.8.58 1 .4.22.9.22 1.28 0 .35-.21.55-.58.55-1-.04-4.97-.07-9.43.03-13.94l.04-1.44.03-1.22 5.98 4.99c.05 4.04 0 8.14-.06 12.11-.05 3.72-.1 7.58-.07 11.37 0 .77.61 1.17 1.21 1.17h.01c.6 0 1.19-.41 1.18-1.17-.03-3.8.02-7.65.07-11.37.05-3.75.1-7.62.07-11.43 4.48-.03 9.02.01 13.43.06l5.04.05h1.49c2.07.03 4.15.04 6.22.04.08 6.38 0 12.87-.07 19.15a1289.79 1289.79 0 00-.06 23.73c0 .77.6 1.17 1.2 1.17h.02c.59 0 1.18-.41 1.18-1.17-.08-9.22-.03-18.43.03-27.07a115.4 115.4 0 015.47-5.92c1.57-1.62 3.2-3.3 4.7-5.03 1.12 1.36 2.21 2.78 3.27 4.15 1.37 1.79 2.79 3.63 4.28 5.38.2.22.5.36.82.36.36.02.68-.12.9-.35 2-2.13 4-4.32 5.76-6.26.06 6.72 0 13.53-.05 20.14l-.08 11.25-.02 12.07c0 .77.6 1.17 1.2 1.17s1.2-.4 1.2-1.17c0-8.43.04-16.87.08-25.3l.06-15.96V258v-3.85c0-.1-.03-.17-.05-.22zM378.32 140.88l4.15.11v1.13c0 .2.03.43.04.67.02.24.04.49.04.72-.43 0-1-.02-1.47-.05l-.64-.03-2.12-.06v-2.49zm2.77 4.97l.61.03c.3.02.62.05.94.05.6 0 1.19-.08 1.63-.4.72-.5.68-1.4.64-2.12l-.02-.39-.01-2.97v-.22c0-.65-.53-1.18-1.2-1.2-2.18-.08-4.37-.13-6.56-.18h-.02c-.4 0-.73.18-.93.48-.17.22-.25.45-.25.72v4.9c0 .65.54 1.2 1.2 1.2.79 0 1.58.03 2.36.05l1.6.05zM319.36 226.18h.09c2.28.03 4.63.05 6.95.13v1.12c0 .2.02.43.04.67l.03.67h-1.03l-2.59-.03-1.19-.02-2.3-.04v-2.5zm-1.05 4.88c1.2 0 2.38.03 3.58.06 1.14.02 2.3.05 3.44.05l.47.03c.23.01.48.03.74.03.67 0 1.37-.12 1.74-.7.35-.55.3-1.32.26-2l-.02-.5-.01-2.89c0-.65-.46-1.17-1.04-1.2-2.4-.1-4.83-.13-7.19-.15l-1.97-.03a.84.84 0 00-.7.31l-.07.07a.73.73 0 00-.06.1 1.2 1.2 0 00-.23.72v4.9c0 .66.48 1.2 1.06 1.2zM319.36 234.75h.21c2.24.03 4.56.06 6.83.14V236c0 .2.02.43.04.67l.03.66h-1.03l-2.59-.02-.94-.02-2.55-.05v-2.5zm-2.1 3.69c0 .66.47 1.2 1.05 1.2 1.18 0 2.37.03 3.55.05a193.09 193.09 0 003.93.08c.23.02.49.04.75.04.67 0 1.37-.12 1.74-.7.35-.56.3-1.32.26-2l-.02-.5-.01-2.9c0-.64-.46-1.17-1.04-1.2-2.38-.1-4.8-.12-7.13-.15l-2.03-.02h-.01a.88.88 0 00-.7.3l-.05.07a.76.76 0 00-.07.1 1.2 1.2 0 00-.23.73v4.9zM319.36 243.99h.21c2.24.03 4.56.06 6.83.13v1.12c0 .2.02.43.04.67l.03.67h-1.03l-2.59-.03-1.05-.02-2.44-.04v-2.5zm6.43 5.02c.23.01.49.03.75.03.67 0 1.37-.12 1.74-.7.35-.55.3-1.32.26-2l-.02-.5-.01-2.89c0-.65-.46-1.17-1.04-1.2-2.38-.1-4.8-.13-7.13-.15l-2.03-.03c-.32.02-.55.12-.7.31l-.06.06a.76.76 0 00-.07.1 1.2 1.2 0 00-.23.74v4.9c0 .65.48 1.2 1.06 1.2 1.19 0 2.38.02 3.57.05 1.15.02 2.3.05 3.45.05l.46.03zM407.74 225.84h-25.83c-.08-1.89-.1-3.75-.1-5.23 5.15 0 10.38-.05 15.44-.1l7.24-.08 3.17-.02.08 5.43zm2.06-7.34a1.1 1.1 0 00-.96-.5c-4.83.01-9.73.06-14.48.1-3.11.04-6.22.07-9.34.09h-.8l-3.6.02h-.01c-.65 0-1.2.55-1.2 1.2v.2c0 2.44-.01 4.97.15 7.45.04.68.56 1.18 1.2 1.18h28.2a1.21 1.21 0 001.2-1.2l-.12-7.85c0-.25-.08-.48-.24-.69zM306.1 258.62l-.03 3.31c-1.9.07-3.76.07-5.24.05l.02-3.29 5.25-.07zm-5.3-11.71l5.42-.03-.03 3.32-5.4.08v-3.37zm5.36 5.7l-.03 3.6-5.3.08-.02-3.6 5.35-.09zm1.28-8.14l-7.85.04c-.3 0-.55.1-.76.3l-.09.07a.4.4 0 00-.05.07c-.2.22-.3.47-.3.76-.02 2.66 0 5.35.02 7.96.03 3.12.06 6.33.01 9.5 0 .3.12.6.34.83.23.23.54.37.86.37h.24c1.05.02 2.12.03 3.2.03 1.4 0 2.81-.02 4.21-.1a1.22 1.22 0 001.19-1.2l.18-17.42a1.2 1.2 0 00-1.2-1.2z" fill="#FFF"/><path d="M210.08 273.51l3.6.04.08 5.3-3.6.01-.08-5.35zm6.01.06l3.32.04c.07 1.89.06 3.75.04 5.23l-2.86-.01h-.42l-.08-5.26zm-11.73-.12l3.31.03.09 5.4h-3.38l-.02-5.43zm-1.17 7.83a310.14 310.14 0 007.96-.02c3.11-.03 6.33-.05 9.5 0 .64 0 1.19-.55 1.2-1.2v-.2c.03-2.45.06-4.98-.07-7.46a1.22 1.22 0 00-1.2-1.18l-17.43-.18c-.31-.04-.61.12-.84.35a1.2 1.2 0 00-.36.85l.04 7.84c0 .3.1.56.3.77l.07.09a.8.8 0 00.08.06c.21.19.46.28.75.28zM391.46 234.4c-3 .03-6.02-.02-9-.16l-.01-1.14 4.47.08c1.51.03 3.03.06 4.54.07v1.15zm15.9 17.3h-.02a151.5 151.5 0 01-4.65-.01l-.5-.01c0-.35.02-.7.04-1.06l.03-.65c.02-.8.04-1.67.01-2.53a1.22 1.22 0 00-1.2-1.2l-4.9-.03a74.41 74.41 0 010-2.31c.05-.86.1-1.84-.3-2.54-.51-.89-1.58-.84-2.36-.81l-.4.01-3.04.03a58.6 58.6 0 01-.07-3.79h.66c.68 0 1.34.01 2.01 0 .66-.02 1.2-.55 1.2-1.2v-3.54c0-.65-.56-1.2-1.2-1.2-1.91 0-3.85-.04-5.73-.09-1.83-.04-3.73-.08-5.6-.08h-.01c-.36 0-.67.14-.84.35-.28.22-.44.54-.44.92v3.43c0 .65.51 1.17 1.19 1.2 1.94.11 4.02.18 6.35.2-.02 1.57.02 3.21.13 5.03.04.67.56 1.18 1.2 1.18l4.76-.04c-.05.44 0 .93.03 1.4.02.3.04.57.04.83 0 .72 0 1.48.07 2.24.05.68.56 1.17 1.2 1.18l4.85.03-.02 1.3-.01 1.4v.28c-.03.77-.05 1.82.85 2.26.63.31 1.45.28 2.18.24l.66-.01h2.64c.02 1.3.02 2.22-.06 3.95-.03.74.54 1.16 1.11 1.18h.06c.58 0 1.2-.4 1.24-1.15.08-2.14.07-3.02.02-5.2a1.2 1.2 0 00-1.19-1.19z" fill="#FFF"/><path d="M283.36 271.18l-.06 8.16-.02 3.5h-9.01l.08-11.66h9.01zm4.06-11.38l-5.46.03-8.57.06c-.93-.77-1.9-1.5-2.85-2.21l-.5-.37 4.83-.07c3.04-.05 6.18-.1 9.28-.09l.15-.01 3.12 2.66zm-13.03 5.81c0-1.11.02-2.22.01-3.33l7.3-.04c2.9-.02 5.79-.03 8.75-.07.31.07.64.02.9-.13.26-.16.44-.4.52-.7a400.8 400.8 0 011.77-6.74c1.05-3.88 2.13-7.88 2.98-11.88 2.67-.03 5.35-.04 8.03-.05l7.96-.05-.07 26.16h-38.17l.02-3.17zm30.2-25.35l-8.6.06h-.01c-.87-.7-1.77-1.38-2.64-2.04l-.42-.32c1.65-.01 3.3-.04 4.96-.07 2.7-.04 5.52-.06 8.32-.09h.5a3.75 3.75 0 01.46.29l3.54 2.14-6.1.03zm-18.47 15.28l1.4-5.36c.97-3.66 1.98-7.44 2.8-11.2l1.46 1.11c.84.63 1.7 1.28 2.53 1.95a233 233 0 01-3.01 12.06c-.43 1.6-.86 3.18-1.27 4.77l-3.9-3.33zm22.06-19.7l.01-4.74c0-4.13 0-8.4.22-12.57l1.24.93c1.01.76 2.06 1.55 3.03 2.36.06 4.7.02 9.5-.02 14.12l-.02 2.65-2.14-1.3c-.26-.15-.52-.33-.8-.51-.49-.33-.99-.67-1.52-.93zm20.38-16.28c-2.06.01-4.11.03-6.17.03l-8.6.06c-.85-.7-1.75-1.37-2.62-2.02l-.45-.34 6.03-.07 2.66-.04c1.92-.03 3.84-.07 5.74-.05h.16c.47 0 .81 0 1.17.27.3.22.58.54.86.85l.39.42.83.88zm-39.12 62.72l.03.57h-3.8l.03-3.72c.02-2.65.03-5.3.07-7.95h16.72c-.04 2.82-.05 5.64-.06 8.46l-.02 3.2h-3.6v-1.13c0-1.69 0-3.6-.53-5.15-.63-1.86-1.94-2.8-3.88-2.8-1.62 0-3.2.9-4.13 2.38-1.1 1.74-.95 4.08-.83 6.14zm3.3-5.49c.4-.43.95-.64 1.65-.63.93 0 1.57.62 1.72 1.24.16.64.17 1.38.18 2.09l.01.77.1 2.59h-4.53l-.01-.21c-.11-1.85-.27-4.63.88-5.85zm19.8-5.61l-.02 2.48v3.97 5.22h-7.71l.02-3.27.06-8.4h7.64zm58.74-52.29c-.61.43-1.3.86-2.1 1.33a702 702 0 00.09-9.08c1.03.77 2.05 1.56 3.07 2.35.87.68 1.74 1.36 2.63 2.02a16.44 16.44 0 01-3.69 3.38zM369 229.71l.14-6.7c1.1-.6 2-1.13 2.82-1.67a24.48 24.48 0 003.46-2.72v19.61a2305.85 2305.85 0 01-6.5-4.56l.08-3.96zm40.86-15.69h-32.81c-1.18-.87-2.35-1.78-3.49-2.67l-2.07-1.6c7.06.01 14.26-.12 21.2-.25 3.63-.07 7.26-.14 10.88-.18 2.13 1.63 4.26 3.21 6.3 4.7zm-64.18 10.27c.7.68 1.88.68 2.58-.01.6-.6.68-1.58.22-2.3 1.73-.33 3.42-.79 5.04-1.36 0 .47.19.93.52 1.25.7.69 1.87.68 2.57-.01.67-.67.69-1.8.05-2.54 1.46-.68 2.9-1.48 4.32-2.4.03.46.21.9.54 1.21.7.69 1.87.68 2.57-.01.69-.69.69-1.85 0-2.59-.16-.17-.39-.3-.63-.33l.6-.46c1-.8 1.93-1.64 2.76-2.5-.01 3.06-.05 6.19-.1 9.3-1.07.51-2.04.94-2.98 1.3-6.82 2.6-13.76 3.3-20.1 2.03a29.13 29.13 0 01-9.59-3.78 28.25 28.25 0 0011.2 1.3c-.2.66-.06 1.42.43 1.9zm-12.96 32.58h4.67l2.55 2.54h-7.22V256.88zm82.07-40.97c0-.13-.02-.24-.05-.33a1.31 1.31 0 00-.5-1.36 482.9 482.9 0 01-9.3-6.92 1.21 1.21 0 00-.93-.43c-3.87.05-7.74.13-11.6.2-7.82.15-15.88.3-23.83.24-.3-.08-.6-.05-.8.06-.43.12-.73.45-.82.9-2.03 3.13-5.5 5.96-10.32 8.4-5.95 3.01-12.4 4.13-18.15 3.15a26.7 26.7 0 01-11.21-4.86c-.29-.2-.6-.27-.91-.18h-.04c-1.37-.18-2.81-.12-4.21-.06l-1.74.06c-1.35.01-2.7.04-4.04.06-2.95.04-6.01.1-8.99.09-.33 0-.62.11-.83.34a1.2 1.2 0 00-.33.87.75.75 0 00-.05.21c-.37 4.81-.36 9.74-.35 14.5v4.56c-2.65 0-5.33.05-7.93.1-2.64.04-5.38.09-8.07.09-.08 0-.16-.02-.25 0-.74 0-1.11.55-1.16 1.09l-.02.06c-.86 4.26-2 8.54-3.1 12.68-.48 1.77-.95 3.55-1.4 5.33-2.98-.01-5.99.04-8.9.1-2.72.04-5.53.06-8.29.09-.54 0-.96.31-1.1.83-.1.19-.16.38-.16.59.1 6.91.02 13.96-.06 20.77a1380.4 1380.4 0 00-.07 24.64c0 .77.61 1.17 1.2 1.17h.02c.6 0 1.19-.4 1.18-1.17-.09-10.65-.01-21.48.06-31.95l.06-8.28v-.79l.02-2.15 1.15.87c1.03.77 2.1 1.57 3.04 2.36.08 6.26 0 12.62-.07 18.78-.04 4.05-.09 8.24-.1 12.36 0 3.17 0 3.6.03 6.05v1.3c.01.76.62 1.16 1.22 1.16s1.2-.4 1.19-1.17c-.06-6.3-.05-9.09-.01-15.06h38.25c0 .36 0 .6.02.77v.09l.01 1.11c.01.77.62 1.17 1.21 1.17h.02c.59 0 1.18-.41 1.18-1.17-.07-7.67-.05-12.33-.03-18.77l.03-6.04.07-21 .06-14.21c0-1.72.02-3.44 0-5.15 2.44-.03 4.88-.04 7.33-.05l7.59-.05c.32 8.19.31 16.53.3 24.6a1897.2 1897.2 0 000 14.06c0 .32.13.62.36.84.23.23.54.36.85.36h9.85v9.5c0 1.54 2.4 1.54 2.4 0v-10.7a.6.6 0 00-.03-.16 1.1 1.1 0 00-.33-.98l-2.34-2.32-.73-.77a13.57 13.57 0 00-1.63-1.58c-.67-.51-1.8-.43-2.7-.37-.26.02-.5.04-.72.04h-2.58a1856.42 1856.42 0 00-.27-31.6c1.48.94 3.02 1.75 4.6 2.41l-.2.17c-.68.7-.66 1.89.05 2.58.7.68 1.87.68 2.57-.02.45-.45.6-1.1.45-1.7 1.82.56 3.66.97 5.49 1.22-.42.7-.32 1.66.28 2.26.7.68 1.88.68 2.58-.02.52-.52.65-1.3.37-1.97 1.8.08 3.61.03 5.42-.15-.22.66-.08 1.42.43 1.92.69.67 1.89.66 2.57-.02.62-.61.68-1.6.2-2.34 1.9-.34 3.8-.85 5.71-1.5-.03.54.15 1.07.53 1.44.7.68 1.88.68 2.58-.01a1.88 1.88 0 00-.01-2.61l.6-.27-.1 5.36-.09 4.12c-.18.48-.12 1.11.44 1.5l4.36 3.07 4.14 2.9v9.85l-.02 8.89c0 .44.2.8.56 1.02.4.23.91.23 1.3 0 .37-.2.58-.58.58-1.02.02-4.35.02-8.7.02-13.06v-5.2h.14c.94.03 1.88.07 2.81.07.32 0 .63-.01.95-.03.33-.02.68-.05 1-.04v3.82c0 4.61 0 7.4.35 13.24.03.46.27.83.67 1.03.42.2.93.19 1.3-.06.34-.22.5-.57.48-1-.35-5.81-.35-8.8-.35-13.31l-.01-4.8c0-.53-.38-1.03-.9-1.17a7.24 7.24 0 00-2.28-.15c-1.38.06-2.79 0-4.15-.05v-6.7l.02-9.53v-6.54h34.5c.01 6.3.06 12.71.1 18.9.06 6.92.12 14.07.1 21.1 0 .43.21.8.57 1 .39.23.89.23 1.28 0 .36-.2.56-.56.56-1 0-7.02-.05-14.15-.1-21.06-.05-6.4-.1-13-.1-19.51zM254.29 168.63c.55.14 1.3-.12 1.56-.77.22-.54.88-2.18 1.77-2.51.26-.1.52-.07.78.07.3.16.5.39.6.7.27.91-.39 2.27-.68 2.81a6.1 6.1 0 01-3.74 2.96c-2.02.6-5.08.63-7-.43-1.47-.91-2.98-2.73-2.81-4.58.04-.43.21-.75.5-.93.16-.1.35-.14.56-.14.2 0 .43.05.66.14.9.4 1.49 1.37 2 2.23l.12.18c.28.47.8.68 1.33.54.52-.14.89-.6.9-1.14v-.1c.03-1.27.07-3.18 1.41-3.52.33-.08.57-.04.76.12.27.23.7.95.49 3.22-.05.58.25 1.02.79 1.15m-5.4-3.9a4.66 4.66 0 00-1.9-1.15c-1.69-.52-3.37.08-4.16 1.5-1.71 3.04.95 6.86 3.54 8.45 1.25.7 2.91 1.06 5.08 1.12h.4c1.82 0 4.25-.35 6.28-1.88 2.18-1.65 4.38-5.39 2.8-8.09a3.38 3.38 0 00-4.19-1.5c-.45.17-.86.42-1.24.76-.59-1.55-1.7-2.33-3.26-2.22-1.62.1-2.77 1.14-3.36 3M201.73 126.85c.56.13 1.3-.11 1.56-.77.22-.54.89-2.18 1.78-2.51.25-.1.51-.07.78.07.3.16.5.39.6.7.27.91-.39 2.27-.68 2.81a6.1 6.1 0 01-3.74 2.96c-2.03.6-5.08.63-7-.43-1.47-.9-2.98-2.73-2.82-4.58.04-.43.22-.75.5-.92.17-.1.36-.15.56-.15.21 0 .44.05.67.15.9.38 1.48 1.36 2 2.21l.11.2c.28.46.8.67 1.34.53.52-.14.89-.6.9-1.14v-.1c.03-1.27.07-3.18 1.41-3.51.32-.09.57-.05.76.11.27.23.69.96.49 3.22-.05.58.25 1.02.78 1.15m-7.93 4.9h.02c1.25.7 2.91 1.06 5.08 1.12l.4.01c1.81 0 4.25-.35 6.27-1.89 2.2-1.65 4.38-5.38 2.8-8.09a3.38 3.38 0 00-4.18-1.5c-.46.17-.87.42-1.24.76-.59-1.55-1.73-2.33-3.26-2.22-1.62.1-2.78 1.14-3.36 3a4.65 4.65 0 00-1.89-1.14c-1.7-.52-3.37.09-4.16 1.5-1.72 3.04.95 6.86 3.52 8.45" fill="#FFF"/><g transform="translate(283.61 16.2)"><mask id="d" fill="#fff"><use xlink:href="#c"/></mask><path d="M86.78 27.8C80.94 8.62 61.03-.72 42.34.14c-.38-.05-6.6.96-7.02 1.27C20.2 5.77 6.34 14.33 1.85 33.4-2.13 50.34 5.1 73.7 22.3 81.52c1.56.71 3.24 1.3 4.99 1.81 4.17 7.01 8.52 13.96 14.2 19.77 2.74 2.81 5.3 4.02 8.2 2.15.72-.46.54-.46 2.23-1.85a98.37 98.37 0 0016.9-23.27 41.64 41.64 0 004.73-2.46C89.83 67.64 91.94 44.72 86.78 27.8" fill="#471180" mask="url(#d)"/></g><path d="M212.38 161.66c-5.85-19.18-25.76-28.52-44.45-27.66-.38-.05-1.79.1-2.08.15-1.12.11-4.52.81-4.94 1.11-15.11 4.36-28.98 12.93-33.47 32.01-3.98 16.91 3.26 40.28 20.46 48.1 1.56.71 3.24 1.3 4.98 1.81 4.17 7.01 8.52 13.96 14.2 19.77 2.75 2.8 5.3 4.02 8.2 2.15.72-.46.54-.47 2.24-1.85a98.32 98.32 0 0016.9-23.27 41.44 41.44 0 004.73-2.46c16.28-10.02 18.38-32.94 13.23-49.86M440.16 151.85c-3.08-10.1-15.11-23.93-33.59-26.6-16.34-2.38-29.7 4.5-34.67 7.85-8.55 5.76-14.67 15.81-16.68 24.36-3.98 16.91 3.26 40.28 20.46 48.1 1.56.71 3.24 1.3 4.98 1.8 4.17 7.02 8.52 13.96 14.2 19.78 2.75 2.8 5.3 4.02 8.2 2.15.72-.46.54-.47 2.24-1.85a98.37 98.37 0 0016.9-23.27 41.64 41.64 0 004.73-2.46c16.28-10.02 18.38-32.94 13.23-49.86" fill="#471180"/><path d="M396.59 201.95c-6.18 0-12.13-1.03-16.8-3.15-14.23-6.47-20.27-25.77-17-39.73 2.18-9.2 14.85-26.66 35.64-27.29 9.47-.28 17.98 2.55 24.55 8.2a32.66 32.66 0 019.87 14.54c6.05 19.85-1.5 35.24-11.08 41.14-6.68 4.1-16.17 6.29-25.18 6.29M326.28 94.57c-6.17 0-12.12-1.03-16.8-3.15-14.23-6.47-20.27-25.77-16.99-39.73 2.17-9.2 14.84-26.66 35.63-27.29 9.5-.28 17.98 2.55 24.55 8.2a32.66 32.66 0 019.87 14.54c6.06 19.85-1.5 35.24-11.08 41.13-6.68 4.12-16.17 6.3-25.18 6.3M167.77 210.9c-6.18 0-12.13-1.03-16.8-3.15-14.23-6.47-20.28-25.77-17-39.73 2.17-9.2 14.85-26.66 35.64-27.29 9.47-.26 17.98 2.55 24.54 8.2a32.66 32.66 0 019.88 14.54c6.05 19.85-1.5 35.24-11.08 41.13-6.69 4.12-16.17 6.3-25.18 6.3" fill="#FFF"/><path d="M379.55 181.33c.02.7 0 1.4.1 2.09 0 .03.02.14 0-.02-.02-.19 0 .12 0 .17l.07 1.72c.02 1.04 1.65 1.05 1.63 0-.02-.76-.03-1.52-.12-2.27 0-.04-.02-.15 0 .02.01.2 0-.09 0-.14l-.05-1.57c-.02-1.05-1.65-1.05-1.63 0M391.77 181.33c.02.7 0 1.4.1 2.09 0 .03.02.14 0-.02-.02-.19 0 .12 0 .17l.07 1.72c.02 1.04 1.65 1.05 1.63 0-.03-.76-.03-1.52-.12-2.27 0-.04-.02-.15 0 .02.01.2 0-.09 0-.14l-.05-1.57c-.02-1.05-1.65-1.05-1.63 0M418.93 181.33c.01.7 0 1.4.1 2.09v-.02c-.02-.19 0 .12 0 .17.03.57.05 1.15.06 1.72.03 1.04 1.66 1.05 1.63 0-.02-.76-.02-1.52-.12-2.27v.02c.02.2 0-.09 0-.14l-.04-1.57c-.02-1.05-1.65-1.05-1.63 0M406.7 181.33c.02.7.01 1.4.1 2.09 0 .03.02.14 0-.02l.01.17c.03.57.05 1.15.06 1.72.03 1.04 1.66 1.05 1.63 0-.02-.76-.02-1.52-.12-2.27v.02c.02.2 0-.09 0-.14l-.04-1.57c-.02-1.05-1.65-1.05-1.63 0" fill="#2F333E"/><path d="M425.71 166.82c-1.3-1.15-2.95-1.44-4.5-1.6-.47-.05-.94-.08-1.4-.09-.64 0-1.17-.18-1.7-.66a7.37 7.37 0 01-1.61-2.66c-.45-1.08-.86-2.18-1.33-3.25a21.96 21.96 0 00-3.46-5.68 12.01 12.01 0 00-4.99-3.37c-3.4-1.2-6.38-1.04-9.25-1.04-3 0-17.25-.3-19.12.13-1.81.41-3.4 1.78-4.42 3.72-1.12 2.14-1.5 4.8-1.56 7.34-.12 4.73.77 9.5 2.42 13.71a27.12 27.12 0 003.05 5.77 8.2 8.2 0 002.24 2.37c.12.08.22.13.35.15.86.19 1.74.19 2.6.22 1.57.07 3.13.1 4.7.13a1379.8 1379.8 0 0021.27.13H419.53c1.03 0 2.04-.31 2.95-.91.87-.57 1.67-1.4 2.4-2.24a18.6 18.6 0 002.01-2.87 8.5 8.5 0 001.2-3.41 7.05 7.05 0 00-2.39-5.9" fill="#00B69E"/><path d="M389.87 156.6c.57 2.24 1.01 5.3.52 8.62a2.38 2.38 0 003.04 2.58c2.65-.73 6.31-1.32 10.2-.65 1.73.3 3.22-1.23 2.78-2.88a18.56 18.56 0 01-.4-8.1c.3-1.66-1.21-3.07-2.9-2.7-2.54.57-6.12.93-10.5.27-1.7-.25-3.15 1.24-2.74 2.86" fill="#444"/><path d="M395.64 166.65l1.7-.6c.5-.18.28-.97-.22-.79l-1.7.6c-.49.18-.28.97.22.8M400.95 163.3l1.7-.6c.5-.17.29-.96-.21-.78l-1.7.6c-.5.18-.28.97.21.79M403.68 160.8l1.7-.61c.5-.18.28-.97-.21-.79l-1.7.6c-.5.18-.29.97.21.8M397.24 164.34l1.7-.6c.49-.17.28-.96-.22-.79l-1.7.6c-.5.18-.28.97.22.8M393.22 159.65l1.7-.6c.49-.18.28-.97-.22-.79l-1.7.6c-.5.18-.28.97.22.8M399.32 155.67l1.7-.6c.5-.18.29-.97-.21-.8l-1.7.61c-.5.18-.28.97.21.79M391.06 158.32l1.7-.6c.5-.18.28-.97-.22-.8l-1.7.61c-.49.17-.28.96.22.79M391.8 155.57l1.7-.61c.5-.17.28-.96-.21-.78l-1.7.6c-.5.17-.28.96.21.79M399.12 158.93l1.7-.6c.49-.18.28-.97-.22-.8l-1.7.61c-.49.17-.28.96.22.79M396.9 157.5l1.7-.6c.49-.18.27-.97-.22-.8l-1.7.61c-.5.18-.28.96.21.79M394.59 156.48l1.7-.6c.49-.18.28-.97-.22-.79l-1.7.6c-.5.18-.28.97.22.79M399.02 161.3l1.7-.6c.49-.17.28-.96-.22-.78l-1.7.6c-.5.18-.28.97.22.79M399.74 165.9l1.7-.61c.5-.17.28-.96-.21-.79l-1.7.6c-.5.18-.28.97.21.8M391.7 161.93l1.7-.6c.5-.18.28-.97-.21-.8l-1.7.61c-.5.18-.28.97.21.79M392 166.11l1.71-.6c.5-.18.28-.97-.22-.8l-1.7.62c-.49.17-.28.96.22.78M393.76 163.74l1.7-.6c.5-.18.28-.97-.22-.8l-1.7.61c-.49.18-.28.97.22.79M395.28 161.22l1.7-.6c.5-.18.28-.97-.22-.79l-1.7.6c-.49.18-.28.97.22.8M403.17 158.4l1.7-.6c.5-.18.28-.97-.21-.79l-1.7.6c-.5.18-.28.97.21.79M402.26 155.65l1.7-.6c.49-.18.28-.97-.22-.8l-1.7.62c-.5.17-.28.96.22.78" fill="#FFF"/><path d="M378.26 152.64c.05 4.28-.14 11.28 3.88 14.07 1.7 1.18 3.76.95 5.6 1.72 3.87 1.61 3.59 6.74 4.05 10.22.13 1.03 1.77 1.04 1.63 0-.5-3.79-.31-9.33-4.23-11.39-2.68-1.41-5.93-.52-7.65-3.67-1.7-3.15-1.61-7.47-1.65-10.95 0-1.05-1.64-1.05-1.63 0M414.26 167.63c2.21.31 4.18 1 4.87 3.38.61 2.07.26 4.57-.03 6.67-.14 1.02 1.43 1.47 1.58.43.37-2.7.87-6-.35-8.58-1.07-2.26-3.28-3.14-5.63-3.47-1.03-.14-1.47 1.43-.44 1.57" fill="#2F333E"/><path d="M415.77 158.21c-.5 1.93-.87 4.55-.45 7.42.2 1.44-1.17 2.62-2.62 2.22a20.26 20.26 0 00-8.77-.57c-1.5.25-2.78-1.06-2.4-2.48.5-1.88.83-4.32.35-6.98-.26-1.42 1.05-2.63 2.5-2.3 2.18.47 5.26.8 9.03.23 1.47-.23 2.72 1.06 2.36 2.46" fill="#FF00A5"/><path d="M312.45 79.58a.8.8 0 01-.8-.8v-4a.8.8 0 111.6 0v4a.8.8 0 01-.8.8M348.77 79.55a.77.77 0 01-.77-.76v-4.1a.77.77 0 011.53 0v4.1c0 .42-.34.76-.76.76M328.37 51.92h-.01a.8.8 0 01-.79-.8l.14-12.2c0-.45.42-.81.8-.8.45.01.8.37.8.81l-.14 12.2a.8.8 0 01-.8.79M332.27 51.92a.8.8 0 01-.8-.8l.14-12.2c.01-.45.33-.81.81-.8.44.01.8.37.79.81l-.14 12.2a.8.8 0 01-.8.79" fill="#333"/><path d="M345.71 52.64l-1.59-.03.18-10.62c0-.08.15-2.23-1.03-2.47-.46-.1-2.09-.2-7.22-.19h-10.39c-5.83-.03-7.65.09-8.15.19-1.18.24-1.03 2.4-1.03 2.42l.18 10.67-1.6.03-.17-10.62c-.12-1.27.23-3.64 2.3-4.06.53-.12 1.99-.26 8.47-.22h10.39c5.7-.04 7.04.11 7.55.22 2.06.42 2.4 2.79 2.29 4.12l-.18 10.56z" fill="#333"/><path d="M350.6 65.91l-4.9-13.93c-.19-.48-1.43-.42-1.89-.42l-27.21-.44c-.44 0-1.2.36-1.4.8l-5.22 15.11c-.13.37-.4 1.42-.4 1.82-.02 1.63.04 3.88.4 4.96.78 2.37 4.18 2.28 4.18 2.28s31.42.35 34.39.17c2.97-.17 3.1-3.16 3.1-7.02 0-1.22-.8-2.87-1.05-3.33" fill="#00B69E"/><path d="M348.6 67.57h-.01c-12.03-.16-35.29-.4-37.14-.18-.43.02-.83-.27-.88-.7a.8.8 0 01.7-.89c2.42-.27 35.92.15 37.34.17a.8.8 0 010 1.6M345.62 75.54l-1.2-.01c-2.6-.03-12.48-.15-21.35-.21l-.68-.01h-.55a.8.8 0 000 1.6h1.2c2.59.03 12.48.15 21.35.21l.67.01h.55a.8.8 0 00.01-1.6M344.78 51.71h-.01c-6.73-.08-21.35-.14-28.85-.12a.8.8 0 010-1.6c7.5-.03 22.14.05 28.87.13a.8.8 0 01-.01 1.6" fill="#333"/><path d="M329.2 48.31c-.1-1.07-.57-2-2.38-2.3-2.4-.38-3.34-.13-6.02-.01-3 .2-2.55 4.27-2.3 6.06.38 2.75 5.04 2.13 7.42 2.08 1.16-.02 2.44.02 2.92-1 .64-1.34.51-3.42.37-4.83M342.31 48.31c-.11-1.07-.58-2-2.39-2.3-2.4-.38-3.33-.13-6.02-.01-3 .2-2.55 4.27-2.3 6.06.38 2.75 5.04 2.13 7.42 2.08 1.17-.02 2.44.02 2.92-1 .64-1.34.52-3.42.37-4.83" fill="#FF00A5"/><path d="M313.05 52.76a.8.8 0 01-.8-.8v-4.78h-6.9v4.79a.8.8 0 11-1.59 0v-5.59c0-.44.36-.8.8-.8h8.5c.43 0 .79.36.79.8v5.59a.8.8 0 01-.8.8" fill="#333"/><path d="M313.05 49.97h-8.5a.8.8 0 010-1.6h8.5a.8.8 0 110 1.6" fill="#333"/><path d="M311.22 42.83c.74-1.02 2.2-2.45.6-3.34-.58-.33-1.37.22-1.77.61 0-.8-.12-1.75-1.18-1.8-1.18-.07-1.24 1.1-1.18 2.05-.5-.5-1.33-1.1-1.96-.55-1 .87.1 2.33.87 3.02 0 0 4.5.17 4.62 0" fill="#444"/><path d="M311.75 43.5c.03-.7-.71-.87-.71-.87-.33-.04-4.16-.06-4.49-.02 0 0-.75-.04-.72.8 0 .25.1 1.26.27 1.94.04.17.1.36.26.47.15.12.38.14.59.15H310.67c.21-.02.44-.04.6-.16.16-.11.2-.3.25-.47.17-.68.22-1.59.23-1.84" fill="#00B69E"/><path d="M169.49 165.43c.02 1.15 0 .98.03 2.14 0 .33.51.33.5 0-.02-1.16 0-.99-.03-2.14 0-.33-.51-.33-.5 0" fill="#2F333E"/><path d="M169.77 168.3a.73.73 0 01-.73-.72 66.69 66.69 0 01-.03-2.14c-.01-.4.3-.73.71-.74h.02c.4 0 .73.31.73.72l.02 1.07.01 1.07c.01.4-.3.73-.71.73h-.02z" fill="#2F333E"/><path d="M167.03 169.15c.01-.26-.04-.48.25-.56.26-.08.56-.04.82-.05h1.67l1.55.02c.26 0 .56-.05.8 0 .3.07.3.32.31.57.02.32.53.32.51 0-.03-.62-.27-1.05-.94-1.08-.74-.04-1.49 0-2.23-.01-.76-.01-1.54-.05-2.3 0-.28.03-.61.1-.8.34-.16.21-.14.52-.15.77-.02.33.49.33.5 0" fill="#2F333E"/><path d="M166.76 169.88h-.04a.7.7 0 01-.68-.75v-.12c.01-.26.03-.62.26-.92.23-.31.61-.48 1.13-.52a20.3 20.3 0 011.83-.02h1.32c.49 0 .96 0 1.44.02.49.02 1.33.25 1.4 1.53a.7.7 0 01-.67.75c-.46 0-.77-.28-.8-.7v-.12h-.35l-.28.01-1.55-.02h-2.26v.16c-.03.4-.35.7-.75.7zM156.35 194.28l-.1-5.9-.22-12.63-.04-2.37a.73.73 0 00.43-.68c0-.3-.18-.56-.45-.67-.06-.54-.8-.82-1.21-.47a.7.7 0 00-.24.44l-2.32.06a138.38 138.38 0 01-4.05.06h-.48c-.02-.13 0-.33 0-.42a3.72 3.72 0 000-.48v-.12h.01c.82-.09 1.64-.12 2.4-.13.73-.02 1.45-.02 2.18-.02 1.13 0 2.3 0 3.46-.07a.74.74 0 00.7-.78c-.03-.41-.37-.72-.75-.68-1.14.06-2.3.06-3.43.06-.69 0-1.37 0-2.06.02h-.13c-.89.02-1.81.04-2.72.16-.44.06-.79.3-.99.69-.18.35-.15.75-.14 1.08l.01.25v.15c0 .17 0 .35.02.54l-.02.18c0 2.03.05 4.06.1 6.09l.11 4.56c.08 3.5.16 7.02.21 10.53l.02.85c.02 1.04.03 2.08.02 3.12 0 .26.12.5.34.63.11.07.25.1.39.1a.72.72 0 00.74-.71c.03-2.26-.02-4.56-.08-6.78l-.06-2.43-.27-12.78-.04-2.16c.24.02.48.02.75.03a62.4 62.4 0 003.1-.05l.88-.03 2.1-.06.03 1.71.23 12.4.1 6.1v.63l.03 3.17v.23c0 .26.12.5.34.63.22.13.52.14.75 0a.72.72 0 00.37-.61c.02-.93 0-1.86-.01-2.79l-.01-.65zM190.94 194.93v-.65l-.1-5.9-.24-13.4-.04-2.7h-.48l.48-.17c0-.4-.32-.72-.73-.72a.75.75 0 00-.49.17.7.7 0 00-.24.55c0 .77.01 1.53.03 2.3l.23 13.16.1 6.1v.63c.02 1.06.04 2.12.03 3.17v.23c0 .22.08.41.24.55.13.12.3.18.48.18h.01a.72.72 0 00.74-.72c.01-.92 0-1.85-.02-2.78" fill="#2F333E"/><path d="M187.8 173.05c-4.35.05-8.7.08-13.05.1a1438.54 1438.54 0 00-19.8.25c-.38 0-.7-.39-.7-.88v-2.24c0-.48.3-.87.68-.88a945 945 0 0112.77-.2c4.18-.04 8.36-.05 12.54-.08 2.28-.02 4.61-.03 6.9-.06.4 0 .7.4.7.9l-.04 3.1z" fill="#00B69E"/><path d="M177.57 197.15l-.09.06c0-.04.03-.12.08-.15h.01l.01.09zm4.72 0l-.1.07c0-.05.04-.13.09-.16h.01l.01.09zm4.61.06l-.09.06c0-.05.03-.13.08-.15h.01l.02.08h-.02zm1.34-.27a1.38 1.38 0 00-1.39-1.08c-.68-.66-1.37-1.3-2.06-1.94l-.06-.05a.68.68 0 00-.53-.24h-1.17v-.03l.05-2.81c.02-1.24.09-2.47.15-3.7l.06-1.36c.03-.66.03-1.32.03-1.98v-.55c0-.4-.33-.72-.74-.72a.71.71 0 00-.73.72v.56c0 .58 0 1.15-.02 1.72a34.9 34.9 0 01-.11 1.97c-.1 1.92-.13 3.82-.15 5.92v.26h-1.43c-.21 0-.4.08-.53.23l-.05.06c-.68.62-1.35 1.24-2 1.88a1.39 1.39 0 00-1.38 1.72c.2.73.9 1.13 1.7.97.36-.07.66-.28.85-.57a1.36 1.36 0 00.1-1.3l1.6-1.53h1.11v.9c-.54.32-.81.94-.64 1.54.2.72.9 1.12 1.7.96.36-.07.66-.28.85-.57.2-.3.26-.67.18-1.04a1.3 1.3 0 00-.63-.86l.01-.93h.9c.56.52 1.12 1.05 1.68 1.6-.14.27-.17.59-.08.89.16.61.72 1 1.36 1l.33-.03c.37-.08.67-.28.86-.58.2-.3.26-.66.18-1.03z" fill="#2F333E"/><path d="M170.19 183.36h19.03c.53.1 1.16-.28 1.28-.82l.75-3.67c.87-4.35 1.6-8.72 2.3-13.1.05-.3.1-.54-.02-.8-.24-.5-.52-.67-1.1-.83-.92-.26-8-.17-11.38-.17-.62 0-.99.6-1.12 1.23 0 .06-1.36 7.53-1.8 9.76-.4 2.05-.62 2.5-1 4.56h-6.74c-.63 0-1.6.52-1.32 2.72.08.6.53 1.12 1.12 1.12" fill="#444"/><path d="M176.99 159.5c0-.59.02-1.18 0-1.77 0-.65-.03-1.3-.07-1.96-.03-.34-.05-.68-.27-.97-.22-.3-.54-.49-.92-.54-.67-.1-1.38-.09-2.06-.12l-2.02-.1a82.4 82.4 0 00-7.19.04c-.41.02-.89 0-1.29.11a1.24 1.24 0 00-.86.88.57.57 0 00-.02.13c-.03.3-.01.6 0 .9 0 .33 0 .66.02 1 .03.63.02 1.28.07 1.92.05.66 0 1.34.11 2 .11.67.25 1.24.96 1.47.66.2 1.82.11 2.5.1.78 0 1.56 0 2.34-.02l4.72-.04 2.33-.03c.33 0 .67-.04.96-.2.36-.19.57-.54.63-.91.11-.6.05-1.27.06-1.89" fill="#00B69E"/><path d="M177.84 162.75c-.06.37-.22.7-.44.83-.2.14-.46.17-.78.18l-1.87.02-1.12.01c-9.78.12-11.13 0-11.3-.03-.38-.09-.45-.18-.55-1.11l-.05-.45c-.13-.91-.22-7.98-.18-8.49l-.48-.01.5-.11c.09-.33.3-.6.54-.68.27-.09.63-.1.97-.11l.42-.03 1.66-.02c2.95 0 8.83.09 9.4.12l.8.03c.54.02 1.1.04 1.63.13.25.05.45.2.6.45.17.28.2.66.22 1.1.07 1.11.14 7.4.03 8.17m1.44-8.25a3.75 3.75 0 00-.43-1.8 2.32 2.32 0 00-1.61-1.14c-.61-.11-1.23-.13-1.84-.15l-.75-.03c-.77-.05-10.23-.18-11.25-.1l-.38.02c-.43.02-.9.04-1.36.19a2.4 2.4 0 00-1.55 1.88l-.03.26c-.05.63.06 7.83.2 8.78 0 .12.02.25.04.4.1.87.22 2.06 1.68 2.4.15.04.55.13 4.68.13 1.8 0 4.13-.02 6.97-.05l1.1-.01c.63 0 1.27-.01 1.9-.03a2.86 2.86 0 001.55-.41c.58-.38.97-1.07 1.1-1.87.14-1 .03-7.56-.02-8.47M179.94 174.66c-2.02-.07-4.03-.04-5.74 0h-.69c-.69 0-1.4.01-2.09.1-1.15.13-1.95.8-2.27 1.86a7.5 7.5 0 00-.22 1.46l-.22 2.29a.69.69 0 00.71.76c.4 0 .72-.28.75-.67l.08-.95c.06-.7.11-1.42.23-2.1.06-.33.15-.7.37-.92.23-.23.65-.28.99-.3a102.81 102.81 0 018.07-.06c.36 0 .72-.29.74-.7a.73.73 0 00-.71-.77" fill="#2F333E"/></g></svg>